<?xml version="1.0" encoding="UTF-8" standalone="no"?>
<!-- Created with Inkscape (http://www.inkscape.org/) -->

<svg
   width="495"
   height="135"
   id="svg8538"
   version="1.1"
   inkscape:version="0.48.2 r9819"
   sodipodi:docname="control-pad.svg"
   xmlns:inkscape="http://www.inkscape.org/namespaces/inkscape"
   xmlns:sodipodi="http://sodipodi.sourceforge.net/DTD/sodipodi-0.dtd"
   xmlns="http://www.w3.org/2000/svg"
   xmlns:svg="http://www.w3.org/2000/svg"
   xmlns:rdf="http://www.w3.org/1999/02/22-rdf-syntax-ns#"
   xmlns:cc="http://creativecommons.org/ns#"
   xmlns:dc="http://purl.org/dc/elements/1.1/">
  <defs
     id="defs8540" />
  <sodipodi:namedview
     id="base"
     pagecolor="#ffffff"
     bordercolor="#666666"
     borderopacity="1.0"
     inkscape:pageopacity="0.0"
     inkscape:pageshadow="2"
     inkscape:zoom="1.4"
     inkscape:cx="260.31693"
     inkscape:cy="147.54098"
     inkscape:document-units="px"
     inkscape:current-layer="layer1"
     showgrid="false"
     units="px"
     inkscape:window-width="1390"
     inkscape:window-height="804"
     inkscape:window-x="20"
     inkscape:window-y="20"
     inkscape:window-maximized="0"
     inkscape:showpageshadow="2"
     inkscape:pagecheckerboard="0"
     inkscape:deskcolor="#d1d1d1" />
  <metadata
     id="metadata8543">
    <rdf:RDF>
      <cc:Work
         rdf:about="">
        <dc:format>image/svg+xml</dc:format>
        <dc:type
           rdf:resource="http://purl.org/dc/dcmitype/StillImage" />
        <dc:title />
      </cc:Work>
    </rdf:RDF>
  </metadata>
  <g
     inkscape:label="Layer 1"
     inkscape:groupmode="layer"
     id="layer1"
     transform="translate(0,-917.3598)">
    <g
       id="g11393">
      <path
         style="fill:none;stroke:#000000;stroke-width:1.5;stroke-linecap:square;stroke-linejoin:miter;stroke-miterlimit:4;stroke-opacity:1"
         d="m 23.892841,938.53192 h 22.5 c 4.155,0 7.5,3.345 7.5,7.5 v 22.5 c 0,4.155 -3.345,7.5 -7.5,7.5 h -22.5 c -4.155,0 -7.5,-3.345 -7.5,-7.5 v -22.5 c 0,-4.155 3.345,-7.5 7.5,-7.5 z"
         id="rect46967-7" />
      <path
         style="fill:none;stroke:#000000;stroke-width:1.5;stroke-linecap:square;stroke-linejoin:miter;stroke-miterlimit:4;stroke-opacity:1"
         d="m 65.892841,938.53192 h 22.5 c 4.155,0 7.5,3.345 7.5,7.5 v 22.5 c 0,4.155 -3.345,7.5 -7.5,7.5 h -22.5 c -4.155,0 -7.5,-3.345 -7.5,-7.5 v -22.5 c 0,-4.155 3.345,-7.5 7.5,-7.5 z"
         id="rect46969-8" />
      <path
         style="fill:none;stroke:#000000;stroke-width:1.5;stroke-linecap:square;stroke-linejoin:miter;stroke-miterlimit:4;stroke-opacity:1"
         d="m 107.89285,938.53192 h 22.5 c 4.155,0 7.5,3.345 7.5,7.5 v 22.5 c 0,4.155 -3.345,7.5 -7.5,7.5 h -22.5 c -4.155,0 -7.5,-3.345 -7.5,-7.5 v -22.5 c 0,-4.155 3.345,-7.5 7.5,-7.5 z"
         id="rect46971-8" />
      <path
         style="fill:none;stroke:#000000;stroke-width:1.5;stroke-linecap:square;stroke-linejoin:miter;stroke-miterlimit:4;stroke-opacity:1"
         d="m 23.892841,980.53192 h 22.5 c 4.155,0 7.5,3.345 7.5,7.5 v 22.49998 c 0,4.155 -3.345,7.5 -7.5,7.5 h -22.5 c -4.155,0 -7.5,-3.345 -7.5,-7.5 v -22.49998 c 0,-4.155 3.345,-7.5 7.5,-7.5 z"
         id="rect46981-3" />
      <path
         style="fill:none;stroke:#000000;stroke-width:1.5;stroke-linecap:square;stroke-linejoin:miter;stroke-miterlimit:4;stroke-opacity:1"
         d="m 65.892841,980.53192 h 22.5 c 4.155,0 7.5,3.345 7.5,7.5 v 22.49998 c 0,4.155 -3.345,7.5 -7.5,7.5 h -22.5 c -4.155,0 -7.5,-3.345 -7.5,-7.5 v -22.49998 c 0,-4.155 3.345,-7.5 7.5,-7.5 z"
         id="rect46983-8" />
      <path
         style="fill:none;stroke:#000000;stroke-width:1.5;stroke-linecap:square;stroke-linejoin:miter;stroke-miterlimit:4;stroke-opacity:1"
         d="m 107.89285,980.53192 h 22.5 c 4.155,0 7.5,3.345 7.5,7.5 v 22.49998 c 0,4.155 -3.345,7.5 -7.5,7.5 h -22.5 c -4.155,0 -7.5,-3.345 -7.5,-7.5 v -22.49998 c 0,-4.155 3.345,-7.5 7.5,-7.5 z"
         id="rect46985-1" />
      <g
         transform="matrix(1.5,0,0,1.5,-53.4221,258.12657)"
         style="font-style:normal;font-variant:normal;font-weight:bold;font-stretch:condensed;font-size:6.66667px;line-height:125%;font-family:'Arial Narrow';-inkscape-font-specification:'Arial Narrow Bold Condensed';letter-spacing:0px;word-spacing:0px;fill:#000000;fill-opacity:1;stroke:none"
         id="flowRoot47037-5">
        <path
           d="m 51.811849,468.45058 v -4.77214 h 0.78776 v 4.77214 h -0.78776"
           id="path5267" />
        <path
           d="M 55.932943,468.45058 H 55.18099 v -1.76433 c -3e-6,-0.35373 -0.01411,-0.58919 -0.04232,-0.70638 -0.02821,-0.11718 -0.08138,-0.20724 -0.159505,-0.27018 -0.07596,-0.0629 -0.162763,-0.0944 -0.260417,-0.0944 -0.12587,0 -0.239802,0.0412 -0.341797,0.1237 -0.101998,0.0803 -0.173612,0.19206 -0.214844,0.33528 -0.04123,0.14324 -0.06185,0.41342 -0.06185,0.81055 v 1.56576 h -0.751953 v -3.45704 h 0.696615 v 0.50782 c 0.123697,-0.19531 0.262585,-0.3418 0.416667,-0.43946 0.156248,-0.0976 0.328774,-0.14648 0.517578,-0.14648 0.219181,0 0.403643,0.0575 0.553385,0.17253 0.151907,0.11285 0.256074,0.25933 0.3125,0.43945 0.05859,0.17795 0.08789,0.4362 0.08789,0.77474 v 2.14844"
           id="path5269" />
        <path
           d="m 56.4375,467.46425 0.751953,-0.13998 c 0.0651,0.36242 0.266926,0.54362 0.605469,0.54362 0.18012,0 0.314668,-0.0347 0.403646,-0.10416 0.08897,-0.0695 0.133461,-0.15951 0.133463,-0.27019 -2e-6,-0.0759 -0.01953,-0.13563 -0.05859,-0.17903 -0.04123,-0.0434 -0.122614,-0.0814 -0.24414,-0.11393 -0.616321,-0.16276 -1.008031,-0.31793 -1.175131,-0.4655 -0.208333,-0.18446 -0.3125,-0.43728 -0.312499,-0.75846 -10e-7,-0.32118 0.101996,-0.57834 0.305989,-0.77149 0.203992,-0.19314 0.500216,-0.28971 0.888672,-0.28971 0.371092,0 0.65321,0.0727 0.846354,0.2181 0.19314,0.14323 0.328774,0.37544 0.406901,0.69661 l -0.70638,0.15951 c -0.06294,-0.27778 -0.240887,-0.41667 -0.533854,-0.41667 -0.184463,0 -0.315757,0.0271 -0.39388,0.0814 -0.07813,0.0521 -0.117189,0.12045 -0.117188,0.20508 -10e-7,0.076 0.03581,0.13889 0.107422,0.1888 0.07161,0.0521 0.294052,0.13021 0.667318,0.23438 0.418834,0.11719 0.703122,0.25933 0.852864,0.42643 0.147567,0.1671 0.221352,0.38954 0.221354,0.66732 -2e-6,0.3342 -0.11502,0.60981 -0.345052,0.82682 -0.227867,0.21701 -0.543621,0.32552 -0.947265,0.32552 -0.366755,0 -0.666234,-0.0901 -0.898438,-0.27018 -0.232205,-0.18229 -0.3852,-0.44705 -0.458984,-0.79427"
           id="path5271" />
        <path
           d="m 61.391927,467.35032 0.745443,0.15299 c -0.09983,0.34722 -0.254994,0.60547 -0.465495,0.77474 -0.210506,0.1671 -0.466582,0.25065 -0.768229,0.25065 -0.418838,0 -0.742189,-0.13997 -0.970052,-0.41992 -0.269098,-0.32552 -0.403646,-0.78125 -0.403646,-1.36719 0,-0.57725 0.135633,-1.03949 0.406901,-1.38672 0.230034,-0.29296 0.527342,-0.43945 0.891927,-0.43945 0.405814,0 0.723739,0.14974 0.953776,0.44922 0.264754,0.34288 0.397132,0.84853 0.397135,1.51693 l -0.0033,0.10416 h -1.878255 c 0.0043,0.27344 0.0651,0.48503 0.182292,0.63477 0.119356,0.14974 0.262585,0.22461 0.429687,0.22461 0.240884,0 0.401474,-0.16493 0.481771,-0.49479 m 0.04232,-0.92448 c -0.0065,-0.2691 -0.06402,-0.47092 -0.172526,-0.60547 -0.108509,-0.13672 -0.237632,-0.20508 -0.38737,-0.20508 -0.158422,0 -0.291885,0.0705 -0.400391,0.21159 -0.110678,0.14323 -0.164931,0.34288 -0.16276,0.59896 h 1.123047"
           id="path5273" />
        <path
           d="m 63.514322,468.45058 h -0.751953 v -3.45704 h 0.696615 v 0.49154 c 0.119356,-0.23003 0.225693,-0.38194 0.31901,-0.45573 0.09549,-0.076 0.205077,-0.11393 0.328776,-0.11393 0.171439,0 0.335285,0.0575 0.491537,0.17253 l -0.234375,0.79752 c -0.1237,-0.0998 -0.240888,-0.14973 -0.351563,-0.14974 -0.104168,1e-5 -0.196399,0.0391 -0.276693,0.11719 -0.07813,0.076 -0.134549,0.21485 -0.16927,0.41667 -0.03472,0.20182 -0.05208,0.57291 -0.05208,1.11328 v 1.06771"
           id="path5275" />
        <path
           d="m 66.212891,464.99354 v 0.72917 h -0.511068 v 1.39323 c -10e-7,0.30165 0.0076,0.47635 0.02279,0.52409 0.03038,0.0868 0.09223,0.13021 0.185547,0.13021 0.06944,0 0.169269,-0.0293 0.299479,-0.0879 l 0.0651,0.70963 c -0.173613,0.0912 -0.370011,0.13672 -0.589193,0.13672 -0.190973,0 -0.343968,-0.0456 -0.458985,-0.13672 -0.115017,-0.0911 -0.192057,-0.22244 -0.231119,-0.39388 -0.03038,-0.12587 -0.04557,-0.38194 -0.04557,-0.76823 V 465.7227 H 64.60482 v -0.72917 h 0.345052 v -0.68684 l 0.751953,-0.53386 v 1.2207 h 0.511068"
           id="path5277" />
      </g>
      <g
         transform="matrix(1.5,0,0,1.5,-11.5442,258.12657)"
         style="font-style:normal;font-variant:normal;font-weight:bold;font-stretch:condensed;font-size:6.66667px;line-height:125%;font-family:'Arial Narrow';-inkscape-font-specification:'Arial Narrow Bold Condensed';letter-spacing:0px;word-spacing:0px;fill:#000000;fill-opacity:1;stroke:none"
         id="flowRoot47045-3">
        <path
           d="m 51.837891,468.45058 v -4.77214 h 0.78776 v 1.87826 h 1.549479 v -1.87826 h 0.791016 v 4.77214 H 54.17513 v -2.08659 h -1.549479 v 2.08659 h -0.78776"
           id="path5258" />
        <path
           d="m 55.600911,466.67323 c 0,-0.33854 0.06727,-0.6467 0.201823,-0.92448 0.134548,-0.27777 0.310329,-0.4861 0.527344,-0.625 0.217013,-0.13888 0.461153,-0.20833 0.732422,-0.20833 0.455727,0 0.8138,0.17904 1.074219,0.53711 0.260413,0.3559 0.390622,0.77257 0.390625,1.25 -3e-6,0.3559 -0.06836,0.67708 -0.205078,0.96354 -0.134552,0.28646 -0.312503,0.50239 -0.533855,0.64779 -0.219186,0.14323 -0.460071,0.21484 -0.722656,0.21484 -0.421008,0 -0.7704,-0.16059 -1.048177,-0.48177 -0.277778,-0.32118 -0.416667,-0.77908 -0.416667,-1.3737 m 0.76823,0.0488 c -10e-7,0.34939 0.06836,0.61415 0.205078,0.79427 0.136717,0.17795 0.301648,0.26693 0.494791,0.26693 0.188801,0 0.350476,-0.0901 0.485026,-0.27018 0.134547,-0.18012 0.201821,-0.44597 0.201823,-0.79753 -2e-6,-0.34288 -0.06836,-0.60438 -0.205078,-0.78451 -0.136721,-0.18011 -0.300566,-0.27017 -0.491536,-0.27018 -0.188804,1e-5 -0.351564,0.0901 -0.488281,0.27018 -0.13455,0.18013 -0.201824,0.4438 -0.201823,0.79102"
           id="path5260" />
        <path
           d="m 59.064453,464.99354 h 0.690104 v 0.47201 c 0.123697,-0.18446 0.25933,-0.32226 0.406901,-0.41341 0.147568,-0.0911 0.307073,-0.13672 0.478516,-0.13672 0.182289,0 0.339624,0.0456 0.472005,0.13672 0.134546,0.0911 0.244138,0.22895 0.328776,0.41341 0.125865,-0.18446 0.260414,-0.32226 0.403646,-0.41341 0.145396,-0.0911 0.299476,-0.13672 0.462239,-0.13672 0.193139,0 0.359154,0.0467 0.498047,0.13997 0.141055,0.0912 0.247392,0.22245 0.319011,0.39388 0.07378,0.17145 0.110672,0.43512 0.110677,0.79102 v 2.21029 h -0.751953 v -1.97592 c -4e-6,-0.34505 -0.03039,-0.57399 -0.09115,-0.68684 -0.06077,-0.11502 -0.162764,-0.17253 -0.30599,-0.17253 -0.167104,0 -0.301652,0.0803 -0.403646,0.24089 -0.101999,0.15842 -0.152997,0.46983 -0.152994,0.93424 v 1.66016 h -0.751953 v -1.89454 c -3e-6,-0.37543 -0.02062,-0.6174 -0.06185,-0.72591 -0.05426,-0.14322 -0.163848,-0.21484 -0.328776,-0.21484 -0.110679,0 -0.212676,0.0369 -0.30599,0.11068 -0.09332,0.0738 -0.160592,0.18229 -0.201823,0.32552 -0.04123,0.14106 -0.06185,0.38086 -0.06185,0.7194 v 1.67969 h -0.751953 v -3.45704"
           id="path5262" />
        <path
           d="m 65.623698,467.35032 0.745443,0.15299 c -0.09983,0.34722 -0.254994,0.60547 -0.465495,0.77474 -0.210506,0.1671 -0.466582,0.25065 -0.768229,0.25065 -0.418838,0 -0.742189,-0.13997 -0.970052,-0.41992 -0.269098,-0.32552 -0.403646,-0.78125 -0.403646,-1.36719 0,-0.57725 0.135633,-1.03949 0.406901,-1.38672 0.230034,-0.29296 0.527342,-0.43945 0.891927,-0.43945 0.405814,0 0.723739,0.14974 0.953776,0.44922 0.264754,0.34288 0.397132,0.84853 0.397135,1.51693 l -0.0033,0.10416 h -1.878255 c 0.0043,0.27344 0.0651,0.48503 0.182292,0.63477 0.119356,0.14974 0.262585,0.22461 0.429687,0.22461 0.240884,0 0.401474,-0.16493 0.481771,-0.49479 m 0.04232,-0.92448 c -0.0065,-0.2691 -0.06402,-0.47092 -0.172526,-0.60547 -0.108509,-0.13672 -0.237632,-0.20508 -0.38737,-0.20508 -0.158422,0 -0.291885,0.0705 -0.400391,0.21159 -0.110678,0.14323 -0.164931,0.34288 -0.16276,0.59896 h 1.123047"
           id="path5264" />
      </g>
      <g
         transform="matrix(1.5,0,0,1.5,23.8548,254.23714)"
         style="font-style:normal;font-variant:normal;font-weight:bold;font-stretch:condensed;font-size:6.66667px;line-height:100%;font-family:'Arial Narrow';-inkscape-font-specification:'Arial Narrow Bold Condensed';text-align:center;letter-spacing:0px;word-spacing:0px;text-anchor:middle;fill:#000000;fill-opacity:1;stroke:none"
         id="flowRoot47053-5">
        <path
           d="m 57.291667,467.09171 v -4.77213 h 1.269531 c 0.473088,0 0.782333,0.0228 0.927734,0.0684 0.232202,0.0738 0.423174,0.23113 0.572917,0.47201 0.151906,0.24089 0.227861,0.55122 0.227865,0.93099 -4e-6,0.34505 -0.06511,0.63477 -0.195313,0.86914 -0.130211,0.23221 -0.292972,0.39605 -0.488281,0.49154 -0.195315,0.0933 -0.531686,0.13997 -1.009115,0.13997 h -0.517578 v 1.80013 h -0.78776 m 0.78776,-3.96484 v 1.35416 h 0.436198 c 0.292967,10e-6 0.491534,-0.0206 0.595703,-0.0618 0.106335,-0.0412 0.19314,-0.11501 0.260417,-0.22135 0.06727,-0.1085 0.100909,-0.24088 0.100911,-0.39713 -2e-6,-0.15842 -0.03472,-0.29188 -0.104166,-0.4004 -0.06945,-0.1085 -0.155168,-0.1812 -0.257162,-0.21809 -0.101998,-0.0369 -0.317927,-0.0553 -0.647786,-0.0553 h -0.384115"
           id="path5245" />
        <path
           d="m 61.494141,464.68937 -0.680339,-0.14974 c 0.08246,-0.34939 0.218099,-0.60004 0.406901,-0.75196 0.190972,-0.15407 0.464409,-0.23111 0.820313,-0.23112 0.316838,10e-6 0.558808,0.0445 0.725911,0.13347 0.167098,0.089 0.286456,0.2105 0.358073,0.36458 0.07161,0.15191 0.107419,0.42969 0.107422,0.83333 l -0.0065,1.06771 c -2e-6,0.29948 0.01193,0.52301 0.03581,0.67058 0.02387,0.1454 0.06836,0.30056 0.133463,0.46549 h -0.742187 l -0.09766,-0.3776 c -0.128041,0.15191 -0.265844,0.26584 -0.413412,0.34179 -0.145401,0.076 -0.300565,0.11394 -0.465495,0.11394 -0.275608,0 -0.501302,-0.0922 -0.677083,-0.2767 -0.175782,-0.18663 -0.263672,-0.43402 -0.263672,-0.74218 0,-0.19532 0.03581,-0.36567 0.107422,-0.51107 0.07161,-0.1454 0.172526,-0.2615 0.302734,-0.34831 0.130208,-0.0868 0.338541,-0.16384 0.625,-0.23112 0.347221,-0.0803 0.589191,-0.15516 0.725912,-0.22461 -2e-6,-0.19097 -0.01411,-0.31575 -0.04232,-0.37435 -0.02604,-0.0608 -0.07596,-0.10959 -0.149739,-0.14648 -0.07162,-0.0391 -0.173613,-0.0586 -0.30599,-0.0586 -0.13455,1e-5 -0.240887,0.0304 -0.31901,0.0912 -0.07596,0.0608 -0.137805,0.1747 -0.185547,0.3418 m 1.002604,0.74218 c -0.09549,0.0391 -0.244143,0.0846 -0.445964,0.13672 -0.232206,0.0608 -0.384115,0.12804 -0.455729,0.20183 -0.07162,0.0738 -0.107423,0.16927 -0.107422,0.28645 -10e-7,0.13238 0.03906,0.24415 0.117188,0.33529 0.08029,0.089 0.18012,0.13347 0.299479,0.13346 0.106335,10e-6 0.211587,-0.0358 0.315755,-0.10742 0.104165,-0.0738 0.17578,-0.16059 0.214844,-0.26041 0.04123,-0.0998 0.06185,-0.28104 0.06185,-0.54362 v -0.1823"
           id="path5247" />
        <path
           d="m 63.909505,467.31958 0.859375,0.12695 c 0.01302,0.12587 0.05208,0.21484 0.117188,0.26693 0.06727,0.0543 0.172524,0.0814 0.315755,0.0814 0.164928,0 0.298392,-0.0271 0.40039,-0.0814 0.07161,-0.0391 0.126951,-0.10417 0.166016,-0.19532 0.03906,-0.0911 0.05859,-0.25173 0.05859,-0.48177 v -0.50455 c -0.11285,0.18663 -0.239803,0.3266 -0.38086,0.41992 -0.14106,0.0933 -0.29731,0.13997 -0.46875,0.13997 -0.314671,0 -0.579428,-0.14214 -0.79427,-0.42643 -0.247397,-0.32552 -0.371094,-0.76606 -0.371094,-1.32162 0,-0.59027 0.116102,-1.03515 0.348307,-1.33463 0.234374,-0.30165 0.517577,-0.45247 0.849609,-0.45248 0.17578,10e-6 0.335285,0.0467 0.478516,0.13998 0.145397,0.0933 0.27452,0.23438 0.38737,0.42318 v -0.48503 h 0.703125 v 3.10221 c -3e-6,0.49696 -0.04558,0.85721 -0.136719,1.08073 -0.09115,0.22353 -0.232207,0.39171 -0.423177,0.50456 -0.188804,0.11502 -0.451391,0.17252 -0.78776,0.17253 -0.310332,-10e-6 -0.558812,-0.0412 -0.745443,-0.1237 -0.186633,-0.0825 -0.329862,-0.20617 -0.429688,-0.3711 -0.09766,-0.16276 -0.146484,-0.35156 -0.146484,-0.5664 v -0.11393 m 0.670573,-2.028 c -10e-7,0.36893 0.05859,0.63802 0.175781,0.80729 0.119357,0.16927 0.262586,0.25391 0.429688,0.25391 0.180119,0 0.334199,-0.0857 0.462239,-0.25716 0.128036,-0.17144 0.192055,-0.43186 0.192058,-0.78125 -3e-6,-0.36024 -0.06185,-0.62609 -0.185547,-0.79753 -0.12153,-0.17361 -0.272355,-0.26041 -0.452474,-0.26042 -0.177953,1e-5 -0.326607,0.0846 -0.445964,0.25391 -0.117188,0.16927 -0.175782,0.42969 -0.175781,0.78125"
           id="path5249" />
        <path
           d="m 68.971354,465.99145 0.745443,0.153 c -0.09983,0.34722 -0.254994,0.60546 -0.465495,0.77473 -0.210505,0.16711 -0.466582,0.25066 -0.768229,0.25066 -0.418838,0 -0.742188,-0.13998 -0.970052,-0.41993 -0.269098,-0.32552 -0.403646,-0.78124 -0.403646,-1.36718 0,-0.57726 0.135634,-1.0395 0.406901,-1.38672 0.230034,-0.29297 0.527343,-0.43945 0.891927,-0.43946 0.405814,10e-6 0.723739,0.14975 0.953776,0.44922 0.264755,0.34289 0.397133,0.84853 0.397136,1.51693 l -0.0033,0.10417 H 67.87756 c 0.0043,0.27344 0.0651,0.48502 0.182292,0.63476 0.119356,0.14974 0.262585,0.22461 0.429687,0.22461 0.240884,0 0.401474,-0.16493 0.481771,-0.49479 m 0.04232,-0.92448 c -0.0065,-0.26909 -0.06402,-0.47092 -0.172526,-0.60547 -0.108509,-0.13671 -0.237632,-0.20507 -0.38737,-0.20508 -0.158421,1e-5 -0.291885,0.0705 -0.40039,0.21159 -0.110679,0.14323 -0.164932,0.34289 -0.162761,0.59896 h 1.123047"
           id="path5251" />
        <path
           d="m 60.182292,468.98623 h 0.78776 v 2.58464 c -1e-6,0.40147 0.0098,0.66298 0.0293,0.7845 0.03472,0.21051 0.117186,0.37327 0.247396,0.48828 0.132377,0.11502 0.305988,0.17253 0.520833,0.17253 0.18229,0 0.330944,-0.0402 0.445964,-0.12044 0.115015,-0.0825 0.193139,-0.19531 0.234375,-0.33854 0.0434,-0.1454 0.0651,-0.45573 0.0651,-0.93099 v -2.63998 h 0.791015 v 2.50651 c -3e-6,0.64019 -0.03473,1.10352 -0.104166,1.38998 -0.06728,0.28429 -0.221358,0.5154 -0.46224,0.69336 -0.238718,0.17578 -0.554473,0.26367 -0.947265,0.26367 -0.407988,0 -0.726998,-0.0727 -0.957032,-0.2181 -0.227865,-0.14757 -0.39388,-0.35373 -0.498046,-0.61849 -0.101997,-0.26693 -0.152996,-0.75738 -0.152995,-1.47136 v -2.54557"
           id="path5253" />
        <path
           d="m 64.108073,470.30134 h 0.69987 v 0.50781 c 0.09549,-0.18229 0.221353,-0.32552 0.377604,-0.42969 0.156248,-0.10416 0.324434,-0.15625 0.504557,-0.15625 0.323349,0 0.601126,0.15408 0.833334,0.46224 0.234371,0.30816 0.351559,0.74545 0.351562,1.31185 -3e-6,0.59462 -0.117191,1.05035 -0.351562,1.36719 -0.234378,0.31467 -0.513241,0.472 -0.836589,0.472 -0.149741,0 -0.289715,-0.0358 -0.419922,-0.10742 -0.128039,-0.0738 -0.263673,-0.20616 -0.406901,-0.39713 v 1.74153 h -0.751953 v -4.77213 m 0.742187,1.66992 c -1e-6,0.39062 0.06293,0.67817 0.188803,0.86263 0.128036,0.18446 0.282116,0.27669 0.462239,0.27669 0.171439,0 0.315753,-0.0846 0.432943,-0.25391 0.117185,-0.17144 0.175779,-0.4503 0.175781,-0.83658 -2e-6,-0.36676 -0.06077,-0.63694 -0.182292,-0.81055 -0.119359,-0.17578 -0.265844,-0.26367 -0.439453,-0.26367 -0.182293,0 -0.334203,0.0857 -0.455729,0.25716 -0.121529,0.16927 -0.182293,0.42535 -0.182292,0.76823"
           id="path5255" />
      </g>
      <g
         transform="matrix(1.5,0,0,1.5,22.261,297.16488)"
         style="font-style:normal;font-variant:normal;font-weight:bold;font-stretch:condensed;font-size:6.66667px;line-height:100%;font-family:'Arial Narrow';-inkscape-font-specification:'Arial Narrow Bold Condensed';text-align:center;letter-spacing:0px;word-spacing:0px;text-anchor:middle;fill:#000000;fill-opacity:1;stroke:none"
         id="flowRoot47065-4">
        <path
           d="m 58.432292,467.09171 v -4.77213 h 1.269531 c 0.473088,0 0.782333,0.0228 0.927734,0.0684 0.232202,0.0738 0.423174,0.23113 0.572917,0.47201 0.151906,0.24089 0.227861,0.55122 0.227865,0.93099 -4e-6,0.34505 -0.06511,0.63477 -0.195313,0.86914 -0.130211,0.23221 -0.292972,0.39605 -0.488281,0.49154 -0.195315,0.0933 -0.531686,0.13997 -1.009115,0.13997 h -0.517578 v 1.80013 h -0.78776 m 0.78776,-3.96484 v 1.35416 h 0.436198 c 0.292967,10e-6 0.491534,-0.0206 0.595703,-0.0618 0.106335,-0.0412 0.19314,-0.11501 0.260417,-0.22135 0.06727,-0.1085 0.100909,-0.24088 0.100911,-0.39713 -2e-6,-0.15842 -0.03472,-0.29188 -0.104166,-0.4004 -0.06945,-0.1085 -0.155168,-0.1812 -0.257162,-0.21809 -0.101998,-0.0369 -0.317927,-0.0553 -0.647786,-0.0553 h -0.384115"
           id="path5228" />
        <path
           d="m 62.634766,464.68937 -0.680339,-0.14974 c 0.08246,-0.34939 0.218099,-0.60004 0.406901,-0.75196 0.190972,-0.15407 0.464409,-0.23111 0.820313,-0.23112 0.316838,10e-6 0.558808,0.0445 0.725911,0.13347 0.167098,0.089 0.286456,0.2105 0.358073,0.36458 0.07161,0.15191 0.107419,0.42969 0.107422,0.83333 l -0.0065,1.06771 c -2e-6,0.29948 0.01193,0.52301 0.03581,0.67058 0.02387,0.1454 0.06836,0.30056 0.133463,0.46549 h -0.742187 l -0.09766,-0.3776 c -0.128041,0.15191 -0.265844,0.26584 -0.413412,0.34179 -0.145401,0.076 -0.300565,0.11394 -0.465495,0.11394 -0.275608,0 -0.501302,-0.0922 -0.677083,-0.2767 -0.175782,-0.18663 -0.263672,-0.43402 -0.263672,-0.74218 0,-0.19532 0.03581,-0.36567 0.107422,-0.51107 0.07161,-0.1454 0.172526,-0.2615 0.302734,-0.34831 0.130208,-0.0868 0.338541,-0.16384 0.625,-0.23112 0.347221,-0.0803 0.589191,-0.15516 0.725912,-0.22461 -2e-6,-0.19097 -0.01411,-0.31575 -0.04232,-0.37435 -0.02604,-0.0608 -0.07596,-0.10959 -0.149739,-0.14648 -0.07162,-0.0391 -0.173613,-0.0586 -0.30599,-0.0586 -0.13455,1e-5 -0.240887,0.0304 -0.31901,0.0912 -0.07596,0.0608 -0.137805,0.1747 -0.185547,0.3418 m 1.002604,0.74218 c -0.09549,0.0391 -0.244143,0.0846 -0.445964,0.13672 -0.232206,0.0608 -0.384115,0.12804 -0.455729,0.20183 -0.07162,0.0738 -0.107423,0.16927 -0.107422,0.28645 -10e-7,0.13238 0.03906,0.24415 0.117188,0.33529 0.08029,0.089 0.18012,0.13347 0.299479,0.13346 0.106335,10e-6 0.211587,-0.0358 0.315755,-0.10742 0.104165,-0.0738 0.17578,-0.16059 0.214844,-0.26041 0.04123,-0.0998 0.06185,-0.28104 0.06185,-0.54362 v -0.1823"
           id="path5230" />
        <path
           d="m 65.05013,467.31958 0.859375,0.12695 c 0.01302,0.12587 0.05208,0.21484 0.117188,0.26693 0.06727,0.0543 0.172524,0.0814 0.315755,0.0814 0.164928,0 0.298392,-0.0271 0.40039,-0.0814 0.07161,-0.0391 0.126951,-0.10417 0.166016,-0.19532 0.03906,-0.0911 0.05859,-0.25173 0.05859,-0.48177 v -0.50455 c -0.11285,0.18663 -0.239803,0.3266 -0.38086,0.41992 -0.14106,0.0933 -0.29731,0.13997 -0.46875,0.13997 -0.314671,0 -0.579428,-0.14214 -0.79427,-0.42643 -0.247397,-0.32552 -0.371094,-0.76606 -0.371094,-1.32162 0,-0.59027 0.116102,-1.03515 0.348307,-1.33463 0.234374,-0.30165 0.517577,-0.45247 0.849609,-0.45248 0.17578,10e-6 0.335285,0.0467 0.478516,0.13998 0.145397,0.0933 0.27452,0.23438 0.38737,0.42318 v -0.48503 h 0.703125 v 3.10221 c -3e-6,0.49696 -0.04558,0.85721 -0.136719,1.08073 -0.09115,0.22353 -0.232207,0.39171 -0.423177,0.50456 -0.188804,0.11502 -0.451391,0.17252 -0.78776,0.17253 -0.310332,-10e-6 -0.558812,-0.0412 -0.745443,-0.1237 -0.186633,-0.0825 -0.329862,-0.20617 -0.429688,-0.3711 -0.09766,-0.16276 -0.146484,-0.35156 -0.146484,-0.5664 v -0.11393 m 0.670573,-2.028 c -10e-7,0.36893 0.05859,0.63802 0.175781,0.80729 0.119357,0.16927 0.262586,0.25391 0.429688,0.25391 0.180119,0 0.334199,-0.0857 0.462239,-0.25716 0.128036,-0.17144 0.192055,-0.43186 0.192058,-0.78125 -3e-6,-0.36024 -0.06185,-0.62609 -0.185547,-0.79753 -0.12153,-0.17361 -0.272355,-0.26041 -0.452474,-0.26042 -0.177953,1e-5 -0.326607,0.0846 -0.445964,0.25391 -0.117188,0.16927 -0.175782,0.42969 -0.175781,0.78125"
           id="path5232" />
        <path
           d="m 70.111979,465.99145 0.745443,0.153 c -0.09983,0.34722 -0.254994,0.60546 -0.465495,0.77473 -0.210505,0.16711 -0.466582,0.25066 -0.768229,0.25066 -0.418838,0 -0.742188,-0.13998 -0.970052,-0.41993 C 68.384548,466.42439 68.25,465.96867 68.25,465.38273 c 0,-0.57726 0.135634,-1.0395 0.406901,-1.38672 0.230034,-0.29297 0.527343,-0.43945 0.891927,-0.43946 0.405814,10e-6 0.723739,0.14975 0.953776,0.44922 0.264755,0.34289 0.397133,0.84853 0.397136,1.51693 l -0.0033,0.10417 h -1.878255 c 0.0043,0.27344 0.0651,0.48502 0.182292,0.63476 0.119356,0.14974 0.262585,0.22461 0.429687,0.22461 0.240884,0 0.401474,-0.16493 0.481771,-0.49479 m 0.04232,-0.92448 c -0.0065,-0.26909 -0.06402,-0.47092 -0.172526,-0.60547 -0.108509,-0.13671 -0.237632,-0.20507 -0.38737,-0.20508 -0.158421,1e-5 -0.291885,0.0705 -0.40039,0.21159 -0.110679,0.14323 -0.164932,0.34289 -0.162761,0.59896 h 1.123047"
           id="path5234" />
        <path
           d="m 57.524089,468.98623 h 1.442057 c 0.364581,1e-5 0.639103,0.0412 0.823568,0.1237 0.186629,0.0803 0.35807,0.21702 0.514323,0.41016 0.156246,0.19314 0.278859,0.44379 0.367838,0.75195 0.08897,0.30816 0.13346,0.69119 0.133464,1.14909 -4e-6,0.41233 -0.04666,0.77148 -0.139974,1.07747 -0.09332,0.30382 -0.211592,0.54471 -0.354818,0.72266 -0.143232,0.17795 -0.316843,0.3125 -0.520833,0.40364 -0.201826,0.089 -0.462242,0.13347 -0.78125,0.13347 h -1.484375 v -4.77214 m 0.78776,0.80729 v 3.16081 h 0.592448 c 0.253904,0 0.437281,-0.0239 0.55013,-0.0716 0.115015,-0.0478 0.208331,-0.11936 0.279948,-0.21485 0.07378,-0.0976 0.134546,-0.25065 0.182292,-0.45898 0.04774,-0.20833 0.07161,-0.48286 0.07161,-0.82357 -2e-6,-0.35373 -0.02496,-0.63259 -0.07487,-0.83659 -0.04775,-0.20399 -0.123701,-0.36458 -0.227865,-0.48177 -0.101999,-0.11718 -0.226782,-0.19422 -0.374349,-0.23112 -0.110679,-0.0282 -0.324438,-0.0423 -0.641276,-0.0423 h -0.358073"
           id="path5236" />
        <path
           d="m 61.29362,471.98102 c 0,-0.33854 0.06727,-0.6467 0.201823,-0.92448 0.134548,-0.27777 0.310329,-0.4861 0.527344,-0.625 0.217012,-0.13888 0.461153,-0.20833 0.732421,-0.20833 0.455727,0 0.8138,0.17904 1.074219,0.53711 0.260414,0.35591 0.390622,0.77257 0.390625,1.25 -3e-6,0.3559 -0.06836,0.67708 -0.205078,0.96354 -0.134551,0.28646 -0.312503,0.50239 -0.533854,0.64779 -0.219186,0.14323 -0.460071,0.21484 -0.722656,0.21484 -0.421009,0 -0.770401,-0.16059 -1.048177,-0.48177 -0.277779,-0.32118 -0.416667,-0.77908 -0.416667,-1.3737 m 0.768229,0.0488 c -1e-6,0.3494 0.06836,0.61415 0.205078,0.79427 0.136718,0.17795 0.301648,0.26693 0.494792,0.26693 0.1888,0 0.350475,-0.0901 0.485026,-0.27018 0.134546,-0.18012 0.20182,-0.44596 0.201823,-0.79753 -3e-6,-0.34288 -0.06836,-0.60438 -0.205078,-0.7845 -0.136721,-0.18012 -0.300566,-0.27018 -0.491537,-0.27019 -0.188803,1e-5 -0.351564,0.0901 -0.488281,0.27019 -0.13455,0.18012 -0.201824,0.44379 -0.201823,0.79101"
           id="path5238" />
        <path
           d="m 65.346354,473.75837 -0.898437,-3.45703 h 0.729166 l 0.530599,2.26562 0.488282,-2.26562 h 0.722656 l 0.472005,2.26562 0.54362,-2.26562 h 0.738932 l -0.911458,3.45703 h -0.719401 l -0.488282,-2.22331 -0.48177,2.22331 h -0.725912"
           id="path5240" />
        <path
           d="m 71.651692,473.75837 h -0.751953 v -1.76433 c -2e-6,-0.35373 -0.01411,-0.58919 -0.04232,-0.70638 -0.02821,-0.11718 -0.08138,-0.20724 -0.159505,-0.27018 -0.07596,-0.0629 -0.162762,-0.0944 -0.260417,-0.0944 -0.125869,0 -0.239801,0.0412 -0.341796,0.1237 -0.101998,0.0803 -0.173613,0.19206 -0.214844,0.33529 -0.04123,0.14323 -0.06185,0.41341 -0.06185,0.81054 v 1.56576 h -0.751953 v -3.45703 h 0.696614 v 0.50781 c 0.123697,-0.19531 0.262586,-0.34179 0.416667,-0.43945 0.156248,-0.0977 0.328774,-0.14649 0.517578,-0.14649 0.219182,0 0.403644,0.0575 0.553386,0.17253 0.151907,0.11285 0.256073,0.25933 0.3125,0.43945 0.05859,0.17795 0.08789,0.4362 0.08789,0.77474 v 2.14844"
           id="path5242" />
      </g>
      <g
         transform="matrix(1.5,0,0,1.5,-7.8039,300.12657)"
         style="font-style:normal;font-variant:normal;font-weight:bold;font-stretch:condensed;font-size:6.66667px;line-height:125%;font-family:'Arial Narrow';-inkscape-font-specification:'Arial Narrow Bold Condensed';letter-spacing:0px;word-spacing:0px;fill:#000000;fill-opacity:1;stroke:none"
         id="flowRoot47075-3">
        <path
           d="m 51.837891,468.45058 v -4.77214 h 2.903645 v 0.80729 h -2.115885 v 1.05795 h 1.966146 v 0.80403 h -1.966146 v 1.29883 h 2.1875 v 0.80404 h -2.97526"
           id="path5221" />
        <path
           d="m 58.055338,468.45058 h -0.751953 v -1.76433 c -2e-6,-0.35373 -0.01411,-0.58919 -0.04232,-0.70638 -0.02821,-0.11718 -0.08138,-0.20724 -0.159506,-0.27018 -0.07596,-0.0629 -0.162762,-0.0944 -0.260416,-0.0944 -0.12587,0 -0.239802,0.0412 -0.341797,0.1237 -0.101998,0.0803 -0.173613,0.19206 -0.214844,0.33528 -0.04123,0.14324 -0.06185,0.41342 -0.06185,0.81055 v 1.56576 h -0.751953 v -3.45704 h 0.696615 v 0.50782 c 0.123696,-0.19531 0.262585,-0.3418 0.416666,-0.43946 0.156249,-0.0976 0.328774,-0.14648 0.517578,-0.14648 0.219182,0 0.403644,0.0575 0.553386,0.17253 0.151907,0.11285 0.256073,0.25933 0.3125,0.43945 0.05859,0.17795 0.08789,0.4362 0.08789,0.77474 v 2.14844"
           id="path5223" />
        <path
           d="m 61.424479,468.45058 h -0.69987 v -0.50782 c -0.115019,0.19532 -0.250653,0.3418 -0.406901,0.43946 -0.156251,0.0976 -0.316842,0.14648 -0.481771,0.14648 -0.316841,0 -0.593533,-0.15733 -0.830078,-0.472 -0.234375,-0.31684 -0.351562,-0.76823 -0.351562,-1.35417 0,-0.59028 0.115017,-1.03515 0.345052,-1.33464 0.230034,-0.30164 0.513237,-0.45247 0.849609,-0.45247 0.158419,0 0.305988,0.0402 0.442709,0.12044 0.138887,0.0803 0.26584,0.20074 0.380859,0.36133 v -1.71875 h 0.751953 v 4.77214 m -2.001953,-1.80339 c -10e-7,0.3125 0.02604,0.54579 0.07813,0.69987 0.05425,0.15191 0.130207,0.26693 0.227865,0.34505 0.09983,0.076 0.211587,0.11394 0.335286,0.11393 0.164929,1e-5 0.308158,-0.089 0.429688,-0.26692 0.121525,-0.17795 0.182289,-0.44596 0.182291,-0.80404 -2e-6,-0.39713 -0.05968,-0.6825 -0.179036,-0.85612 -0.11719,-0.17578 -0.266929,-0.26367 -0.449219,-0.26367 -0.173613,0 -0.321182,0.0857 -0.442708,0.25716 -0.121529,0.17144 -0.182293,0.42969 -0.182292,0.77474"
           id="path5225" />
      </g>
      <g
         transform="matrix(1.5,0,0,1.5,-54.467,300.12657)"
         style="font-style:normal;font-variant:normal;font-weight:bold;font-stretch:condensed;font-size:6.66667px;line-height:125%;font-family:'Arial Narrow';-inkscape-font-specification:'Arial Narrow Bold Condensed';letter-spacing:0px;word-spacing:0px;fill:#000000;fill-opacity:1;stroke:none"
         id="flowRoot47083-6">
        <path
           d="m 51.83138,463.67844 h 1.442057 c 0.364582,10e-6 0.639104,0.0412 0.823568,0.1237 0.186629,0.0803 0.35807,0.21702 0.514323,0.41015 0.156247,0.19315 0.278859,0.4438 0.367839,0.75196 0.08897,0.30816 0.133459,0.69119 0.133463,1.14909 -4e-6,0.41232 -0.04666,0.77148 -0.139974,1.07747 -0.09332,0.30382 -0.211592,0.54471 -0.354818,0.72266 -0.143232,0.17795 -0.316843,0.3125 -0.520833,0.40364 -0.201825,0.089 -0.462242,0.13347 -0.78125,0.13347 H 51.83138 v -4.77214 m 0.787761,0.80729 v 3.16081 h 0.592447 c 0.253905,0 0.437281,-0.0239 0.550131,-0.0716 0.115015,-0.0478 0.20833,-0.11936 0.279948,-0.21485 0.07378,-0.0976 0.134545,-0.25065 0.182291,-0.45898 0.04774,-0.20833 0.07161,-0.48286 0.07161,-0.82357 -3e-6,-0.35373 -0.02496,-0.63259 -0.07487,-0.83659 -0.04775,-0.20399 -0.123701,-0.36458 -0.227865,-0.48177 -0.101998,-0.11718 -0.226781,-0.19422 -0.374348,-0.23112 -0.11068,-0.0282 -0.324438,-0.0423 -0.641276,-0.0423 h -0.358073"
           id="path5208" />
        <path
           d="m 57.420573,467.35032 0.745443,0.15299 c -0.09983,0.34722 -0.254994,0.60547 -0.465495,0.77474 -0.210506,0.1671 -0.466582,0.25065 -0.768229,0.25065 -0.418838,0 -0.742189,-0.13997 -0.970052,-0.41992 -0.269098,-0.32552 -0.403646,-0.78125 -0.403646,-1.36719 0,-0.57725 0.135633,-1.03949 0.406901,-1.38672 0.230034,-0.29296 0.527342,-0.43945 0.891927,-0.43945 0.405814,0 0.723739,0.14974 0.953776,0.44922 0.264754,0.34288 0.397132,0.84853 0.397135,1.51693 l -0.0033,0.10416 h -1.878255 c 0.0043,0.27344 0.0651,0.48503 0.182292,0.63477 0.119356,0.14974 0.262585,0.22461 0.429687,0.22461 0.240884,0 0.401474,-0.16493 0.481771,-0.49479 m 0.04232,-0.92448 c -0.0065,-0.2691 -0.06402,-0.47092 -0.172526,-0.60547 -0.108509,-0.13672 -0.237632,-0.20508 -0.38737,-0.20508 -0.158422,0 -0.291885,0.0705 -0.400391,0.21159 -0.110678,0.14323 -0.164931,0.34288 -0.16276,0.59896 h 1.123047"
           id="path5210" />
        <path
           d="m 58.823568,468.45058 v -4.77214 h 0.751953 v 4.77214 h -0.751953"
           id="path5212" />
        <path
           d="m 61.990885,467.35032 0.745443,0.15299 c -0.09983,0.34722 -0.254994,0.60547 -0.465495,0.77474 -0.210505,0.1671 -0.466581,0.25065 -0.768229,0.25065 -0.418838,0 -0.742188,-0.13997 -0.970052,-0.41992 -0.269097,-0.32552 -0.403646,-0.78125 -0.403646,-1.36719 0,-0.57725 0.135634,-1.03949 0.406901,-1.38672 0.230034,-0.29296 0.527343,-0.43945 0.891927,-0.43945 0.405814,0 0.723739,0.14974 0.953776,0.44922 0.264755,0.34288 0.397133,0.84853 0.397136,1.51693 l -0.0033,0.10416 H 60.89709 c 0.0043,0.27344 0.0651,0.48503 0.182292,0.63477 0.119356,0.14974 0.262585,0.22461 0.429688,0.22461 0.240883,0 0.401473,-0.16493 0.48177,-0.49479 m 0.04232,-0.92448 c -0.0065,-0.2691 -0.06402,-0.47092 -0.172526,-0.60547 -0.108509,-0.13672 -0.237632,-0.20508 -0.38737,-0.20508 -0.158421,0 -0.291885,0.0705 -0.40039,0.21159 -0.110678,0.14323 -0.164932,0.34288 -0.162761,0.59896 h 1.123047"
           id="path5214" />
        <path
           d="m 64.689453,464.99354 v 0.72917 h -0.511068 v 1.39323 c -1e-6,0.30165 0.0076,0.47635 0.02279,0.52409 0.03038,0.0868 0.09223,0.13021 0.185547,0.13021 0.06944,0 0.169269,-0.0293 0.299479,-0.0879 l 0.0651,0.70963 c -0.173613,0.0912 -0.37001,0.13672 -0.589193,0.13672 -0.190973,0 -0.343967,-0.0456 -0.458984,-0.13672 -0.115018,-0.0911 -0.192058,-0.22244 -0.23112,-0.39388 -0.03038,-0.12587 -0.04557,-0.38194 -0.04557,-0.76823 v -1.50716 h -0.345052 v -0.72917 h 0.345052 v -0.68684 l 0.751953,-0.53386 v 1.2207 h 0.511068"
           id="path5216" />
        <path
           d="m 66.860677,467.35032 0.745443,0.15299 c -0.09983,0.34722 -0.254994,0.60547 -0.465495,0.77474 -0.210505,0.1671 -0.466581,0.25065 -0.768229,0.25065 -0.418838,0 -0.742188,-0.13997 -0.970052,-0.41992 -0.269097,-0.32552 -0.403646,-0.78125 -0.403646,-1.36719 0,-0.57725 0.135634,-1.03949 0.406901,-1.38672 0.230034,-0.29296 0.527343,-0.43945 0.891927,-0.43945 0.405814,0 0.723739,0.14974 0.953776,0.44922 0.264755,0.34288 0.397133,0.84853 0.397136,1.51693 l -0.0033,0.10416 h -1.878256 c 0.0043,0.27344 0.0651,0.48503 0.182292,0.63477 0.119356,0.14974 0.262585,0.22461 0.429688,0.22461 0.240883,0 0.401473,-0.16493 0.48177,-0.49479 m 0.04232,-0.92448 c -0.0065,-0.2691 -0.06402,-0.47092 -0.172526,-0.60547 -0.108509,-0.13672 -0.237632,-0.20508 -0.38737,-0.20508 -0.158421,0 -0.291885,0.0705 -0.40039,0.21159 -0.110678,0.14323 -0.164932,0.34288 -0.162761,0.59896 h 1.123047"
           id="path5218" />
      </g>
    </g>
    <g
       id="g11438">
      <path
         style="fill:#c8c8ff;fill-opacity:1;stroke:#000000;stroke-width:1.5;stroke-linecap:square;stroke-linejoin:miter;stroke-miterlimit:4;stroke-opacity:1"
         d="m 193.89284,938.53192 h 22.5 c 4.155,0 7.5,3.345 7.5,7.5 v 22.5 c 0,4.155 -3.345,7.5 -7.5,7.5 h -22.5 c -4.155,0 -7.5,-3.345 -7.5,-7.5 v -22.5 c 0,-4.155 3.345,-7.5 7.5,-7.5 z"
         id="rect9106-5" />
      <path
         style="fill:none;stroke:#000000;stroke-width:1.5;stroke-linecap:square;stroke-linejoin:miter;stroke-miterlimit:4;stroke-opacity:1"
         d="m 235.89284,938.53192 h 22.5 c 4.155,0 7.5,3.345 7.5,7.5 v 22.5 c 0,4.155 -3.345,7.5 -7.5,7.5 h -22.5 c -4.155,0 -7.5,-3.345 -7.5,-7.5 v -22.5 c 0,-4.155 3.345,-7.5 7.5,-7.5 z"
         id="rect9108-9" />
      <path
         style="fill:none;stroke:#000000;stroke-width:1.5;stroke-linecap:square;stroke-linejoin:miter;stroke-miterlimit:4;stroke-opacity:1"
         d="m 277.89285,938.53192 h 22.5 c 4.155,0 7.5,3.345 7.5,7.5 v 22.5 c 0,4.155 -3.345,7.5 -7.5,7.5 h -22.5 c -4.155,0 -7.5,-3.345 -7.5,-7.5 v -22.5 c 0,-4.155 3.345,-7.5 7.5,-7.5 z"
         id="rect9110-5" />
      <path
         style="fill:none;stroke:#000000;stroke-width:1.5;stroke-linecap:square;stroke-linejoin:miter;stroke-miterlimit:4;stroke-opacity:1"
         d="m 193.89284,980.53192 h 22.5 c 4.155,0 7.5,3.345 7.5,7.5 v 22.49998 c 0,4.155 -3.345,7.5 -7.5,7.5 h -22.5 c -4.155,0 -7.5,-3.345 -7.5,-7.5 v -22.49998 c 0,-4.155 3.345,-7.5 7.5,-7.5 z"
         id="rect9112-4" />
      <path
         style="fill:none;stroke:#000000;stroke-width:1.5;stroke-linecap:square;stroke-linejoin:miter;stroke-miterlimit:4;stroke-opacity:1"
         d="m 235.89284,980.53192 h 22.5 c 4.155,0 7.5,3.345 7.5,7.5 v 22.49998 c 0,4.155 -3.345,7.5 -7.5,7.5 h -22.5 c -4.155,0 -7.5,-3.345 -7.5,-7.5 v -22.49998 c 0,-4.155 3.345,-7.5 7.5,-7.5 z"
         id="rect9114-9" />
      <path
         style="fill:none;stroke:#000000;stroke-width:1.5;stroke-linecap:square;stroke-linejoin:miter;stroke-miterlimit:4;stroke-opacity:1"
         d="m 277.89285,980.53192 h 22.5 c 4.155,0 7.5,3.345 7.5,7.5 v 22.49998 c 0,4.155 -3.345,7.5 -7.5,7.5 h -22.5 c -4.155,0 -7.5,-3.345 -7.5,-7.5 v -22.49998 c 0,-4.155 3.345,-7.5 7.5,-7.5 z"
         id="rect9116-1" />
      <g
         transform="matrix(1.5,0,0,1.5,112.866,258.12657)"
         style="font-style:normal;font-variant:normal;font-weight:bold;font-stretch:condensed;font-size:6.66667px;line-height:125%;font-family:'Arial Narrow';-inkscape-font-specification:'Arial Narrow Bold Condensed';text-align:center;letter-spacing:0px;word-spacing:0px;text-anchor:middle;fill:#000000;fill-opacity:1;stroke:none"
         id="flowRoot9118-7">
        <path
           d="m 55.891276,468.45058 v -4.77214 h 0.787761 v 1.87826 h 1.549479 v -1.87826 h 0.791015 v 4.77214 h -0.791015 v -2.08659 h -1.549479 v 2.08659 h -0.787761"
           id="path5345" />
        <path
           d="m 61.473958,467.35032 0.745443,0.15299 c -0.09983,0.34722 -0.254994,0.60547 -0.465495,0.77474 -0.210505,0.1671 -0.466581,0.25065 -0.768229,0.25065 -0.418838,0 -0.742188,-0.13997 -0.970052,-0.41992 -0.269097,-0.32552 -0.403646,-0.78125 -0.403646,-1.36719 0,-0.57725 0.135634,-1.03949 0.406901,-1.38672 0.230034,-0.29296 0.527343,-0.43945 0.891927,-0.43945 0.405814,0 0.72374,0.14974 0.953776,0.44922 0.264755,0.34288 0.397133,0.84853 0.397136,1.51693 l -0.0033,0.10416 h -1.878256 c 0.0043,0.27344 0.0651,0.48503 0.182292,0.63477 0.119357,0.14974 0.262586,0.22461 0.429688,0.22461 0.240883,0 0.401473,-0.16493 0.48177,-0.49479 m 0.04232,-0.92448 c -0.0065,-0.2691 -0.06402,-0.47092 -0.172526,-0.60547 -0.108509,-0.13672 -0.237632,-0.20508 -0.38737,-0.20508 -0.158421,0 -0.291885,0.0705 -0.40039,0.21159 -0.110678,0.14323 -0.164932,0.34288 -0.162761,0.59896 h 1.123047"
           id="path5347" />
        <path
           d="m 62.876953,468.45058 v -4.77214 h 0.751953 v 4.77214 h -0.751953"
           id="path5349" />
        <path
           d="m 64.377604,464.99354 h 0.69987 v 0.50782 c 0.09549,-0.18229 0.221353,-0.32552 0.377604,-0.42969 0.156249,-0.10416 0.324434,-0.15625 0.504558,-0.15625 0.323348,0 0.601125,0.15408 0.833333,0.46224 0.234372,0.30816 0.351559,0.74544 0.351562,1.31185 -3e-6,0.59462 -0.11719,1.05035 -0.351562,1.36719 -0.234378,0.31467 -0.51324,0.472 -0.836589,0.472 -0.149741,0 -0.289715,-0.0358 -0.419922,-0.10742 -0.128039,-0.0738 -0.263673,-0.20616 -0.406901,-0.39714 v 1.74154 h -0.751953 v -4.77214 m 0.742188,1.66993 c -10e-7,0.39062 0.06293,0.67817 0.188802,0.86263 0.128037,0.18446 0.282116,0.27669 0.462239,0.27669 0.171439,0 0.315754,-0.0846 0.432943,-0.25391 0.117185,-0.17144 0.175779,-0.4503 0.175781,-0.83659 -2e-6,-0.36675 -0.06077,-0.63693 -0.182291,-0.81054 -0.11936,-0.17578 -0.265844,-0.26367 -0.439453,-0.26367 -0.182294,0 -0.334203,0.0857 -0.45573,0.25716 -0.121529,0.16927 -0.182292,0.42535 -0.182291,0.76823"
           id="path5351" />
      </g>
      <g
         transform="matrix(1.5,0,0,1.5,158.4558,258.12657)"
         style="font-style:normal;font-variant:normal;font-weight:bold;font-stretch:condensed;font-size:6.66667px;line-height:125%;font-family:'Arial Narrow';-inkscape-font-specification:'Arial Narrow Bold Condensed';letter-spacing:0px;word-spacing:0px;fill:#000000;fill-opacity:1;stroke:none"
         id="flowRoot9126-5">
        <path
           d="m 51.837891,468.45058 v -4.77214 h 0.78776 v 1.87826 h 1.549479 v -1.87826 h 0.791016 v 4.77214 H 54.17513 v -2.08659 h -1.549479 v 2.08659 h -0.78776"
           id="path5336" />
        <path
           d="m 55.600911,466.67323 c 0,-0.33854 0.06727,-0.6467 0.201823,-0.92448 0.134548,-0.27777 0.310329,-0.4861 0.527344,-0.625 0.217013,-0.13888 0.461153,-0.20833 0.732422,-0.20833 0.455727,0 0.8138,0.17904 1.074219,0.53711 0.260413,0.3559 0.390622,0.77257 0.390625,1.25 -3e-6,0.3559 -0.06836,0.67708 -0.205078,0.96354 -0.134552,0.28646 -0.312503,0.50239 -0.533855,0.64779 -0.219186,0.14323 -0.460071,0.21484 -0.722656,0.21484 -0.421008,0 -0.7704,-0.16059 -1.048177,-0.48177 -0.277778,-0.32118 -0.416667,-0.77908 -0.416667,-1.3737 m 0.76823,0.0488 c -10e-7,0.34939 0.06836,0.61415 0.205078,0.79427 0.136717,0.17795 0.301648,0.26693 0.494791,0.26693 0.188801,0 0.350476,-0.0901 0.485026,-0.27018 0.134547,-0.18012 0.201821,-0.44597 0.201823,-0.79753 -2e-6,-0.34288 -0.06836,-0.60438 -0.205078,-0.78451 -0.136721,-0.18011 -0.300566,-0.27017 -0.491536,-0.27018 -0.188804,1e-5 -0.351564,0.0901 -0.488281,0.27018 -0.13455,0.18013 -0.201824,0.4438 -0.201823,0.79102"
           id="path5338" />
        <path
           d="m 59.064453,464.99354 h 0.690104 v 0.47201 c 0.123697,-0.18446 0.25933,-0.32226 0.406901,-0.41341 0.147568,-0.0911 0.307073,-0.13672 0.478516,-0.13672 0.182289,0 0.339624,0.0456 0.472005,0.13672 0.134546,0.0911 0.244138,0.22895 0.328776,0.41341 0.125865,-0.18446 0.260414,-0.32226 0.403646,-0.41341 0.145396,-0.0911 0.299476,-0.13672 0.462239,-0.13672 0.193139,0 0.359154,0.0467 0.498047,0.13997 0.141055,0.0912 0.247392,0.22245 0.319011,0.39388 0.07378,0.17145 0.110672,0.43512 0.110677,0.79102 v 2.21029 h -0.751953 v -1.97592 c -4e-6,-0.34505 -0.03039,-0.57399 -0.09115,-0.68684 -0.06077,-0.11502 -0.162764,-0.17253 -0.30599,-0.17253 -0.167104,0 -0.301652,0.0803 -0.403646,0.24089 -0.101999,0.15842 -0.152997,0.46983 -0.152994,0.93424 v 1.66016 h -0.751953 v -1.89454 c -3e-6,-0.37543 -0.02062,-0.6174 -0.06185,-0.72591 -0.05426,-0.14322 -0.163848,-0.21484 -0.328776,-0.21484 -0.110679,0 -0.212676,0.0369 -0.30599,0.11068 -0.09332,0.0738 -0.160592,0.18229 -0.201823,0.32552 -0.04123,0.14106 -0.06185,0.38086 -0.06185,0.7194 v 1.67969 h -0.751953 v -3.45704"
           id="path5340" />
        <path
           d="m 65.623698,467.35032 0.745443,0.15299 c -0.09983,0.34722 -0.254994,0.60547 -0.465495,0.77474 -0.210506,0.1671 -0.466582,0.25065 -0.768229,0.25065 -0.418838,0 -0.742189,-0.13997 -0.970052,-0.41992 -0.269098,-0.32552 -0.403646,-0.78125 -0.403646,-1.36719 0,-0.57725 0.135633,-1.03949 0.406901,-1.38672 0.230034,-0.29296 0.527342,-0.43945 0.891927,-0.43945 0.405814,0 0.723739,0.14974 0.953776,0.44922 0.264754,0.34288 0.397132,0.84853 0.397135,1.51693 l -0.0033,0.10416 h -1.878255 c 0.0043,0.27344 0.0651,0.48503 0.182292,0.63477 0.119356,0.14974 0.262585,0.22461 0.429687,0.22461 0.240884,0 0.401474,-0.16493 0.481771,-0.49479 m 0.04232,-0.92448 c -0.0065,-0.2691 -0.06402,-0.47092 -0.172526,-0.60547 -0.108509,-0.13672 -0.237632,-0.20508 -0.38737,-0.20508 -0.158422,0 -0.291885,0.0705 -0.400391,0.21159 -0.110678,0.14323 -0.164931,0.34288 -0.16276,0.59896 h 1.123047"
           id="path5342" />
      </g>
      <g
         transform="matrix(1.5,0,0,1.5,193.8548,254.23714)"
         style="font-style:normal;font-variant:normal;font-weight:bold;font-stretch:condensed;font-size:6.66667px;line-height:100%;font-family:'Arial Narrow';-inkscape-font-specification:'Arial Narrow Bold Condensed';text-align:center;letter-spacing:0px;word-spacing:0px;text-anchor:middle;fill:#000000;fill-opacity:1;stroke:none"
         id="flowRoot9134-5">
        <path
           d="m 57.291667,467.09171 v -4.77213 h 1.269531 c 0.473088,0 0.782333,0.0228 0.927734,0.0684 0.232202,0.0738 0.423174,0.23113 0.572917,0.47201 0.151906,0.24089 0.227861,0.55122 0.227865,0.93099 -4e-6,0.34505 -0.06511,0.63477 -0.195313,0.86914 -0.130211,0.23221 -0.292972,0.39605 -0.488281,0.49154 -0.195315,0.0933 -0.531686,0.13997 -1.009115,0.13997 h -0.517578 v 1.80013 h -0.78776 m 0.78776,-3.96484 v 1.35416 h 0.436198 c 0.292967,10e-6 0.491534,-0.0206 0.595703,-0.0618 0.106335,-0.0412 0.19314,-0.11501 0.260417,-0.22135 0.06727,-0.1085 0.100909,-0.24088 0.100911,-0.39713 -2e-6,-0.15842 -0.03472,-0.29188 -0.104166,-0.4004 -0.06945,-0.1085 -0.155168,-0.1812 -0.257162,-0.21809 -0.101998,-0.0369 -0.317927,-0.0553 -0.647786,-0.0553 h -0.384115"
           id="path5323" />
        <path
           d="m 61.494141,464.68937 -0.680339,-0.14974 c 0.08246,-0.34939 0.218099,-0.60004 0.406901,-0.75196 0.190972,-0.15407 0.464409,-0.23111 0.820313,-0.23112 0.316838,10e-6 0.558808,0.0445 0.725911,0.13347 0.167098,0.089 0.286456,0.2105 0.358073,0.36458 0.07161,0.15191 0.107419,0.42969 0.107422,0.83333 l -0.0065,1.06771 c -2e-6,0.29948 0.01193,0.52301 0.03581,0.67058 0.02387,0.1454 0.06836,0.30056 0.133463,0.46549 h -0.742187 l -0.09766,-0.3776 c -0.128041,0.15191 -0.265844,0.26584 -0.413412,0.34179 -0.145401,0.076 -0.300565,0.11394 -0.465495,0.11394 -0.275608,0 -0.501302,-0.0922 -0.677083,-0.2767 -0.175782,-0.18663 -0.263672,-0.43402 -0.263672,-0.74218 0,-0.19532 0.03581,-0.36567 0.107422,-0.51107 0.07161,-0.1454 0.172526,-0.2615 0.302734,-0.34831 0.130208,-0.0868 0.338541,-0.16384 0.625,-0.23112 0.347221,-0.0803 0.589191,-0.15516 0.725912,-0.22461 -2e-6,-0.19097 -0.01411,-0.31575 -0.04232,-0.37435 -0.02604,-0.0608 -0.07596,-0.10959 -0.149739,-0.14648 -0.07162,-0.0391 -0.173613,-0.0586 -0.30599,-0.0586 -0.13455,1e-5 -0.240887,0.0304 -0.31901,0.0912 -0.07596,0.0608 -0.137805,0.1747 -0.185547,0.3418 m 1.002604,0.74218 c -0.09549,0.0391 -0.244143,0.0846 -0.445964,0.13672 -0.232206,0.0608 -0.384115,0.12804 -0.455729,0.20183 -0.07162,0.0738 -0.107423,0.16927 -0.107422,0.28645 -10e-7,0.13238 0.03906,0.24415 0.117188,0.33529 0.08029,0.089 0.18012,0.13347 0.299479,0.13346 0.106335,10e-6 0.211587,-0.0358 0.315755,-0.10742 0.104165,-0.0738 0.17578,-0.16059 0.214844,-0.26041 0.04123,-0.0998 0.06185,-0.28104 0.06185,-0.54362 v -0.1823"
           id="path5325" />
        <path
           d="m 63.909505,467.31958 0.859375,0.12695 c 0.01302,0.12587 0.05208,0.21484 0.117188,0.26693 0.06727,0.0543 0.172524,0.0814 0.315755,0.0814 0.164928,0 0.298392,-0.0271 0.40039,-0.0814 0.07161,-0.0391 0.126951,-0.10417 0.166016,-0.19532 0.03906,-0.0911 0.05859,-0.25173 0.05859,-0.48177 v -0.50455 c -0.11285,0.18663 -0.239803,0.3266 -0.38086,0.41992 -0.14106,0.0933 -0.29731,0.13997 -0.46875,0.13997 -0.314671,0 -0.579428,-0.14214 -0.79427,-0.42643 -0.247397,-0.32552 -0.371094,-0.76606 -0.371094,-1.32162 0,-0.59027 0.116102,-1.03515 0.348307,-1.33463 0.234374,-0.30165 0.517577,-0.45247 0.849609,-0.45248 0.17578,10e-6 0.335285,0.0467 0.478516,0.13998 0.145397,0.0933 0.27452,0.23438 0.38737,0.42318 v -0.48503 h 0.703125 v 3.10221 c -3e-6,0.49696 -0.04558,0.85721 -0.136719,1.08073 -0.09115,0.22353 -0.232207,0.39171 -0.423177,0.50456 -0.188804,0.11502 -0.451391,0.17252 -0.78776,0.17253 -0.310332,-10e-6 -0.558812,-0.0412 -0.745443,-0.1237 -0.186633,-0.0825 -0.329862,-0.20617 -0.429688,-0.3711 -0.09766,-0.16276 -0.146484,-0.35156 -0.146484,-0.5664 v -0.11393 m 0.670573,-2.028 c -10e-7,0.36893 0.05859,0.63802 0.175781,0.80729 0.119357,0.16927 0.262586,0.25391 0.429688,0.25391 0.180119,0 0.334199,-0.0857 0.462239,-0.25716 0.128036,-0.17144 0.192055,-0.43186 0.192058,-0.78125 -3e-6,-0.36024 -0.06185,-0.62609 -0.185547,-0.79753 -0.12153,-0.17361 -0.272355,-0.26041 -0.452474,-0.26042 -0.177953,1e-5 -0.326607,0.0846 -0.445964,0.25391 -0.117188,0.16927 -0.175782,0.42969 -0.175781,0.78125"
           id="path5327" />
        <path
           d="m 68.971354,465.99145 0.745443,0.153 c -0.09983,0.34722 -0.254994,0.60546 -0.465495,0.77473 -0.210505,0.16711 -0.466582,0.25066 -0.768229,0.25066 -0.418838,0 -0.742188,-0.13998 -0.970052,-0.41993 -0.269098,-0.32552 -0.403646,-0.78124 -0.403646,-1.36718 0,-0.57726 0.135634,-1.0395 0.406901,-1.38672 0.230034,-0.29297 0.527343,-0.43945 0.891927,-0.43946 0.405814,10e-6 0.723739,0.14975 0.953776,0.44922 0.264755,0.34289 0.397133,0.84853 0.397136,1.51693 l -0.0033,0.10417 H 67.87756 c 0.0043,0.27344 0.0651,0.48502 0.182292,0.63476 0.119356,0.14974 0.262585,0.22461 0.429687,0.22461 0.240884,0 0.401474,-0.16493 0.481771,-0.49479 m 0.04232,-0.92448 c -0.0065,-0.26909 -0.06402,-0.47092 -0.172526,-0.60547 -0.108509,-0.13671 -0.237632,-0.20507 -0.38737,-0.20508 -0.158421,1e-5 -0.291885,0.0705 -0.40039,0.21159 -0.110679,0.14323 -0.164932,0.34289 -0.162761,0.59896 h 1.123047"
           id="path5329" />
        <path
           d="m 60.182292,468.98623 h 0.78776 v 2.58464 c -1e-6,0.40147 0.0098,0.66298 0.0293,0.7845 0.03472,0.21051 0.117186,0.37327 0.247396,0.48828 0.132377,0.11502 0.305988,0.17253 0.520833,0.17253 0.18229,0 0.330944,-0.0402 0.445964,-0.12044 0.115015,-0.0825 0.193139,-0.19531 0.234375,-0.33854 0.0434,-0.1454 0.0651,-0.45573 0.0651,-0.93099 v -2.63998 h 0.791015 v 2.50651 c -3e-6,0.64019 -0.03473,1.10352 -0.104166,1.38998 -0.06728,0.28429 -0.221358,0.5154 -0.46224,0.69336 -0.238718,0.17578 -0.554473,0.26367 -0.947265,0.26367 -0.407988,0 -0.726998,-0.0727 -0.957032,-0.2181 -0.227865,-0.14757 -0.39388,-0.35373 -0.498046,-0.61849 -0.101997,-0.26693 -0.152996,-0.75738 -0.152995,-1.47136 v -2.54557"
           id="path5331" />
        <path
           d="m 64.108073,470.30134 h 0.69987 v 0.50781 c 0.09549,-0.18229 0.221353,-0.32552 0.377604,-0.42969 0.156248,-0.10416 0.324434,-0.15625 0.504557,-0.15625 0.323349,0 0.601126,0.15408 0.833334,0.46224 0.234371,0.30816 0.351559,0.74545 0.351562,1.31185 -3e-6,0.59462 -0.117191,1.05035 -0.351562,1.36719 -0.234378,0.31467 -0.513241,0.472 -0.836589,0.472 -0.149741,0 -0.289715,-0.0358 -0.419922,-0.10742 -0.128039,-0.0738 -0.263673,-0.20616 -0.406901,-0.39713 v 1.74153 h -0.751953 v -4.77213 m 0.742187,1.66992 c -1e-6,0.39062 0.06293,0.67817 0.188803,0.86263 0.128036,0.18446 0.282116,0.27669 0.462239,0.27669 0.171439,0 0.315753,-0.0846 0.432943,-0.25391 0.117185,-0.17144 0.175779,-0.4503 0.175781,-0.83658 -2e-6,-0.36676 -0.06077,-0.63694 -0.182292,-0.81055 -0.119359,-0.17578 -0.265844,-0.26367 -0.439453,-0.26367 -0.182293,0 -0.334203,0.0857 -0.455729,0.25716 -0.121529,0.16927 -0.182293,0.42535 -0.182292,0.76823"
           id="path5333" />
      </g>
      <g
         transform="matrix(1.5,0,0,1.5,192.261,297.16488)"
         style="font-style:normal;font-variant:normal;font-weight:bold;font-stretch:condensed;font-size:6.66667px;line-height:100%;font-family:'Arial Narrow';-inkscape-font-specification:'Arial Narrow Bold Condensed';text-align:center;letter-spacing:0px;word-spacing:0px;text-anchor:middle;fill:#000000;fill-opacity:1;stroke:none"
         id="flowRoot9146-4">
        <path
           d="m 58.432292,467.09171 v -4.77213 h 1.269531 c 0.473088,0 0.782333,0.0228 0.927734,0.0684 0.232202,0.0738 0.423174,0.23113 0.572917,0.47201 0.151906,0.24089 0.227861,0.55122 0.227865,0.93099 -4e-6,0.34505 -0.06511,0.63477 -0.195313,0.86914 -0.130211,0.23221 -0.292972,0.39605 -0.488281,0.49154 -0.195315,0.0933 -0.531686,0.13997 -1.009115,0.13997 h -0.517578 v 1.80013 h -0.78776 m 0.78776,-3.96484 v 1.35416 h 0.436198 c 0.292967,10e-6 0.491534,-0.0206 0.595703,-0.0618 0.106335,-0.0412 0.19314,-0.11501 0.260417,-0.22135 0.06727,-0.1085 0.100909,-0.24088 0.100911,-0.39713 -2e-6,-0.15842 -0.03472,-0.29188 -0.104166,-0.4004 -0.06945,-0.1085 -0.155168,-0.1812 -0.257162,-0.21809 -0.101998,-0.0369 -0.317927,-0.0553 -0.647786,-0.0553 h -0.384115"
           id="path5306" />
        <path
           d="m 62.634766,464.68937 -0.680339,-0.14974 c 0.08246,-0.34939 0.218099,-0.60004 0.406901,-0.75196 0.190972,-0.15407 0.464409,-0.23111 0.820313,-0.23112 0.316838,10e-6 0.558808,0.0445 0.725911,0.13347 0.167098,0.089 0.286456,0.2105 0.358073,0.36458 0.07161,0.15191 0.107419,0.42969 0.107422,0.83333 l -0.0065,1.06771 c -2e-6,0.29948 0.01193,0.52301 0.03581,0.67058 0.02387,0.1454 0.06836,0.30056 0.133463,0.46549 h -0.742187 l -0.09766,-0.3776 c -0.128041,0.15191 -0.265844,0.26584 -0.413412,0.34179 -0.145401,0.076 -0.300565,0.11394 -0.465495,0.11394 -0.275608,0 -0.501302,-0.0922 -0.677083,-0.2767 -0.175782,-0.18663 -0.263672,-0.43402 -0.263672,-0.74218 0,-0.19532 0.03581,-0.36567 0.107422,-0.51107 0.07161,-0.1454 0.172526,-0.2615 0.302734,-0.34831 0.130208,-0.0868 0.338541,-0.16384 0.625,-0.23112 0.347221,-0.0803 0.589191,-0.15516 0.725912,-0.22461 -2e-6,-0.19097 -0.01411,-0.31575 -0.04232,-0.37435 -0.02604,-0.0608 -0.07596,-0.10959 -0.149739,-0.14648 -0.07162,-0.0391 -0.173613,-0.0586 -0.30599,-0.0586 -0.13455,1e-5 -0.240887,0.0304 -0.31901,0.0912 -0.07596,0.0608 -0.137805,0.1747 -0.185547,0.3418 m 1.002604,0.74218 c -0.09549,0.0391 -0.244143,0.0846 -0.445964,0.13672 -0.232206,0.0608 -0.384115,0.12804 -0.455729,0.20183 -0.07162,0.0738 -0.107423,0.16927 -0.107422,0.28645 -10e-7,0.13238 0.03906,0.24415 0.117188,0.33529 0.08029,0.089 0.18012,0.13347 0.299479,0.13346 0.106335,10e-6 0.211587,-0.0358 0.315755,-0.10742 0.104165,-0.0738 0.17578,-0.16059 0.214844,-0.26041 0.04123,-0.0998 0.06185,-0.28104 0.06185,-0.54362 v -0.1823"
           id="path5308" />
        <path
           d="m 65.05013,467.31958 0.859375,0.12695 c 0.01302,0.12587 0.05208,0.21484 0.117188,0.26693 0.06727,0.0543 0.172524,0.0814 0.315755,0.0814 0.164928,0 0.298392,-0.0271 0.40039,-0.0814 0.07161,-0.0391 0.126951,-0.10417 0.166016,-0.19532 0.03906,-0.0911 0.05859,-0.25173 0.05859,-0.48177 v -0.50455 c -0.11285,0.18663 -0.239803,0.3266 -0.38086,0.41992 -0.14106,0.0933 -0.29731,0.13997 -0.46875,0.13997 -0.314671,0 -0.579428,-0.14214 -0.79427,-0.42643 -0.247397,-0.32552 -0.371094,-0.76606 -0.371094,-1.32162 0,-0.59027 0.116102,-1.03515 0.348307,-1.33463 0.234374,-0.30165 0.517577,-0.45247 0.849609,-0.45248 0.17578,10e-6 0.335285,0.0467 0.478516,0.13998 0.145397,0.0933 0.27452,0.23438 0.38737,0.42318 v -0.48503 h 0.703125 v 3.10221 c -3e-6,0.49696 -0.04558,0.85721 -0.136719,1.08073 -0.09115,0.22353 -0.232207,0.39171 -0.423177,0.50456 -0.188804,0.11502 -0.451391,0.17252 -0.78776,0.17253 -0.310332,-10e-6 -0.558812,-0.0412 -0.745443,-0.1237 -0.186633,-0.0825 -0.329862,-0.20617 -0.429688,-0.3711 -0.09766,-0.16276 -0.146484,-0.35156 -0.146484,-0.5664 v -0.11393 m 0.670573,-2.028 c -10e-7,0.36893 0.05859,0.63802 0.175781,0.80729 0.119357,0.16927 0.262586,0.25391 0.429688,0.25391 0.180119,0 0.334199,-0.0857 0.462239,-0.25716 0.128036,-0.17144 0.192055,-0.43186 0.192058,-0.78125 -3e-6,-0.36024 -0.06185,-0.62609 -0.185547,-0.79753 -0.12153,-0.17361 -0.272355,-0.26041 -0.452474,-0.26042 -0.177953,1e-5 -0.326607,0.0846 -0.445964,0.25391 -0.117188,0.16927 -0.175782,0.42969 -0.175781,0.78125"
           id="path5310" />
        <path
           d="m 70.111979,465.99145 0.745443,0.153 c -0.09983,0.34722 -0.254994,0.60546 -0.465495,0.77473 -0.210505,0.16711 -0.466582,0.25066 -0.768229,0.25066 -0.418838,0 -0.742188,-0.13998 -0.970052,-0.41993 C 68.384548,466.42439 68.25,465.96867 68.25,465.38273 c 0,-0.57726 0.135634,-1.0395 0.406901,-1.38672 0.230034,-0.29297 0.527343,-0.43945 0.891927,-0.43946 0.405814,10e-6 0.723739,0.14975 0.953776,0.44922 0.264755,0.34289 0.397133,0.84853 0.397136,1.51693 l -0.0033,0.10417 h -1.878255 c 0.0043,0.27344 0.0651,0.48502 0.182292,0.63476 0.119356,0.14974 0.262585,0.22461 0.429687,0.22461 0.240884,0 0.401474,-0.16493 0.481771,-0.49479 m 0.04232,-0.92448 c -0.0065,-0.26909 -0.06402,-0.47092 -0.172526,-0.60547 -0.108509,-0.13671 -0.237632,-0.20507 -0.38737,-0.20508 -0.158421,1e-5 -0.291885,0.0705 -0.40039,0.21159 -0.110679,0.14323 -0.164932,0.34289 -0.162761,0.59896 h 1.123047"
           id="path5312" />
        <path
           d="m 57.524089,468.98623 h 1.442057 c 0.364581,1e-5 0.639103,0.0412 0.823568,0.1237 0.186629,0.0803 0.35807,0.21702 0.514323,0.41016 0.156246,0.19314 0.278859,0.44379 0.367838,0.75195 0.08897,0.30816 0.13346,0.69119 0.133464,1.14909 -4e-6,0.41233 -0.04666,0.77148 -0.139974,1.07747 -0.09332,0.30382 -0.211592,0.54471 -0.354818,0.72266 -0.143232,0.17795 -0.316843,0.3125 -0.520833,0.40364 -0.201826,0.089 -0.462242,0.13347 -0.78125,0.13347 h -1.484375 v -4.77214 m 0.78776,0.80729 v 3.16081 h 0.592448 c 0.253904,0 0.437281,-0.0239 0.55013,-0.0716 0.115015,-0.0478 0.208331,-0.11936 0.279948,-0.21485 0.07378,-0.0976 0.134546,-0.25065 0.182292,-0.45898 0.04774,-0.20833 0.07161,-0.48286 0.07161,-0.82357 -2e-6,-0.35373 -0.02496,-0.63259 -0.07487,-0.83659 -0.04775,-0.20399 -0.123701,-0.36458 -0.227865,-0.48177 -0.101999,-0.11718 -0.226782,-0.19422 -0.374349,-0.23112 -0.110679,-0.0282 -0.324438,-0.0423 -0.641276,-0.0423 h -0.358073"
           id="path5314" />
        <path
           d="m 61.29362,471.98102 c 0,-0.33854 0.06727,-0.6467 0.201823,-0.92448 0.134548,-0.27777 0.310329,-0.4861 0.527344,-0.625 0.217012,-0.13888 0.461153,-0.20833 0.732421,-0.20833 0.455727,0 0.8138,0.17904 1.074219,0.53711 0.260414,0.35591 0.390622,0.77257 0.390625,1.25 -3e-6,0.3559 -0.06836,0.67708 -0.205078,0.96354 -0.134551,0.28646 -0.312503,0.50239 -0.533854,0.64779 -0.219186,0.14323 -0.460071,0.21484 -0.722656,0.21484 -0.421009,0 -0.770401,-0.16059 -1.048177,-0.48177 -0.277779,-0.32118 -0.416667,-0.77908 -0.416667,-1.3737 m 0.768229,0.0488 c -1e-6,0.3494 0.06836,0.61415 0.205078,0.79427 0.136718,0.17795 0.301648,0.26693 0.494792,0.26693 0.1888,0 0.350475,-0.0901 0.485026,-0.27018 0.134546,-0.18012 0.20182,-0.44596 0.201823,-0.79753 -3e-6,-0.34288 -0.06836,-0.60438 -0.205078,-0.7845 -0.136721,-0.18012 -0.300566,-0.27018 -0.491537,-0.27019 -0.188803,1e-5 -0.351564,0.0901 -0.488281,0.27019 -0.13455,0.18012 -0.201824,0.44379 -0.201823,0.79101"
           id="path5316" />
        <path
           d="m 65.346354,473.75837 -0.898437,-3.45703 h 0.729166 l 0.530599,2.26562 0.488282,-2.26562 h 0.722656 l 0.472005,2.26562 0.54362,-2.26562 h 0.738932 l -0.911458,3.45703 h -0.719401 l -0.488282,-2.22331 -0.48177,2.22331 h -0.725912"
           id="path5318" />
        <path
           d="m 71.651692,473.75837 h -0.751953 v -1.76433 c -2e-6,-0.35373 -0.01411,-0.58919 -0.04232,-0.70638 -0.02821,-0.11718 -0.08138,-0.20724 -0.159505,-0.27018 -0.07596,-0.0629 -0.162762,-0.0944 -0.260417,-0.0944 -0.125869,0 -0.239801,0.0412 -0.341796,0.1237 -0.101998,0.0803 -0.173613,0.19206 -0.214844,0.33529 -0.04123,0.14323 -0.06185,0.41341 -0.06185,0.81054 v 1.56576 h -0.751953 v -3.45703 h 0.696614 v 0.50781 c 0.123697,-0.19531 0.262586,-0.34179 0.416667,-0.43945 0.156248,-0.0977 0.328774,-0.14649 0.517578,-0.14649 0.219182,0 0.403644,0.0575 0.553386,0.17253 0.151907,0.11285 0.256073,0.25933 0.3125,0.43945 0.05859,0.17795 0.08789,0.4362 0.08789,0.77474 v 2.14844"
           id="path5320" />
      </g>
      <g
         transform="matrix(1.5,0,0,1.5,162.1961,300.12657)"
         style="font-style:normal;font-variant:normal;font-weight:bold;font-stretch:condensed;font-size:6.66667px;line-height:125%;font-family:'Arial Narrow';-inkscape-font-specification:'Arial Narrow Bold Condensed';letter-spacing:0px;word-spacing:0px;fill:#000000;fill-opacity:1;stroke:none"
         id="flowRoot9156-1">
        <path
           d="m 51.837891,468.45058 v -4.77214 h 2.903645 v 0.80729 h -2.115885 v 1.05795 h 1.966146 v 0.80403 h -1.966146 v 1.29883 h 2.1875 v 0.80404 h -2.97526"
           id="path5299" />
        <path
           d="m 58.055338,468.45058 h -0.751953 v -1.76433 c -2e-6,-0.35373 -0.01411,-0.58919 -0.04232,-0.70638 -0.02821,-0.11718 -0.08138,-0.20724 -0.159506,-0.27018 -0.07596,-0.0629 -0.162762,-0.0944 -0.260416,-0.0944 -0.12587,0 -0.239802,0.0412 -0.341797,0.1237 -0.101998,0.0803 -0.173613,0.19206 -0.214844,0.33528 -0.04123,0.14324 -0.06185,0.41342 -0.06185,0.81055 v 1.56576 h -0.751953 v -3.45704 h 0.696615 v 0.50782 c 0.123696,-0.19531 0.262585,-0.3418 0.416666,-0.43946 0.156249,-0.0976 0.328774,-0.14648 0.517578,-0.14648 0.219182,0 0.403644,0.0575 0.553386,0.17253 0.151907,0.11285 0.256073,0.25933 0.3125,0.43945 0.05859,0.17795 0.08789,0.4362 0.08789,0.77474 v 2.14844"
           id="path5301" />
        <path
           d="m 61.424479,468.45058 h -0.69987 v -0.50782 c -0.115019,0.19532 -0.250653,0.3418 -0.406901,0.43946 -0.156251,0.0976 -0.316842,0.14648 -0.481771,0.14648 -0.316841,0 -0.593533,-0.15733 -0.830078,-0.472 -0.234375,-0.31684 -0.351562,-0.76823 -0.351562,-1.35417 0,-0.59028 0.115017,-1.03515 0.345052,-1.33464 0.230034,-0.30164 0.513237,-0.45247 0.849609,-0.45247 0.158419,0 0.305988,0.0402 0.442709,0.12044 0.138887,0.0803 0.26584,0.20074 0.380859,0.36133 v -1.71875 h 0.751953 v 4.77214 m -2.001953,-1.80339 c -10e-7,0.3125 0.02604,0.54579 0.07813,0.69987 0.05425,0.15191 0.130207,0.26693 0.227865,0.34505 0.09983,0.076 0.211587,0.11394 0.335286,0.11393 0.164929,1e-5 0.308158,-0.089 0.429688,-0.26692 0.121525,-0.17795 0.182289,-0.44596 0.182291,-0.80404 -2e-6,-0.39713 -0.05968,-0.6825 -0.179036,-0.85612 -0.11719,-0.17578 -0.266929,-0.26367 -0.449219,-0.26367 -0.173613,0 -0.321182,0.0857 -0.442708,0.25716 -0.121529,0.17144 -0.182293,0.42969 -0.182292,0.77474"
           id="path5303" />
      </g>
      <g
         transform="matrix(1.5,0,0,1.5,115.533,300.12657)"
         style="font-style:normal;font-variant:normal;font-weight:bold;font-stretch:condensed;font-size:6.66667px;line-height:125%;font-family:'Arial Narrow';-inkscape-font-specification:'Arial Narrow Bold Condensed';letter-spacing:0px;word-spacing:0px;fill:#000000;fill-opacity:1;stroke:none"
         id="flowRoot9164-8">
        <path
           d="m 51.83138,463.67844 h 1.442057 c 0.364582,10e-6 0.639104,0.0412 0.823568,0.1237 0.186629,0.0803 0.35807,0.21702 0.514323,0.41015 0.156247,0.19315 0.278859,0.4438 0.367839,0.75196 0.08897,0.30816 0.133459,0.69119 0.133463,1.14909 -4e-6,0.41232 -0.04666,0.77148 -0.139974,1.07747 -0.09332,0.30382 -0.211592,0.54471 -0.354818,0.72266 -0.143232,0.17795 -0.316843,0.3125 -0.520833,0.40364 -0.201825,0.089 -0.462242,0.13347 -0.78125,0.13347 H 51.83138 v -4.77214 m 0.787761,0.80729 v 3.16081 h 0.592447 c 0.253905,0 0.437281,-0.0239 0.550131,-0.0716 0.115015,-0.0478 0.20833,-0.11936 0.279948,-0.21485 0.07378,-0.0976 0.134545,-0.25065 0.182291,-0.45898 0.04774,-0.20833 0.07161,-0.48286 0.07161,-0.82357 -3e-6,-0.35373 -0.02496,-0.63259 -0.07487,-0.83659 -0.04775,-0.20399 -0.123701,-0.36458 -0.227865,-0.48177 -0.101998,-0.11718 -0.226781,-0.19422 -0.374348,-0.23112 -0.11068,-0.0282 -0.324438,-0.0423 -0.641276,-0.0423 h -0.358073"
           id="path5286" />
        <path
           d="m 57.420573,467.35032 0.745443,0.15299 c -0.09983,0.34722 -0.254994,0.60547 -0.465495,0.77474 -0.210506,0.1671 -0.466582,0.25065 -0.768229,0.25065 -0.418838,0 -0.742189,-0.13997 -0.970052,-0.41992 -0.269098,-0.32552 -0.403646,-0.78125 -0.403646,-1.36719 0,-0.57725 0.135633,-1.03949 0.406901,-1.38672 0.230034,-0.29296 0.527342,-0.43945 0.891927,-0.43945 0.405814,0 0.723739,0.14974 0.953776,0.44922 0.264754,0.34288 0.397132,0.84853 0.397135,1.51693 l -0.0033,0.10416 h -1.878255 c 0.0043,0.27344 0.0651,0.48503 0.182292,0.63477 0.119356,0.14974 0.262585,0.22461 0.429687,0.22461 0.240884,0 0.401474,-0.16493 0.481771,-0.49479 m 0.04232,-0.92448 c -0.0065,-0.2691 -0.06402,-0.47092 -0.172526,-0.60547 -0.108509,-0.13672 -0.237632,-0.20508 -0.38737,-0.20508 -0.158422,0 -0.291885,0.0705 -0.400391,0.21159 -0.110678,0.14323 -0.164931,0.34288 -0.16276,0.59896 h 1.123047"
           id="path5288" />
        <path
           d="m 58.823568,468.45058 v -4.77214 h 0.751953 v 4.77214 h -0.751953"
           id="path5290" />
        <path
           d="m 61.990885,467.35032 0.745443,0.15299 c -0.09983,0.34722 -0.254994,0.60547 -0.465495,0.77474 -0.210505,0.1671 -0.466581,0.25065 -0.768229,0.25065 -0.418838,0 -0.742188,-0.13997 -0.970052,-0.41992 -0.269097,-0.32552 -0.403646,-0.78125 -0.403646,-1.36719 0,-0.57725 0.135634,-1.03949 0.406901,-1.38672 0.230034,-0.29296 0.527343,-0.43945 0.891927,-0.43945 0.405814,0 0.723739,0.14974 0.953776,0.44922 0.264755,0.34288 0.397133,0.84853 0.397136,1.51693 l -0.0033,0.10416 H 60.89709 c 0.0043,0.27344 0.0651,0.48503 0.182292,0.63477 0.119356,0.14974 0.262585,0.22461 0.429688,0.22461 0.240883,0 0.401473,-0.16493 0.48177,-0.49479 m 0.04232,-0.92448 c -0.0065,-0.2691 -0.06402,-0.47092 -0.172526,-0.60547 -0.108509,-0.13672 -0.237632,-0.20508 -0.38737,-0.20508 -0.158421,0 -0.291885,0.0705 -0.40039,0.21159 -0.110678,0.14323 -0.164932,0.34288 -0.162761,0.59896 h 1.123047"
           id="path5292" />
        <path
           d="m 64.689453,464.99354 v 0.72917 h -0.511068 v 1.39323 c -1e-6,0.30165 0.0076,0.47635 0.02279,0.52409 0.03038,0.0868 0.09223,0.13021 0.185547,0.13021 0.06944,0 0.169269,-0.0293 0.299479,-0.0879 l 0.0651,0.70963 c -0.173613,0.0912 -0.37001,0.13672 -0.589193,0.13672 -0.190973,0 -0.343967,-0.0456 -0.458984,-0.13672 -0.115018,-0.0911 -0.192058,-0.22244 -0.23112,-0.39388 -0.03038,-0.12587 -0.04557,-0.38194 -0.04557,-0.76823 v -1.50716 h -0.345052 v -0.72917 h 0.345052 v -0.68684 l 0.751953,-0.53386 v 1.2207 h 0.511068"
           id="path5294" />
        <path
           d="m 66.860677,467.35032 0.745443,0.15299 c -0.09983,0.34722 -0.254994,0.60547 -0.465495,0.77474 -0.210505,0.1671 -0.466581,0.25065 -0.768229,0.25065 -0.418838,0 -0.742188,-0.13997 -0.970052,-0.41992 -0.269097,-0.32552 -0.403646,-0.78125 -0.403646,-1.36719 0,-0.57725 0.135634,-1.03949 0.406901,-1.38672 0.230034,-0.29296 0.527343,-0.43945 0.891927,-0.43945 0.405814,0 0.723739,0.14974 0.953776,0.44922 0.264755,0.34288 0.397133,0.84853 0.397136,1.51693 l -0.0033,0.10416 h -1.878256 c 0.0043,0.27344 0.0651,0.48503 0.182292,0.63477 0.119356,0.14974 0.262585,0.22461 0.429688,0.22461 0.240883,0 0.401473,-0.16493 0.48177,-0.49479 m 0.04232,-0.92448 c -0.0065,-0.2691 -0.06402,-0.47092 -0.172526,-0.60547 -0.108509,-0.13672 -0.237632,-0.20508 -0.38737,-0.20508 -0.158421,0 -0.291885,0.0705 -0.40039,0.21159 -0.110678,0.14323 -0.164932,0.34288 -0.162761,0.59896 h 1.123047"
           id="path5296" />
      </g>
    </g>
    <g
       id="g11481">
      <path
         style="fill:#c8c8ff;fill-opacity:1;stroke:#000000;stroke-width:1.5;stroke-linecap:square;stroke-linejoin:miter;stroke-miterlimit:4;stroke-opacity:1"
         d="m 363.89285,938.53192 h 22.5 c 4.155,0 7.5,3.345 7.5,7.5 v 22.5 c 0,4.155 -3.345,7.5 -7.5,7.5 h -22.5 c -4.155,0 -7.5,-3.345 -7.5,-7.5 v -22.5 c 0,-4.155 3.345,-7.5 7.5,-7.5 z"
         id="rect9172-8" />
      <path
         style="fill:none;stroke:#000000;stroke-width:1.5;stroke-linecap:square;stroke-linejoin:miter;stroke-miterlimit:4;stroke-opacity:1"
         d="m 405.89285,938.53192 h 22.5 c 4.155,0 7.5,3.345 7.5,7.5 v 22.5 c 0,4.155 -3.345,7.5 -7.5,7.5 h -22.5 c -4.155,0 -7.5,-3.345 -7.5,-7.5 v -22.5 c 0,-4.155 3.345,-7.5 7.5,-7.5 z"
         id="rect9174-3" />
      <path
         style="fill:none;stroke:#000000;stroke-width:1.5;stroke-linecap:square;stroke-linejoin:miter;stroke-miterlimit:4;stroke-opacity:1"
         d="m 447.89285,938.53192 h 22.5 c 4.155,0 7.5,3.345 7.5,7.5 v 22.5 c 0,4.155 -3.345,7.5 -7.5,7.5 h -22.5 c -4.155,0 -7.5,-3.345 -7.5,-7.5 v -22.5 c 0,-4.155 3.345,-7.5 7.5,-7.5 z"
         id="rect9176-5" />
      <path
         style="fill:none;stroke:#000000;stroke-width:1.5;stroke-linecap:square;stroke-linejoin:miter;stroke-miterlimit:4;stroke-opacity:1"
         d="m 363.89285,980.53192 h 22.5 c 4.155,0 7.5,3.345 7.5,7.5 v 22.49998 c 0,4.155 -3.345,7.5 -7.5,7.5 h -22.5 c -4.155,0 -7.5,-3.345 -7.5,-7.5 v -22.49998 c 0,-4.155 3.345,-7.5 7.5,-7.5 z"
         id="rect9178-2" />
      <path
         style="fill:none;stroke:#000000;stroke-width:1.5;stroke-linecap:square;stroke-linejoin:miter;stroke-miterlimit:4;stroke-opacity:1"
         d="m 405.89285,980.53192 h 22.5 c 4.155,0 7.5,3.345 7.5,7.5 v 22.49998 c 0,4.155 -3.345,7.5 -7.5,7.5 h -22.5 c -4.155,0 -7.5,-3.345 -7.5,-7.5 v -22.49998 c 0,-4.155 3.345,-7.5 7.5,-7.5 z"
         id="rect9180-2" />
      <path
         style="fill:none;stroke:#000000;stroke-width:1.5;stroke-linecap:square;stroke-linejoin:miter;stroke-miterlimit:4;stroke-opacity:1"
         d="m 447.89285,980.53192 h 22.5 c 4.155,0 7.5,3.345 7.5,7.5 v 22.49998 c 0,4.155 -3.345,7.5 -7.5,7.5 h -22.5 c -4.155,0 -7.5,-3.345 -7.5,-7.5 v -22.49998 c 0,-4.155 3.345,-7.5 7.5,-7.5 z"
         id="rect9182-6" />
      <g
         transform="matrix(1.5,0,0,1.5,282.9881,258.12657)"
         style="font-style:normal;font-variant:normal;font-weight:bold;font-stretch:condensed;font-size:6.66667px;line-height:125%;font-family:'Arial Narrow';-inkscape-font-specification:'Arial Narrow Bold Condensed';text-align:center;letter-spacing:0px;word-spacing:0px;text-anchor:middle;fill:#000000;fill-opacity:1;stroke:none"
         id="flowRoot9184-6">
        <path
           d="m 58.479167,468.45058 v -4.77214 h 2.682291 v 0.80729 h -1.894531 v 1.12956 h 1.63737 v 0.80729 h -1.63737 v 2.028 h -0.78776"
           id="path5419" />
        <path
           d="m 64.39388,468.45058 h -0.751953 v -1.76433 c -2e-6,-0.35373 -0.01411,-0.58919 -0.04232,-0.70638 -0.02821,-0.11718 -0.08138,-0.20724 -0.159505,-0.27018 -0.07596,-0.0629 -0.162762,-0.0944 -0.260417,-0.0944 -0.125869,0 -0.239801,0.0412 -0.341796,0.1237 -0.101998,0.0803 -0.173613,0.19206 -0.214844,0.33528 -0.04123,0.14324 -0.06185,0.41342 -0.06185,0.81055 v 1.56576 h -0.751953 v -3.45704 h 0.696614 v 0.50782 c 0.123697,-0.19531 0.262586,-0.3418 0.416667,-0.43946 0.156248,-0.0976 0.328774,-0.14648 0.517578,-0.14648 0.219182,0 0.403643,0.0575 0.553385,0.17253 0.151907,0.11285 0.256074,0.25933 0.3125,0.43945 0.05859,0.17795 0.08789,0.4362 0.08789,0.77474 v 2.14844"
           id="path5421" />
      </g>
      <g
         transform="matrix(1.5,0,0,1.5,328.4558,258.12657)"
         style="font-style:normal;font-variant:normal;font-weight:bold;font-stretch:condensed;font-size:6.66667px;line-height:125%;font-family:'Arial Narrow';-inkscape-font-specification:'Arial Narrow Bold Condensed';letter-spacing:0px;word-spacing:0px;fill:#000000;fill-opacity:1;stroke:none"
         id="flowRoot9192-7">
        <path
           d="m 51.837891,468.45058 v -4.77214 h 0.78776 v 1.87826 h 1.549479 v -1.87826 h 0.791016 v 4.77214 H 54.17513 v -2.08659 h -1.549479 v 2.08659 h -0.78776"
           id="path5410" />
        <path
           d="m 55.600911,466.67323 c 0,-0.33854 0.06727,-0.6467 0.201823,-0.92448 0.134548,-0.27777 0.310329,-0.4861 0.527344,-0.625 0.217013,-0.13888 0.461153,-0.20833 0.732422,-0.20833 0.455727,0 0.8138,0.17904 1.074219,0.53711 0.260413,0.3559 0.390622,0.77257 0.390625,1.25 -3e-6,0.3559 -0.06836,0.67708 -0.205078,0.96354 -0.134552,0.28646 -0.312503,0.50239 -0.533855,0.64779 -0.219186,0.14323 -0.460071,0.21484 -0.722656,0.21484 -0.421008,0 -0.7704,-0.16059 -1.048177,-0.48177 -0.277778,-0.32118 -0.416667,-0.77908 -0.416667,-1.3737 m 0.76823,0.0488 c -10e-7,0.34939 0.06836,0.61415 0.205078,0.79427 0.136717,0.17795 0.301648,0.26693 0.494791,0.26693 0.188801,0 0.350476,-0.0901 0.485026,-0.27018 0.134547,-0.18012 0.201821,-0.44597 0.201823,-0.79753 -2e-6,-0.34288 -0.06836,-0.60438 -0.205078,-0.78451 -0.136721,-0.18011 -0.300566,-0.27017 -0.491536,-0.27018 -0.188804,1e-5 -0.351564,0.0901 -0.488281,0.27018 -0.13455,0.18013 -0.201824,0.4438 -0.201823,0.79102"
           id="path5412" />
        <path
           d="m 59.064453,464.99354 h 0.690104 v 0.47201 c 0.123697,-0.18446 0.25933,-0.32226 0.406901,-0.41341 0.147568,-0.0911 0.307073,-0.13672 0.478516,-0.13672 0.182289,0 0.339624,0.0456 0.472005,0.13672 0.134546,0.0911 0.244138,0.22895 0.328776,0.41341 0.125865,-0.18446 0.260414,-0.32226 0.403646,-0.41341 0.145396,-0.0911 0.299476,-0.13672 0.462239,-0.13672 0.193139,0 0.359154,0.0467 0.498047,0.13997 0.141055,0.0912 0.247392,0.22245 0.319011,0.39388 0.07378,0.17145 0.110672,0.43512 0.110677,0.79102 v 2.21029 h -0.751953 v -1.97592 c -4e-6,-0.34505 -0.03039,-0.57399 -0.09115,-0.68684 -0.06077,-0.11502 -0.162764,-0.17253 -0.30599,-0.17253 -0.167104,0 -0.301652,0.0803 -0.403646,0.24089 -0.101999,0.15842 -0.152997,0.46983 -0.152994,0.93424 v 1.66016 h -0.751953 v -1.89454 c -3e-6,-0.37543 -0.02062,-0.6174 -0.06185,-0.72591 -0.05426,-0.14322 -0.163848,-0.21484 -0.328776,-0.21484 -0.110679,0 -0.212676,0.0369 -0.30599,0.11068 -0.09332,0.0738 -0.160592,0.18229 -0.201823,0.32552 -0.04123,0.14106 -0.06185,0.38086 -0.06185,0.7194 v 1.67969 h -0.751953 v -3.45704"
           id="path5414" />
        <path
           d="m 65.623698,467.35032 0.745443,0.15299 c -0.09983,0.34722 -0.254994,0.60547 -0.465495,0.77474 -0.210506,0.1671 -0.466582,0.25065 -0.768229,0.25065 -0.418838,0 -0.742189,-0.13997 -0.970052,-0.41992 -0.269098,-0.32552 -0.403646,-0.78125 -0.403646,-1.36719 0,-0.57725 0.135633,-1.03949 0.406901,-1.38672 0.230034,-0.29296 0.527342,-0.43945 0.891927,-0.43945 0.405814,0 0.723739,0.14974 0.953776,0.44922 0.264754,0.34288 0.397132,0.84853 0.397135,1.51693 l -0.0033,0.10416 h -1.878255 c 0.0043,0.27344 0.0651,0.48503 0.182292,0.63477 0.119356,0.14974 0.262585,0.22461 0.429687,0.22461 0.240884,0 0.401474,-0.16493 0.481771,-0.49479 m 0.04232,-0.92448 c -0.0065,-0.2691 -0.06402,-0.47092 -0.172526,-0.60547 -0.108509,-0.13672 -0.237632,-0.20508 -0.38737,-0.20508 -0.158422,0 -0.291885,0.0705 -0.400391,0.21159 -0.110678,0.14323 -0.164931,0.34288 -0.16276,0.59896 h 1.123047"
           id="path5416" />
      </g>
      <g
         transform="matrix(1.5,0,0,1.5,363.8548,254.23714)"
         style="font-style:normal;font-variant:normal;font-weight:bold;font-stretch:condensed;font-size:6.66667px;line-height:100%;font-family:'Arial Narrow';-inkscape-font-specification:'Arial Narrow Bold Condensed';text-align:center;letter-spacing:0px;word-spacing:0px;text-anchor:middle;fill:#000000;fill-opacity:1;stroke:none"
         id="flowRoot9200-8">
        <path
           d="m 57.291667,467.09171 v -4.77213 h 1.269531 c 0.473088,0 0.782333,0.0228 0.927734,0.0684 0.232202,0.0738 0.423174,0.23113 0.572917,0.47201 0.151906,0.24089 0.227861,0.55122 0.227865,0.93099 -4e-6,0.34505 -0.06511,0.63477 -0.195313,0.86914 -0.130211,0.23221 -0.292972,0.39605 -0.488281,0.49154 -0.195315,0.0933 -0.531686,0.13997 -1.009115,0.13997 h -0.517578 v 1.80013 h -0.78776 m 0.78776,-3.96484 v 1.35416 h 0.436198 c 0.292967,10e-6 0.491534,-0.0206 0.595703,-0.0618 0.106335,-0.0412 0.19314,-0.11501 0.260417,-0.22135 0.06727,-0.1085 0.100909,-0.24088 0.100911,-0.39713 -2e-6,-0.15842 -0.03472,-0.29188 -0.104166,-0.4004 -0.06945,-0.1085 -0.155168,-0.1812 -0.257162,-0.21809 -0.101998,-0.0369 -0.317927,-0.0553 -0.647786,-0.0553 h -0.384115"
           id="path5397" />
        <path
           d="m 61.494141,464.68937 -0.680339,-0.14974 c 0.08246,-0.34939 0.218099,-0.60004 0.406901,-0.75196 0.190972,-0.15407 0.464409,-0.23111 0.820313,-0.23112 0.316838,10e-6 0.558808,0.0445 0.725911,0.13347 0.167098,0.089 0.286456,0.2105 0.358073,0.36458 0.07161,0.15191 0.107419,0.42969 0.107422,0.83333 l -0.0065,1.06771 c -2e-6,0.29948 0.01193,0.52301 0.03581,0.67058 0.02387,0.1454 0.06836,0.30056 0.133463,0.46549 h -0.742187 l -0.09766,-0.3776 c -0.128041,0.15191 -0.265844,0.26584 -0.413412,0.34179 -0.145401,0.076 -0.300565,0.11394 -0.465495,0.11394 -0.275608,0 -0.501302,-0.0922 -0.677083,-0.2767 -0.175782,-0.18663 -0.263672,-0.43402 -0.263672,-0.74218 0,-0.19532 0.03581,-0.36567 0.107422,-0.51107 0.07161,-0.1454 0.172526,-0.2615 0.302734,-0.34831 0.130208,-0.0868 0.338541,-0.16384 0.625,-0.23112 0.347221,-0.0803 0.589191,-0.15516 0.725912,-0.22461 -2e-6,-0.19097 -0.01411,-0.31575 -0.04232,-0.37435 -0.02604,-0.0608 -0.07596,-0.10959 -0.149739,-0.14648 -0.07162,-0.0391 -0.173613,-0.0586 -0.30599,-0.0586 -0.13455,1e-5 -0.240887,0.0304 -0.31901,0.0912 -0.07596,0.0608 -0.137805,0.1747 -0.185547,0.3418 m 1.002604,0.74218 c -0.09549,0.0391 -0.244143,0.0846 -0.445964,0.13672 -0.232206,0.0608 -0.384115,0.12804 -0.455729,0.20183 -0.07162,0.0738 -0.107423,0.16927 -0.107422,0.28645 -10e-7,0.13238 0.03906,0.24415 0.117188,0.33529 0.08029,0.089 0.18012,0.13347 0.299479,0.13346 0.106335,10e-6 0.211587,-0.0358 0.315755,-0.10742 0.104165,-0.0738 0.17578,-0.16059 0.214844,-0.26041 0.04123,-0.0998 0.06185,-0.28104 0.06185,-0.54362 v -0.1823"
           id="path5399" />
        <path
           d="m 63.909505,467.31958 0.859375,0.12695 c 0.01302,0.12587 0.05208,0.21484 0.117188,0.26693 0.06727,0.0543 0.172524,0.0814 0.315755,0.0814 0.164928,0 0.298392,-0.0271 0.40039,-0.0814 0.07161,-0.0391 0.126951,-0.10417 0.166016,-0.19532 0.03906,-0.0911 0.05859,-0.25173 0.05859,-0.48177 v -0.50455 c -0.11285,0.18663 -0.239803,0.3266 -0.38086,0.41992 -0.14106,0.0933 -0.29731,0.13997 -0.46875,0.13997 -0.314671,0 -0.579428,-0.14214 -0.79427,-0.42643 -0.247397,-0.32552 -0.371094,-0.76606 -0.371094,-1.32162 0,-0.59027 0.116102,-1.03515 0.348307,-1.33463 0.234374,-0.30165 0.517577,-0.45247 0.849609,-0.45248 0.17578,10e-6 0.335285,0.0467 0.478516,0.13998 0.145397,0.0933 0.27452,0.23438 0.38737,0.42318 v -0.48503 h 0.703125 v 3.10221 c -3e-6,0.49696 -0.04558,0.85721 -0.136719,1.08073 -0.09115,0.22353 -0.232207,0.39171 -0.423177,0.50456 -0.188804,0.11502 -0.451391,0.17252 -0.78776,0.17253 -0.310332,-10e-6 -0.558812,-0.0412 -0.745443,-0.1237 -0.186633,-0.0825 -0.329862,-0.20617 -0.429688,-0.3711 -0.09766,-0.16276 -0.146484,-0.35156 -0.146484,-0.5664 v -0.11393 m 0.670573,-2.028 c -10e-7,0.36893 0.05859,0.63802 0.175781,0.80729 0.119357,0.16927 0.262586,0.25391 0.429688,0.25391 0.180119,0 0.334199,-0.0857 0.462239,-0.25716 0.128036,-0.17144 0.192055,-0.43186 0.192058,-0.78125 -3e-6,-0.36024 -0.06185,-0.62609 -0.185547,-0.79753 -0.12153,-0.17361 -0.272355,-0.26041 -0.452474,-0.26042 -0.177953,1e-5 -0.326607,0.0846 -0.445964,0.25391 -0.117188,0.16927 -0.175782,0.42969 -0.175781,0.78125"
           id="path5401" />
        <path
           d="m 68.971354,465.99145 0.745443,0.153 c -0.09983,0.34722 -0.254994,0.60546 -0.465495,0.77473 -0.210505,0.16711 -0.466582,0.25066 -0.768229,0.25066 -0.418838,0 -0.742188,-0.13998 -0.970052,-0.41993 -0.269098,-0.32552 -0.403646,-0.78124 -0.403646,-1.36718 0,-0.57726 0.135634,-1.0395 0.406901,-1.38672 0.230034,-0.29297 0.527343,-0.43945 0.891927,-0.43946 0.405814,10e-6 0.723739,0.14975 0.953776,0.44922 0.264755,0.34289 0.397133,0.84853 0.397136,1.51693 l -0.0033,0.10417 H 67.87756 c 0.0043,0.27344 0.0651,0.48502 0.182292,0.63476 0.119356,0.14974 0.262585,0.22461 0.429687,0.22461 0.240884,0 0.401474,-0.16493 0.481771,-0.49479 m 0.04232,-0.92448 c -0.0065,-0.26909 -0.06402,-0.47092 -0.172526,-0.60547 -0.108509,-0.13671 -0.237632,-0.20507 -0.38737,-0.20508 -0.158421,1e-5 -0.291885,0.0705 -0.40039,0.21159 -0.110679,0.14323 -0.164932,0.34289 -0.162761,0.59896 h 1.123047"
           id="path5403" />
        <path
           d="m 60.182292,468.98623 h 0.78776 v 2.58464 c -1e-6,0.40147 0.0098,0.66298 0.0293,0.7845 0.03472,0.21051 0.117186,0.37327 0.247396,0.48828 0.132377,0.11502 0.305988,0.17253 0.520833,0.17253 0.18229,0 0.330944,-0.0402 0.445964,-0.12044 0.115015,-0.0825 0.193139,-0.19531 0.234375,-0.33854 0.0434,-0.1454 0.0651,-0.45573 0.0651,-0.93099 v -2.63998 h 0.791015 v 2.50651 c -3e-6,0.64019 -0.03473,1.10352 -0.104166,1.38998 -0.06728,0.28429 -0.221358,0.5154 -0.46224,0.69336 -0.238718,0.17578 -0.554473,0.26367 -0.947265,0.26367 -0.407988,0 -0.726998,-0.0727 -0.957032,-0.2181 -0.227865,-0.14757 -0.39388,-0.35373 -0.498046,-0.61849 -0.101997,-0.26693 -0.152996,-0.75738 -0.152995,-1.47136 v -2.54557"
           id="path5405" />
        <path
           d="m 64.108073,470.30134 h 0.69987 v 0.50781 c 0.09549,-0.18229 0.221353,-0.32552 0.377604,-0.42969 0.156248,-0.10416 0.324434,-0.15625 0.504557,-0.15625 0.323349,0 0.601126,0.15408 0.833334,0.46224 0.234371,0.30816 0.351559,0.74545 0.351562,1.31185 -3e-6,0.59462 -0.117191,1.05035 -0.351562,1.36719 -0.234378,0.31467 -0.513241,0.472 -0.836589,0.472 -0.149741,0 -0.289715,-0.0358 -0.419922,-0.10742 -0.128039,-0.0738 -0.263673,-0.20616 -0.406901,-0.39713 v 1.74153 h -0.751953 v -4.77213 m 0.742187,1.66992 c -1e-6,0.39062 0.06293,0.67817 0.188803,0.86263 0.128036,0.18446 0.282116,0.27669 0.462239,0.27669 0.171439,0 0.315753,-0.0846 0.432943,-0.25391 0.117185,-0.17144 0.175779,-0.4503 0.175781,-0.83658 -2e-6,-0.36676 -0.06077,-0.63694 -0.182292,-0.81055 -0.119359,-0.17578 -0.265844,-0.26367 -0.439453,-0.26367 -0.182293,0 -0.334203,0.0857 -0.455729,0.25716 -0.121529,0.16927 -0.182293,0.42535 -0.182292,0.76823"
           id="path5407" />
      </g>
      <g
         transform="matrix(1.5,0,0,1.5,362.261,297.16488)"
         style="font-style:normal;font-variant:normal;font-weight:bold;font-stretch:condensed;font-size:6.66667px;line-height:100%;font-family:'Arial Narrow';-inkscape-font-specification:'Arial Narrow Bold Condensed';text-align:center;letter-spacing:0px;word-spacing:0px;text-anchor:middle;fill:#000000;fill-opacity:1;stroke:none"
         id="flowRoot9212-4">
        <path
           d="m 58.432292,467.09171 v -4.77213 h 1.269531 c 0.473088,0 0.782333,0.0228 0.927734,0.0684 0.232202,0.0738 0.423174,0.23113 0.572917,0.47201 0.151906,0.24089 0.227861,0.55122 0.227865,0.93099 -4e-6,0.34505 -0.06511,0.63477 -0.195313,0.86914 -0.130211,0.23221 -0.292972,0.39605 -0.488281,0.49154 -0.195315,0.0933 -0.531686,0.13997 -1.009115,0.13997 h -0.517578 v 1.80013 h -0.78776 m 0.78776,-3.96484 v 1.35416 h 0.436198 c 0.292967,10e-6 0.491534,-0.0206 0.595703,-0.0618 0.106335,-0.0412 0.19314,-0.11501 0.260417,-0.22135 0.06727,-0.1085 0.100909,-0.24088 0.100911,-0.39713 -2e-6,-0.15842 -0.03472,-0.29188 -0.104166,-0.4004 -0.06945,-0.1085 -0.155168,-0.1812 -0.257162,-0.21809 -0.101998,-0.0369 -0.317927,-0.0553 -0.647786,-0.0553 h -0.384115"
           id="path5380" />
        <path
           d="m 62.634766,464.68937 -0.680339,-0.14974 c 0.08246,-0.34939 0.218099,-0.60004 0.406901,-0.75196 0.190972,-0.15407 0.464409,-0.23111 0.820313,-0.23112 0.316838,10e-6 0.558808,0.0445 0.725911,0.13347 0.167098,0.089 0.286456,0.2105 0.358073,0.36458 0.07161,0.15191 0.107419,0.42969 0.107422,0.83333 l -0.0065,1.06771 c -2e-6,0.29948 0.01193,0.52301 0.03581,0.67058 0.02387,0.1454 0.06836,0.30056 0.133463,0.46549 h -0.742187 l -0.09766,-0.3776 c -0.128041,0.15191 -0.265844,0.26584 -0.413412,0.34179 -0.145401,0.076 -0.300565,0.11394 -0.465495,0.11394 -0.275608,0 -0.501302,-0.0922 -0.677083,-0.2767 -0.175782,-0.18663 -0.263672,-0.43402 -0.263672,-0.74218 0,-0.19532 0.03581,-0.36567 0.107422,-0.51107 0.07161,-0.1454 0.172526,-0.2615 0.302734,-0.34831 0.130208,-0.0868 0.338541,-0.16384 0.625,-0.23112 0.347221,-0.0803 0.589191,-0.15516 0.725912,-0.22461 -2e-6,-0.19097 -0.01411,-0.31575 -0.04232,-0.37435 -0.02604,-0.0608 -0.07596,-0.10959 -0.149739,-0.14648 -0.07162,-0.0391 -0.173613,-0.0586 -0.30599,-0.0586 -0.13455,1e-5 -0.240887,0.0304 -0.31901,0.0912 -0.07596,0.0608 -0.137805,0.1747 -0.185547,0.3418 m 1.002604,0.74218 c -0.09549,0.0391 -0.244143,0.0846 -0.445964,0.13672 -0.232206,0.0608 -0.384115,0.12804 -0.455729,0.20183 -0.07162,0.0738 -0.107423,0.16927 -0.107422,0.28645 -10e-7,0.13238 0.03906,0.24415 0.117188,0.33529 0.08029,0.089 0.18012,0.13347 0.299479,0.13346 0.106335,10e-6 0.211587,-0.0358 0.315755,-0.10742 0.104165,-0.0738 0.17578,-0.16059 0.214844,-0.26041 0.04123,-0.0998 0.06185,-0.28104 0.06185,-0.54362 v -0.1823"
           id="path5382" />
        <path
           d="m 65.05013,467.31958 0.859375,0.12695 c 0.01302,0.12587 0.05208,0.21484 0.117188,0.26693 0.06727,0.0543 0.172524,0.0814 0.315755,0.0814 0.164928,0 0.298392,-0.0271 0.40039,-0.0814 0.07161,-0.0391 0.126951,-0.10417 0.166016,-0.19532 0.03906,-0.0911 0.05859,-0.25173 0.05859,-0.48177 v -0.50455 c -0.11285,0.18663 -0.239803,0.3266 -0.38086,0.41992 -0.14106,0.0933 -0.29731,0.13997 -0.46875,0.13997 -0.314671,0 -0.579428,-0.14214 -0.79427,-0.42643 -0.247397,-0.32552 -0.371094,-0.76606 -0.371094,-1.32162 0,-0.59027 0.116102,-1.03515 0.348307,-1.33463 0.234374,-0.30165 0.517577,-0.45247 0.849609,-0.45248 0.17578,10e-6 0.335285,0.0467 0.478516,0.13998 0.145397,0.0933 0.27452,0.23438 0.38737,0.42318 v -0.48503 h 0.703125 v 3.10221 c -3e-6,0.49696 -0.04558,0.85721 -0.136719,1.08073 -0.09115,0.22353 -0.232207,0.39171 -0.423177,0.50456 -0.188804,0.11502 -0.451391,0.17252 -0.78776,0.17253 -0.310332,-10e-6 -0.558812,-0.0412 -0.745443,-0.1237 -0.186633,-0.0825 -0.329862,-0.20617 -0.429688,-0.3711 -0.09766,-0.16276 -0.146484,-0.35156 -0.146484,-0.5664 v -0.11393 m 0.670573,-2.028 c -10e-7,0.36893 0.05859,0.63802 0.175781,0.80729 0.119357,0.16927 0.262586,0.25391 0.429688,0.25391 0.180119,0 0.334199,-0.0857 0.462239,-0.25716 0.128036,-0.17144 0.192055,-0.43186 0.192058,-0.78125 -3e-6,-0.36024 -0.06185,-0.62609 -0.185547,-0.79753 -0.12153,-0.17361 -0.272355,-0.26041 -0.452474,-0.26042 -0.177953,1e-5 -0.326607,0.0846 -0.445964,0.25391 -0.117188,0.16927 -0.175782,0.42969 -0.175781,0.78125"
           id="path5384" />
        <path
           d="m 70.111979,465.99145 0.745443,0.153 c -0.09983,0.34722 -0.254994,0.60546 -0.465495,0.77473 -0.210505,0.16711 -0.466582,0.25066 -0.768229,0.25066 -0.418838,0 -0.742188,-0.13998 -0.970052,-0.41993 C 68.384548,466.42439 68.25,465.96867 68.25,465.38273 c 0,-0.57726 0.135634,-1.0395 0.406901,-1.38672 0.230034,-0.29297 0.527343,-0.43945 0.891927,-0.43946 0.405814,10e-6 0.723739,0.14975 0.953776,0.44922 0.264755,0.34289 0.397133,0.84853 0.397136,1.51693 l -0.0033,0.10417 h -1.878255 c 0.0043,0.27344 0.0651,0.48502 0.182292,0.63476 0.119356,0.14974 0.262585,0.22461 0.429687,0.22461 0.240884,0 0.401474,-0.16493 0.481771,-0.49479 m 0.04232,-0.92448 c -0.0065,-0.26909 -0.06402,-0.47092 -0.172526,-0.60547 -0.108509,-0.13671 -0.237632,-0.20507 -0.38737,-0.20508 -0.158421,1e-5 -0.291885,0.0705 -0.40039,0.21159 -0.110679,0.14323 -0.164932,0.34289 -0.162761,0.59896 h 1.123047"
           id="path5386" />
        <path
           d="m 57.524089,468.98623 h 1.442057 c 0.364581,1e-5 0.639103,0.0412 0.823568,0.1237 0.186629,0.0803 0.35807,0.21702 0.514323,0.41016 0.156246,0.19314 0.278859,0.44379 0.367838,0.75195 0.08897,0.30816 0.13346,0.69119 0.133464,1.14909 -4e-6,0.41233 -0.04666,0.77148 -0.139974,1.07747 -0.09332,0.30382 -0.211592,0.54471 -0.354818,0.72266 -0.143232,0.17795 -0.316843,0.3125 -0.520833,0.40364 -0.201826,0.089 -0.462242,0.13347 -0.78125,0.13347 h -1.484375 v -4.77214 m 0.78776,0.80729 v 3.16081 h 0.592448 c 0.253904,0 0.437281,-0.0239 0.55013,-0.0716 0.115015,-0.0478 0.208331,-0.11936 0.279948,-0.21485 0.07378,-0.0976 0.134546,-0.25065 0.182292,-0.45898 0.04774,-0.20833 0.07161,-0.48286 0.07161,-0.82357 -2e-6,-0.35373 -0.02496,-0.63259 -0.07487,-0.83659 -0.04775,-0.20399 -0.123701,-0.36458 -0.227865,-0.48177 -0.101999,-0.11718 -0.226782,-0.19422 -0.374349,-0.23112 -0.110679,-0.0282 -0.324438,-0.0423 -0.641276,-0.0423 h -0.358073"
           id="path5388" />
        <path
           d="m 61.29362,471.98102 c 0,-0.33854 0.06727,-0.6467 0.201823,-0.92448 0.134548,-0.27777 0.310329,-0.4861 0.527344,-0.625 0.217012,-0.13888 0.461153,-0.20833 0.732421,-0.20833 0.455727,0 0.8138,0.17904 1.074219,0.53711 0.260414,0.35591 0.390622,0.77257 0.390625,1.25 -3e-6,0.3559 -0.06836,0.67708 -0.205078,0.96354 -0.134551,0.28646 -0.312503,0.50239 -0.533854,0.64779 -0.219186,0.14323 -0.460071,0.21484 -0.722656,0.21484 -0.421009,0 -0.770401,-0.16059 -1.048177,-0.48177 -0.277779,-0.32118 -0.416667,-0.77908 -0.416667,-1.3737 m 0.768229,0.0488 c -1e-6,0.3494 0.06836,0.61415 0.205078,0.79427 0.136718,0.17795 0.301648,0.26693 0.494792,0.26693 0.1888,0 0.350475,-0.0901 0.485026,-0.27018 0.134546,-0.18012 0.20182,-0.44596 0.201823,-0.79753 -3e-6,-0.34288 -0.06836,-0.60438 -0.205078,-0.7845 -0.136721,-0.18012 -0.300566,-0.27018 -0.491537,-0.27019 -0.188803,1e-5 -0.351564,0.0901 -0.488281,0.27019 -0.13455,0.18012 -0.201824,0.44379 -0.201823,0.79101"
           id="path5390" />
        <path
           d="m 65.346354,473.75837 -0.898437,-3.45703 h 0.729166 l 0.530599,2.26562 0.488282,-2.26562 h 0.722656 l 0.472005,2.26562 0.54362,-2.26562 h 0.738932 l -0.911458,3.45703 h -0.719401 l -0.488282,-2.22331 -0.48177,2.22331 h -0.725912"
           id="path5392" />
        <path
           d="m 71.651692,473.75837 h -0.751953 v -1.76433 c -2e-6,-0.35373 -0.01411,-0.58919 -0.04232,-0.70638 -0.02821,-0.11718 -0.08138,-0.20724 -0.159505,-0.27018 -0.07596,-0.0629 -0.162762,-0.0944 -0.260417,-0.0944 -0.125869,0 -0.239801,0.0412 -0.341796,0.1237 -0.101998,0.0803 -0.173613,0.19206 -0.214844,0.33529 -0.04123,0.14323 -0.06185,0.41341 -0.06185,0.81054 v 1.56576 h -0.751953 v -3.45703 h 0.696614 v 0.50781 c 0.123697,-0.19531 0.262586,-0.34179 0.416667,-0.43945 0.156248,-0.0977 0.328774,-0.14649 0.517578,-0.14649 0.219182,0 0.403644,0.0575 0.553386,0.17253 0.151907,0.11285 0.256073,0.25933 0.3125,0.43945 0.05859,0.17795 0.08789,0.4362 0.08789,0.77474 v 2.14844"
           id="path5394" />
      </g>
      <g
         transform="matrix(1.5,0,0,1.5,332.1961,300.12657)"
         style="font-style:normal;font-variant:normal;font-weight:bold;font-stretch:condensed;font-size:6.66667px;line-height:125%;font-family:'Arial Narrow';-inkscape-font-specification:'Arial Narrow Bold Condensed';letter-spacing:0px;word-spacing:0px;fill:#000000;fill-opacity:1;stroke:none"
         id="flowRoot9222-1">
        <path
           d="m 51.837891,468.45058 v -4.77214 h 2.903645 v 0.80729 h -2.115885 v 1.05795 h 1.966146 v 0.80403 h -1.966146 v 1.29883 h 2.1875 v 0.80404 h -2.97526"
           id="path5373" />
        <path
           d="m 58.055338,468.45058 h -0.751953 v -1.76433 c -2e-6,-0.35373 -0.01411,-0.58919 -0.04232,-0.70638 -0.02821,-0.11718 -0.08138,-0.20724 -0.159506,-0.27018 -0.07596,-0.0629 -0.162762,-0.0944 -0.260416,-0.0944 -0.12587,0 -0.239802,0.0412 -0.341797,0.1237 -0.101998,0.0803 -0.173613,0.19206 -0.214844,0.33528 -0.04123,0.14324 -0.06185,0.41342 -0.06185,0.81055 v 1.56576 h -0.751953 v -3.45704 h 0.696615 v 0.50782 c 0.123696,-0.19531 0.262585,-0.3418 0.416666,-0.43946 0.156249,-0.0976 0.328774,-0.14648 0.517578,-0.14648 0.219182,0 0.403644,0.0575 0.553386,0.17253 0.151907,0.11285 0.256073,0.25933 0.3125,0.43945 0.05859,0.17795 0.08789,0.4362 0.08789,0.77474 v 2.14844"
           id="path5375" />
        <path
           d="m 61.424479,468.45058 h -0.69987 v -0.50782 c -0.115019,0.19532 -0.250653,0.3418 -0.406901,0.43946 -0.156251,0.0976 -0.316842,0.14648 -0.481771,0.14648 -0.316841,0 -0.593533,-0.15733 -0.830078,-0.472 -0.234375,-0.31684 -0.351562,-0.76823 -0.351562,-1.35417 0,-0.59028 0.115017,-1.03515 0.345052,-1.33464 0.230034,-0.30164 0.513237,-0.45247 0.849609,-0.45247 0.158419,0 0.305988,0.0402 0.442709,0.12044 0.138887,0.0803 0.26584,0.20074 0.380859,0.36133 v -1.71875 h 0.751953 v 4.77214 m -2.001953,-1.80339 c -10e-7,0.3125 0.02604,0.54579 0.07813,0.69987 0.05425,0.15191 0.130207,0.26693 0.227865,0.34505 0.09983,0.076 0.211587,0.11394 0.335286,0.11393 0.164929,1e-5 0.308158,-0.089 0.429688,-0.26692 0.121525,-0.17795 0.182289,-0.44596 0.182291,-0.80404 -2e-6,-0.39713 -0.05968,-0.6825 -0.179036,-0.85612 -0.11719,-0.17578 -0.266929,-0.26367 -0.449219,-0.26367 -0.173613,0 -0.321182,0.0857 -0.442708,0.25716 -0.121529,0.17144 -0.182293,0.42969 -0.182292,0.77474"
           id="path5377" />
      </g>
      <g
         transform="matrix(1.5,0,0,1.5,285.533,300.12657)"
         style="font-style:normal;font-variant:normal;font-weight:bold;font-stretch:condensed;font-size:6.66667px;line-height:125%;font-family:'Arial Narrow';-inkscape-font-specification:'Arial Narrow Bold Condensed';letter-spacing:0px;word-spacing:0px;fill:#000000;fill-opacity:1;stroke:none"
         id="flowRoot9230-7">
        <path
           d="m 51.83138,463.67844 h 1.442057 c 0.364582,10e-6 0.639104,0.0412 0.823568,0.1237 0.186629,0.0803 0.35807,0.21702 0.514323,0.41015 0.156247,0.19315 0.278859,0.4438 0.367839,0.75196 0.08897,0.30816 0.133459,0.69119 0.133463,1.14909 -4e-6,0.41232 -0.04666,0.77148 -0.139974,1.07747 -0.09332,0.30382 -0.211592,0.54471 -0.354818,0.72266 -0.143232,0.17795 -0.316843,0.3125 -0.520833,0.40364 -0.201825,0.089 -0.462242,0.13347 -0.78125,0.13347 H 51.83138 v -4.77214 m 0.787761,0.80729 v 3.16081 h 0.592447 c 0.253905,0 0.437281,-0.0239 0.550131,-0.0716 0.115015,-0.0478 0.20833,-0.11936 0.279948,-0.21485 0.07378,-0.0976 0.134545,-0.25065 0.182291,-0.45898 0.04774,-0.20833 0.07161,-0.48286 0.07161,-0.82357 -3e-6,-0.35373 -0.02496,-0.63259 -0.07487,-0.83659 -0.04775,-0.20399 -0.123701,-0.36458 -0.227865,-0.48177 -0.101998,-0.11718 -0.226781,-0.19422 -0.374348,-0.23112 -0.11068,-0.0282 -0.324438,-0.0423 -0.641276,-0.0423 h -0.358073"
           id="path5360" />
        <path
           d="m 57.420573,467.35032 0.745443,0.15299 c -0.09983,0.34722 -0.254994,0.60547 -0.465495,0.77474 -0.210506,0.1671 -0.466582,0.25065 -0.768229,0.25065 -0.418838,0 -0.742189,-0.13997 -0.970052,-0.41992 -0.269098,-0.32552 -0.403646,-0.78125 -0.403646,-1.36719 0,-0.57725 0.135633,-1.03949 0.406901,-1.38672 0.230034,-0.29296 0.527342,-0.43945 0.891927,-0.43945 0.405814,0 0.723739,0.14974 0.953776,0.44922 0.264754,0.34288 0.397132,0.84853 0.397135,1.51693 l -0.0033,0.10416 h -1.878255 c 0.0043,0.27344 0.0651,0.48503 0.182292,0.63477 0.119356,0.14974 0.262585,0.22461 0.429687,0.22461 0.240884,0 0.401474,-0.16493 0.481771,-0.49479 m 0.04232,-0.92448 c -0.0065,-0.2691 -0.06402,-0.47092 -0.172526,-0.60547 -0.108509,-0.13672 -0.237632,-0.20508 -0.38737,-0.20508 -0.158422,0 -0.291885,0.0705 -0.400391,0.21159 -0.110678,0.14323 -0.164931,0.34288 -0.16276,0.59896 h 1.123047"
           id="path5362" />
        <path
           d="m 58.823568,468.45058 v -4.77214 h 0.751953 v 4.77214 h -0.751953"
           id="path5364" />
        <path
           d="m 61.990885,467.35032 0.745443,0.15299 c -0.09983,0.34722 -0.254994,0.60547 -0.465495,0.77474 -0.210505,0.1671 -0.466581,0.25065 -0.768229,0.25065 -0.418838,0 -0.742188,-0.13997 -0.970052,-0.41992 -0.269097,-0.32552 -0.403646,-0.78125 -0.403646,-1.36719 0,-0.57725 0.135634,-1.03949 0.406901,-1.38672 0.230034,-0.29296 0.527343,-0.43945 0.891927,-0.43945 0.405814,0 0.723739,0.14974 0.953776,0.44922 0.264755,0.34288 0.397133,0.84853 0.397136,1.51693 l -0.0033,0.10416 H 60.89709 c 0.0043,0.27344 0.0651,0.48503 0.182292,0.63477 0.119356,0.14974 0.262585,0.22461 0.429688,0.22461 0.240883,0 0.401473,-0.16493 0.48177,-0.49479 m 0.04232,-0.92448 c -0.0065,-0.2691 -0.06402,-0.47092 -0.172526,-0.60547 -0.108509,-0.13672 -0.237632,-0.20508 -0.38737,-0.20508 -0.158421,0 -0.291885,0.0705 -0.40039,0.21159 -0.110678,0.14323 -0.164932,0.34288 -0.162761,0.59896 h 1.123047"
           id="path5366" />
        <path
           d="m 64.689453,464.99354 v 0.72917 h -0.511068 v 1.39323 c -1e-6,0.30165 0.0076,0.47635 0.02279,0.52409 0.03038,0.0868 0.09223,0.13021 0.185547,0.13021 0.06944,0 0.169269,-0.0293 0.299479,-0.0879 l 0.0651,0.70963 c -0.173613,0.0912 -0.37001,0.13672 -0.589193,0.13672 -0.190973,0 -0.343967,-0.0456 -0.458984,-0.13672 -0.115018,-0.0911 -0.192058,-0.22244 -0.23112,-0.39388 -0.03038,-0.12587 -0.04557,-0.38194 -0.04557,-0.76823 v -1.50716 h -0.345052 v -0.72917 h 0.345052 v -0.68684 l 0.751953,-0.53386 v 1.2207 h 0.511068"
           id="path5368" />
        <path
           d="m 66.860677,467.35032 0.745443,0.15299 c -0.09983,0.34722 -0.254994,0.60547 -0.465495,0.77474 -0.210505,0.1671 -0.466581,0.25065 -0.768229,0.25065 -0.418838,0 -0.742188,-0.13997 -0.970052,-0.41992 -0.269097,-0.32552 -0.403646,-0.78125 -0.403646,-1.36719 0,-0.57725 0.135634,-1.03949 0.406901,-1.38672 0.230034,-0.29296 0.527343,-0.43945 0.891927,-0.43945 0.405814,0 0.723739,0.14974 0.953776,0.44922 0.264755,0.34288 0.397133,0.84853 0.397136,1.51693 l -0.0033,0.10416 h -1.878256 c 0.0043,0.27344 0.0651,0.48503 0.182292,0.63477 0.119356,0.14974 0.262585,0.22461 0.429688,0.22461 0.240883,0 0.401473,-0.16493 0.48177,-0.49479 m 0.04232,-0.92448 c -0.0065,-0.2691 -0.06402,-0.47092 -0.172526,-0.60547 -0.108509,-0.13672 -0.237632,-0.20508 -0.38737,-0.20508 -0.158421,0 -0.291885,0.0705 -0.40039,0.21159 -0.110678,0.14323 -0.164932,0.34288 -0.162761,0.59896 h 1.123047"
           id="path5370" />
      </g>
    </g>
    <text
       xml:space="preserve"
       style="line-height:0%;fill:#000000;fill-rule:evenodd"
       x="50.486511"
       y="1036.0787"
       id="text11537"><tspan
         sodipodi:role="line"
         id="tspan11535"
         x="50.486511"
         y="1036.0787"
         style="font-weight:bold;font-size:10.6667px;line-height:1.25"></tspan></text>
    <text
       xml:space="preserve"
       style="line-height:0%;fill:#000000;fill-rule:evenodd"
       x="211.29637"
       y="1036.0787"
       id="text11591"><tspan
         sodipodi:role="line"
         id="tspan11589"
         x="211.29637"
         y="1036.0787"
         style="font-weight:bold;font-size:10.6667px;line-height:1.25">()</tspan></text>
    <text
       xml:space="preserve"
       style="line-height:0%;fill:#000000;fill-rule:evenodd"
       x="381.29639"
       y="1036.0787"
       id="text11595"><tspan
         sodipodi:role="line"
         id="tspan11593"
         x="381.29639"
         y="1036.0787"
         style="font-weight:bold;font-size:10.6667px;line-height:1.25">()</tspan></text>
  </g>
</svg>
