<svg width="900" height="166" viewBox="0 0 900 166" fill="none" xmlns="http://www.w3.org/2000/svg">
<g clip-path="url(#clip0_0_1)">
<g filter="url(#filter0_d_0_1)">
<rect x="27" y="34" width="585" height="183" rx="25" fill="white"/>
</g>
<line x1="46" y1="84.5" x2="590" y2="84.5" stroke="#DDDDDD"/>
<path d="M519.303 60.4037L518.596 59.6967L514 64.2929L509.404 59.6966L508.697 60.4037L513.293 65L508.697 69.5962L509.404 70.3034L514 65.7071L518.596 70.3034L519.303 69.5962L514.707 65L519.303 60.4037Z" fill="#515151"/>
<path d="M60.908 71.4624L56.4727 67.027C57.3243 66.0707 57.842 64.8107 57.842 63.4297C57.842 60.4404 55.4191 58.0175 52.4305 58.0175C49.4416 58.0175 47.0183 60.4404 47.0183 63.4297C47.0183 66.418 49.4416 68.8412 52.4305 68.8412C53.8079 68.8412 55.0649 68.3262 56.0202 67.4786L60.456 71.9144C60.5777 72.0365 60.7776 72.034 60.9024 71.9088C61.0276 71.7839 61.0301 71.5841 60.908 71.4624ZM47.6577 63.4297C47.6577 60.7979 49.7987 58.6569 52.4305 58.6569C55.0619 58.6569 57.2026 60.7979 57.2026 63.4297C57.2026 66.0611 55.0619 68.2018 52.4305 68.2018C49.7987 68.2018 47.6577 66.0611 47.6577 63.4297Z" fill="#3D3D3D"/>
<path d="M547.784 67.0359C546.419 67.0359 545.309 65.925 545.309 64.5609V60.7953C545.309 59.4297 546.42 58.3203 547.784 58.3203C549.15 58.3203 550.259 59.4312 550.259 60.7953V64.5609C550.261 65.9266 549.15 67.0359 547.784 67.0359ZM547.784 59.0703C546.833 59.0703 546.059 59.8437 546.059 60.7953V64.5609C546.059 65.5125 546.833 66.2859 547.784 66.2859C548.736 66.2859 549.509 65.5125 549.509 64.5609V60.7953C549.511 59.8437 548.736 59.0703 547.784 59.0703Z" fill="#3D3D3D"/>
<path d="M547.781 64.7734C547.1 64.7734 546.545 64.2188 546.545 63.5375H546.92C546.92 64.0125 547.306 64.3984 547.781 64.3984C548.256 64.3984 548.642 64.0125 548.642 63.5375H549.017C549.019 64.2188 548.464 64.7734 547.781 64.7734Z" fill="#F74F4F"/>
<path d="M547.784 69.3047C545.223 69.3047 542.984 67.3969 542.575 64.8672L543.316 64.7484C543.666 66.9187 545.587 68.5547 547.784 68.5547C549.991 68.5547 551.912 66.9109 552.256 64.7297L552.997 64.8469C552.598 67.3891 550.356 69.3047 547.784 69.3047Z" fill="#3D3D3D"/>
<path d="M548.164 71.1562H547.414L547.406 68.8203H548.156L548.164 71.1562Z" fill="#3D3D3D"/>
<path d="M544.572 70.9297H550.998V71.6797H544.572V70.9297Z" fill="#3D3D3D"/>
<path d="M578 61.5C576.05 61.5 574.5 63.05 574.5 65C574.5 66.95 576.05 68.5 578 68.5C579.95 68.5 581.5 66.95 581.5 65C581.5 63.05 579.95 61.5 578 61.5ZM578 67.75C576.5 67.75 575.25 66.5 575.25 65C575.25 63.5 576.5 62.25 578 62.25C579.5 62.25 580.75 63.5 580.75 65C580.75 66.5 579.5 67.75 578 67.75Z" fill="black"/>
<path d="M582 62.8C582 63.0122 582.084 63.2157 582.234 63.3657C582.384 63.5157 582.588 63.6 582.8 63.6C583.012 63.6 583.216 63.5157 583.366 63.3657C583.516 63.2157 583.6 63.0122 583.6 62.8C583.6 62.5878 583.516 62.3843 583.366 62.2343C583.216 62.0843 583.012 62 582.8 62C582.588 62 582.384 62.0843 582.234 62.2343C582.084 62.3843 582 62.5878 582 62.8Z" fill="black"/>
<path d="M583.5 60.5H582L581.65 59.45C581.55 59.2 581.25 59 581 59H575C574.7 59 574.45 59.2 574.35 59.45L574 60.5H572.5C571.65 60.5 571 61.15 571 62V69C571 69.85 571.7 70.5 572.5 70.5H583.5C584.35 70.5 585 69.85 585 69V62C585 61.15 584.35 60.5 583.5 60.5ZM584.25 69C584.25 69.4 583.9 69.75 583.5 69.75H572.5C572.1 69.75 571.75 69.4 571.75 69V62C571.75 61.6 572.1 61.25 572.5 61.25H574H574.55L574.7 60.75L575.05 59.75H580.95L581.3 60.75L581.45 61.25H582H583.5C583.9 61.25 584.25 61.6 584.25 62V69Z" fill="black"/>
<path d="M74.794 70V69.169L78.8196 63.9986V63.9247H74.9233V62.9091H80.223V63.777L76.3082 68.9105V68.9844H80.3523V70H74.794ZM83.1199 65.7344V70H82.0304V60.5455H83.1199V64.017H83.2122C83.3784 63.6508 83.6277 63.36 83.96 63.1445C84.2955 62.926 84.7418 62.8168 85.2988 62.8168C85.782 62.8168 86.2052 62.9137 86.5684 63.1076C86.9315 63.2984 87.2131 63.5923 87.4132 63.9893C87.6163 64.3833 87.7179 64.8849 87.7179 65.4943V70H86.6284V65.5682C86.6284 65.005 86.4822 64.5695 86.1898 64.2617C85.9005 63.9509 85.4989 63.7955 84.9849 63.7955C84.6279 63.7955 84.3078 63.8709 84.0247 64.0217C83.7446 64.1725 83.523 64.3925 83.3599 64.6818C83.1999 64.9711 83.1199 65.322 83.1199 65.7344ZM92.5917 70.1477C91.9516 70.1477 91.3899 69.9954 90.9067 69.6907C90.4266 69.386 90.0511 68.9598 89.7803 68.4119C89.5125 67.8641 89.3786 67.224 89.3786 66.4915C89.3786 65.7528 89.5125 65.1081 89.7803 64.5572C90.0511 64.0063 90.4266 63.5785 90.9067 63.2738C91.3899 62.9691 91.9516 62.8168 92.5917 62.8168C93.2319 62.8168 93.792 62.9691 94.2721 63.2738C94.7553 63.5785 95.1308 64.0063 95.3985 64.5572C95.6694 65.1081 95.8048 65.7528 95.8048 66.4915C95.8048 67.224 95.6694 67.8641 95.3985 68.4119C95.1308 68.9598 94.7553 69.386 94.2721 69.6907C93.792 69.9954 93.2319 70.1477 92.5917 70.1477ZM92.5917 69.169C93.078 69.169 93.4781 69.0444 93.792 68.7951C94.1059 68.5458 94.3383 68.218 94.4891 67.8118C94.6399 67.4055 94.7153 66.9654 94.7153 66.4915C94.7153 66.0175 94.6399 65.5759 94.4891 65.1665C94.3383 64.7572 94.1059 64.4264 93.792 64.174C93.4781 63.9216 93.078 63.7955 92.5917 63.7955C92.1054 63.7955 91.7053 63.9216 91.3914 64.174C91.0775 64.4264 90.8451 64.7572 90.6943 65.1665C90.5435 65.5759 90.4681 66.0175 90.4681 66.4915C90.4681 66.9654 90.5435 67.4055 90.6943 67.8118C90.8451 68.218 91.0775 68.5458 91.3914 68.7951C91.7053 69.0444 92.1054 69.169 92.5917 69.169ZM98.5574 65.7344V70H97.4679V62.9091H98.5204V64.017H98.6127C98.7789 63.657 99.0313 63.3677 99.3699 63.1491C99.7084 62.9276 100.145 62.8168 100.681 62.8168C101.161 62.8168 101.581 62.9152 101.941 63.1122C102.301 63.3061 102.581 63.6016 102.781 63.9986C102.981 64.3925 103.081 64.8911 103.081 65.4943V70H101.992V65.5682C101.992 65.0111 101.847 64.5772 101.558 64.2663C101.269 63.9524 100.872 63.7955 100.367 63.7955C100.019 63.7955 99.7084 63.8709 99.4345 64.0217C99.1636 64.1725 98.9498 64.3925 98.7928 64.6818C98.6358 64.9711 98.5574 65.322 98.5574 65.7344ZM107.935 72.8068C107.408 72.8068 106.956 72.7391 106.577 72.6037C106.199 72.4714 105.883 72.2959 105.631 72.0774C105.382 71.862 105.183 71.6312 105.035 71.3849L105.903 70.7756C106.002 70.9048 106.126 71.0526 106.277 71.2188C106.428 71.388 106.634 71.5342 106.896 71.6573C107.161 71.7835 107.507 71.8466 107.935 71.8466C108.507 71.8466 108.979 71.7081 109.352 71.4311C109.724 71.1541 109.91 70.7202 109.91 70.1293V68.6889H109.818C109.738 68.8182 109.624 68.9782 109.476 69.169C109.332 69.3568 109.123 69.5245 108.849 69.6722C108.578 69.8169 108.212 69.8892 107.75 69.8892C107.177 69.8892 106.664 69.7538 106.208 69.483C105.756 69.2121 105.397 68.8182 105.132 68.3011C104.871 67.7841 104.74 67.1562 104.74 66.4176C104.74 65.6913 104.868 65.0588 105.123 64.5202C105.379 63.9786 105.734 63.56 106.19 63.2646C106.645 62.966 107.171 62.8168 107.768 62.8168C108.23 62.8168 108.596 62.8937 108.867 63.0476C109.141 63.1984 109.35 63.3707 109.495 63.5646C109.643 63.7554 109.757 63.9124 109.837 64.0355H109.947V62.9091H111V70.2031C111 70.8125 110.861 71.308 110.584 71.6896C110.311 72.0743 109.941 72.3559 109.476 72.5344C109.015 72.716 108.501 72.8068 107.935 72.8068ZM107.898 68.9105C108.335 68.9105 108.704 68.8105 109.006 68.6104C109.307 68.4104 109.536 68.1226 109.693 67.7472C109.85 67.3717 109.929 66.9223 109.929 66.3991C109.929 65.8883 109.852 65.4374 109.698 65.0465C109.544 64.6557 109.316 64.3494 109.015 64.1278C108.713 63.9062 108.341 63.7955 107.898 63.7955C107.436 63.7955 107.051 63.9124 106.744 64.1463C106.439 64.3802 106.21 64.6941 106.056 65.0881C105.905 65.482 105.829 65.919 105.829 66.3991C105.829 66.8916 105.906 67.3271 106.06 67.7056C106.217 68.0811 106.448 68.3765 106.753 68.592C107.061 68.8043 107.442 68.9105 107.898 68.9105ZM113.954 60.5455V61.3764C113.954 61.6288 113.908 61.8981 113.816 62.1843C113.727 62.4674 113.594 62.7429 113.419 63.0107C113.247 63.2753 113.037 63.5062 112.791 63.7031L112.2 63.223C112.394 62.946 112.562 62.6583 112.703 62.3597C112.848 62.0581 112.92 61.7365 112.92 61.3949V60.5455H113.954ZM117 70L114.84 62.9091H115.985L117.517 68.3381H117.591L119.105 62.9091H120.269L121.764 68.3196H121.838L123.371 62.9091H124.516L122.355 70H121.284L119.733 64.5526H119.622L118.071 70H117ZM127.475 60.5455V61.3764C127.475 61.6288 127.429 61.8981 127.336 62.1843C127.247 62.4674 127.115 62.7429 126.939 63.0107C126.767 63.2753 126.558 63.5062 126.312 63.7031L125.721 63.223C125.915 62.946 126.082 62.6583 126.224 62.3597C126.369 62.0581 126.441 61.7365 126.441 61.3949V60.5455H127.475ZM132.934 64.4972L131.955 64.7741C131.894 64.611 131.803 64.4525 131.683 64.2987C131.566 64.1417 131.406 64.0124 131.203 63.9109C131 63.8093 130.74 63.7585 130.423 63.7585C129.989 63.7585 129.627 63.8585 129.338 64.0586C129.051 64.2556 128.908 64.5064 128.908 64.8111C128.908 65.0819 129.007 65.2958 129.204 65.4528C129.401 65.6097 129.709 65.7405 130.127 65.8452L131.18 66.1037C131.814 66.2576 132.286 66.493 132.597 66.81C132.908 67.1239 133.063 67.5286 133.063 68.0241C133.063 68.4304 132.946 68.7936 132.712 69.1136C132.482 69.4337 132.158 69.6861 131.743 69.8707C131.327 70.0554 130.844 70.1477 130.293 70.1477C129.57 70.1477 128.971 69.9908 128.498 69.6768C128.024 69.3629 127.723 68.9044 127.597 68.3011L128.631 68.0426C128.73 68.4242 128.916 68.7105 129.19 68.9013C129.467 69.0921 129.829 69.1875 130.275 69.1875C130.783 69.1875 131.186 69.0798 131.484 68.8643C131.786 68.6458 131.937 68.3842 131.937 68.0795C131.937 67.8333 131.851 67.6271 131.678 67.4609C131.506 67.2917 131.241 67.1655 130.884 67.0824L129.702 66.8054C129.053 66.6515 128.576 66.413 128.271 66.0898C127.97 65.7636 127.819 65.3558 127.819 64.8665C127.819 64.4664 127.931 64.1125 128.156 63.8047C128.384 63.4969 128.693 63.2553 129.084 63.0799C129.478 62.9045 129.924 62.8168 130.423 62.8168C131.124 62.8168 131.675 62.9706 132.075 63.2784C132.478 63.5862 132.765 63.9924 132.934 64.4972ZM135.793 65.7344V70H134.703V60.5455H135.793V64.017H135.885C136.051 63.6508 136.301 63.36 136.633 63.1445C136.968 62.926 137.415 62.8168 137.972 62.8168C138.455 62.8168 138.878 62.9137 139.241 63.1076C139.604 63.2984 139.886 63.5923 140.086 63.9893C140.289 64.3833 140.391 64.8849 140.391 65.4943V70H139.301V65.5682C139.301 65.005 139.155 64.5695 138.863 64.2617C138.573 63.9509 138.172 63.7955 137.658 63.7955C137.301 63.7955 136.981 63.8709 136.698 64.0217C136.417 64.1725 136.196 64.3925 136.033 64.6818C135.873 64.9711 135.793 65.322 135.793 65.7344ZM146.853 67.1009V62.9091H147.942V70H146.853V68.7997H146.779C146.613 69.1598 146.354 69.466 146.003 69.7184C145.652 69.9677 145.209 70.0923 144.674 70.0923C144.23 70.0923 143.837 69.9954 143.492 69.8015C143.147 69.6045 142.876 69.3091 142.679 68.9151C142.482 68.5181 142.384 68.018 142.384 67.4148V62.9091H143.473V67.3409C143.473 67.858 143.618 68.2704 143.907 68.5781C144.2 68.8859 144.572 69.0398 145.025 69.0398C145.295 69.0398 145.571 68.9705 145.851 68.832C146.134 68.6935 146.371 68.4812 146.562 68.195C146.756 67.9087 146.853 67.544 146.853 67.1009ZM151.088 60.5455V61.3764C151.088 61.6288 151.042 61.8981 150.95 62.1843C150.86 62.4674 150.728 62.7429 150.553 63.0107C150.38 63.2753 150.171 63.5062 149.925 63.7031L149.334 63.223C149.528 62.946 149.696 62.6583 149.837 62.3597C149.982 62.0581 150.054 61.7365 150.054 61.3949V60.5455H151.088ZM152.248 70V62.9091H153.301V63.9801H153.375C153.504 63.6293 153.738 63.3446 154.076 63.1261C154.415 62.9076 154.796 62.7983 155.221 62.7983C155.301 62.7983 155.401 62.7998 155.521 62.8029C155.641 62.806 155.732 62.8106 155.794 62.8168V63.9247C155.757 63.9155 155.672 63.9016 155.54 63.8832C155.41 63.8616 155.273 63.8509 155.129 63.8509C154.784 63.8509 154.476 63.9232 154.206 64.0678C153.938 64.2094 153.725 64.4064 153.568 64.6587C153.415 64.908 153.338 65.1927 153.338 65.5128V70H152.248ZM161.554 67.1009V62.9091H162.643V70H161.554V68.7997H161.48C161.314 69.1598 161.055 69.466 160.704 69.7184C160.354 69.9677 159.91 70.0923 159.375 70.0923C158.932 70.0923 158.538 69.9954 158.193 69.8015C157.848 69.6045 157.577 69.3091 157.381 68.9151C157.184 68.5181 157.085 68.018 157.085 67.4148V62.9091H158.175V67.3409C158.175 67.858 158.319 68.2704 158.608 68.5781C158.901 68.8859 159.273 69.0398 159.726 69.0398C159.997 69.0398 160.272 68.9705 160.552 68.832C160.835 68.6935 161.072 68.4812 161.263 68.195C161.457 67.9087 161.554 67.544 161.554 67.1009ZM165.789 60.5455V61.3764C165.789 61.6288 165.743 61.8981 165.651 62.1843C165.562 62.4674 165.429 62.7429 165.254 63.0107C165.082 63.2753 164.872 63.5062 164.626 63.7031L164.035 63.223C164.229 62.946 164.397 62.6583 164.538 62.3597C164.683 62.0581 164.755 61.7365 164.755 61.3949V60.5455H165.789ZM170.386 62.9091V63.8324H166.564V62.9091H170.386ZM167.709 70V61.9304C167.709 61.5241 167.804 61.1856 167.995 60.9148C168.186 60.6439 168.434 60.4408 168.738 60.3054C169.043 60.17 169.364 60.1023 169.703 60.1023C169.971 60.1023 170.189 60.1238 170.359 60.1669C170.528 60.21 170.654 60.25 170.737 60.2869L170.423 61.2287C170.368 61.2102 170.291 61.1871 170.192 61.1594C170.097 61.1317 169.971 61.1179 169.814 61.1179C169.454 61.1179 169.194 61.2087 169.034 61.3903C168.877 61.5719 168.798 61.8381 168.798 62.1889V70H167.709ZM173.797 70.1662C173.347 70.1662 172.94 70.0816 172.573 69.9123C172.207 69.7399 171.916 69.4922 171.701 69.169C171.485 68.8428 171.378 68.4489 171.378 67.9872C171.378 67.581 171.458 67.2517 171.618 66.9993C171.778 66.7438 171.992 66.5438 172.259 66.3991C172.527 66.2545 172.823 66.1468 173.146 66.076C173.472 66.0021 173.8 65.9437 174.129 65.9006C174.56 65.8452 174.909 65.8036 175.177 65.7759C175.448 65.7451 175.645 65.6944 175.768 65.6236C175.894 65.5528 175.957 65.4297 175.957 65.2543V65.2173C175.957 64.7618 175.833 64.4079 175.583 64.1555C175.337 63.9032 174.963 63.777 174.461 63.777C173.941 63.777 173.534 63.8909 173.238 64.1186C172.943 64.3464 172.735 64.5895 172.615 64.848L171.581 64.4787C171.765 64.0478 172.012 63.7124 172.319 63.4723C172.63 63.2292 172.969 63.0599 173.335 62.9645C173.704 62.866 174.068 62.8168 174.425 62.8168C174.652 62.8168 174.914 62.8445 175.209 62.8999C175.508 62.9522 175.796 63.0614 176.073 63.2276C176.353 63.3938 176.585 63.6446 176.77 63.9801C176.954 64.3156 177.047 64.7649 177.047 65.3281V70H175.957V69.0398H175.902C175.828 69.1937 175.705 69.3583 175.532 69.5337C175.36 69.7092 175.131 69.8584 174.845 69.9815C174.558 70.1046 174.209 70.1662 173.797 70.1662ZM173.963 69.1875C174.394 69.1875 174.757 69.1029 175.052 68.9336C175.351 68.7643 175.576 68.5458 175.726 68.2781C175.88 68.0103 175.957 67.7287 175.957 67.4332V66.4361C175.911 66.4915 175.809 66.5423 175.653 66.5884C175.499 66.6315 175.32 66.67 175.117 66.7038C174.917 66.7346 174.722 66.7623 174.531 66.7869C174.343 66.8085 174.191 66.8269 174.074 66.8423C173.791 66.8793 173.526 66.9393 173.28 67.0224C173.037 67.1024 172.84 67.224 172.689 67.3871C172.541 67.5471 172.467 67.7656 172.467 68.0426C172.467 68.4212 172.607 68.7074 172.887 68.9013C173.17 69.0921 173.529 69.1875 173.963 69.1875Z" fill="#2B2B2B"/>
<line x1="531.5" y1="53" x2="531.5" y2="77" stroke="#DDDDDD"/>
<rect x="74.5" y="73.5" width="798" height="47" fill="#F4F4F4" stroke="#E4E4E4"/>
<mask id="path-16-inside-1_0_1" fill="white">
<path d="M764 74H824V120H764V74Z"/>
</mask>
<path d="M764 74H824V120H764V74Z" fill="#F4F4F4"/>
<path d="M823 74V120H825V74H823ZM765 120V74H763V120H765Z" fill="#E6E6E6" mask="url(#path-16-inside-1_0_1)"/>
<path d="M75 74H204V120H75V74Z" fill="#A6D8FF"/>
<path d="M814.313 96.9906L808.641 103.806C808.45 104.034 808.111 104.066 807.883 103.875C807.655 103.684 807.623 103.345 807.814 103.117L812.911 96.9922L807.813 90.8828C807.622 90.6547 807.653 90.3156 807.881 90.125C808.109 89.9344 808.448 89.9656 808.639 90.1938L814.313 96.9906Z" fill="#6D6D6D"/>
<path d="M93.2425 90.9091V104H91.6573V92.571H91.5806L88.3846 94.6932V93.0824L91.6573 90.9091H93.2425ZM102.443 92.102H116.951V100.58H115.547V93.434H103.793V100.67H102.443V92.102ZM103.163 98.222H116.357V99.536H103.163V98.222ZM108.959 88.88H110.363V105.422H108.959V88.88ZM131.747 92.624L133.169 93.038C130.901 99.644 126.815 103.352 120.263 105.476C120.119 105.134 119.687 104.486 119.399 104.162C125.825 102.326 129.731 98.798 131.747 92.624ZM123.575 92.714C125.519 98.474 129.569 102.614 136.067 104.126C135.743 104.45 135.311 105.062 135.095 105.458C128.417 103.712 124.457 99.428 122.243 93.128L123.575 92.714ZM119.615 91.94H135.887V93.272H119.615V91.94ZM126.995 88.88H128.381V92.75H126.995V88.88ZM137.543 91.04H143.303V92.282H137.543V91.04ZM140.657 93.848H141.827V105.422H140.657V93.848ZM137.453 101.012C138.929 100.706 141.089 100.202 143.231 99.698L143.321 100.85C141.377 101.372 139.343 101.894 137.759 102.272L137.453 101.012ZM137.975 98.078C137.921 97.826 137.723 97.232 137.579 96.944C137.867 96.854 138.083 96.26 138.353 95.45C138.623 94.676 139.451 91.634 139.703 88.916L140.963 89.114C140.531 92.012 139.667 95.162 138.767 97.34V97.358C138.767 97.358 137.975 97.808 137.975 98.078ZM137.975 98.078V96.926L138.695 96.584H143.267V97.808H139.217C138.659 97.808 138.119 97.916 137.975 98.078ZM145.283 93.326H151.961V94.442H145.283V93.326ZM144.185 95.612H148.127V96.71H145.301V105.386H144.185V95.612ZM147.767 95.612H148.901V104.018C148.901 104.594 148.793 104.936 148.415 105.134C148.055 105.332 147.497 105.35 146.705 105.35C146.669 105.026 146.525 104.54 146.363 104.216C146.921 104.234 147.407 104.234 147.569 104.234C147.731 104.216 147.767 104.18 147.767 104.018V95.612ZM144.977 98.132H148.559V99.158H144.977V98.132ZM144.959 100.652H148.541V101.678H144.959V100.652ZM149.927 95.954H150.971V102.47H149.927V95.954ZM152.195 95.288H153.293V103.91C153.293 104.558 153.167 104.9 152.717 105.08C152.285 105.278 151.583 105.296 150.521 105.296C150.467 104.99 150.323 104.504 150.161 104.18C150.989 104.198 151.691 104.198 151.925 104.18C152.141 104.18 152.195 104.126 152.195 103.91V95.288ZM148.559 88.826L149.675 89.33C148.343 91.418 146.093 93.362 143.843 94.514C143.645 94.208 143.285 93.794 142.961 93.506C145.139 92.498 147.371 90.734 148.559 88.826ZM149.009 89.6C150.431 91.328 152.231 92.408 154.229 93.272C153.923 93.542 153.545 93.974 153.365 94.334C151.277 93.272 149.495 91.994 147.947 90.032L149.009 89.6ZM158.801 89.978H163.895V91.346H158.801V89.978ZM163.211 89.978H164.597C164.597 93.2 164.993 100.04 172.103 104.252C171.797 104.486 171.257 105.062 171.005 105.386C163.805 101.03 163.211 93.362 163.211 89.978ZM162.707 93.506L164.237 93.794C162.941 99.284 160.565 103.082 156.587 105.422C156.335 105.134 155.723 104.576 155.363 104.324C159.359 102.236 161.609 98.6 162.707 93.506ZM178.241 96.458H189.815V97.736H178.241V96.458ZM179.159 91.832H188.969V93.128H179.159V91.832ZM183.281 88.898H184.667V97.376H183.281V88.898ZM178.259 103.244C180.707 103.136 184.631 102.92 188.357 102.704V103.928C184.775 104.198 181.013 104.45 178.457 104.612L178.259 103.244ZM185.513 100.166L186.665 99.572C188.033 101.174 189.527 103.316 190.121 104.774L188.861 105.476C188.303 104.054 186.863 101.804 185.513 100.166ZM182.075 97.304L183.533 97.718C182.741 99.806 181.661 102.38 180.761 104.018L179.573 103.604C180.455 101.93 181.517 99.23 182.075 97.304ZM174.353 90.014L175.109 89.006C176.333 89.456 177.881 90.23 178.655 90.86L177.881 91.994C177.125 91.346 175.613 90.5 174.353 90.014ZM173.399 94.982L174.101 93.938C175.325 94.334 176.909 95.036 177.719 95.612L176.981 96.746C176.207 96.17 174.659 95.414 173.399 94.982ZM174.029 104.342C174.947 102.956 176.297 100.58 177.287 98.546L178.295 99.392C177.395 101.3 176.207 103.55 175.199 105.224L174.029 104.342Z" fill="black"/>
<path d="M75.248 127.407H85.726V133.53H84.712V128.369H76.223V133.595H75.248V127.407ZM75.768 131.827H85.297V132.776H75.768V131.827ZM79.954 125.08H80.968V137.027H79.954V125.08ZM96.412 127.784L97.439 128.083C95.801 132.854 92.85 135.532 88.118 137.066C88.014 136.819 87.702 136.351 87.494 136.117C92.135 134.791 94.956 132.243 96.412 127.784ZM90.51 127.849C91.914 132.009 94.839 134.999 99.532 136.091C99.298 136.325 98.986 136.767 98.83 137.053C94.007 135.792 91.147 132.698 89.548 128.148L90.51 127.849ZM87.65 127.29H99.402V128.252H87.65V127.29ZM92.98 125.08H93.981V127.875H92.98V125.08ZM100.598 126.64H104.758V127.537H100.598V126.64ZM102.847 128.668H103.692V137.027H102.847V128.668ZM100.533 133.842C101.599 133.621 103.159 133.257 104.706 132.893L104.771 133.725C103.367 134.102 101.898 134.479 100.754 134.752L100.533 133.842ZM100.91 131.723C100.871 131.541 100.728 131.112 100.624 130.904C100.832 130.839 100.988 130.41 101.183 129.825C101.378 129.266 101.976 127.069 102.158 125.106L103.068 125.249C102.756 127.342 102.132 129.617 101.482 131.19V131.203C101.482 131.203 100.91 131.528 100.91 131.723ZM100.91 131.723V130.891L101.43 130.644H104.732V131.528H101.807C101.404 131.528 101.014 131.606 100.91 131.723ZM106.188 128.291H111.011V129.097H106.188V128.291ZM105.395 129.942H108.242V130.735H106.201V137.001H105.395V129.942ZM107.982 129.942H108.801V136.013C108.801 136.429 108.723 136.676 108.45 136.819C108.19 136.962 107.787 136.975 107.215 136.975C107.189 136.741 107.085 136.39 106.968 136.156C107.371 136.169 107.722 136.169 107.839 136.169C107.956 136.156 107.982 136.13 107.982 136.013V129.942ZM105.967 131.762H108.554V132.503H105.967V131.762ZM105.954 133.582H108.541V134.323H105.954V133.582ZM109.542 130.189H110.296V134.895H109.542V130.189ZM111.18 129.708H111.973V135.935C111.973 136.403 111.882 136.65 111.557 136.78C111.245 136.923 110.738 136.936 109.971 136.936C109.932 136.715 109.828 136.364 109.711 136.13C110.309 136.143 110.816 136.143 110.985 136.13C111.141 136.13 111.18 136.091 111.18 135.935V129.708ZM108.554 125.041L109.36 125.405C108.398 126.913 106.773 128.317 105.148 129.149C105.005 128.928 104.745 128.629 104.511 128.421C106.084 127.693 107.696 126.419 108.554 125.041ZM108.879 125.6C109.906 126.848 111.206 127.628 112.649 128.252C112.428 128.447 112.155 128.759 112.025 129.019C110.517 128.252 109.23 127.329 108.112 125.912L108.879 125.6ZM115.951 125.873H119.63V126.861H115.951V125.873ZM119.136 125.873H120.137C120.137 128.2 120.423 133.14 125.558 136.182C125.337 136.351 124.947 136.767 124.765 137.001C119.565 133.855 119.136 128.317 119.136 125.873ZM118.772 128.421L119.877 128.629C118.941 132.594 117.225 135.337 114.352 137.027C114.17 136.819 113.728 136.416 113.468 136.234C116.354 134.726 117.979 132.1 118.772 128.421ZM129.991 130.553H138.35V131.476H129.991V130.553ZM130.654 127.212H137.739V128.148H130.654V127.212ZM133.631 125.093H134.632V131.216H133.631V125.093ZM130.004 135.454C131.772 135.376 134.606 135.22 137.297 135.064V135.948C134.71 136.143 131.993 136.325 130.147 136.442L130.004 135.454ZM135.243 133.231L136.075 132.802C137.063 133.959 138.142 135.506 138.571 136.559L137.661 137.066C137.258 136.039 136.218 134.414 135.243 133.231ZM132.76 131.164L133.813 131.463C133.241 132.971 132.461 134.83 131.811 136.013L130.953 135.714C131.59 134.505 132.357 132.555 132.76 131.164ZM127.183 125.899L127.729 125.171C128.613 125.496 129.731 126.055 130.29 126.51L129.731 127.329C129.185 126.861 128.093 126.25 127.183 125.899ZM126.494 129.487L127.001 128.733C127.885 129.019 129.029 129.526 129.614 129.942L129.081 130.761C128.522 130.345 127.404 129.799 126.494 129.487ZM126.949 136.247C127.612 135.246 128.587 133.53 129.302 132.061L130.03 132.672C129.38 134.05 128.522 135.675 127.794 136.884L126.949 136.247ZM139.715 126.042H151.285V127.03H139.715V126.042ZM144.72 126.822H145.747V137.027H144.72V126.822ZM145.292 129.903L145.929 129.149C147.489 129.903 149.543 131.086 150.583 131.866L149.894 132.75C148.893 131.944 146.865 130.709 145.292 129.903ZM161.568 125.808L162.257 125.353C162.855 125.821 163.57 126.51 163.882 127.004L163.154 127.511C162.842 127.03 162.153 126.315 161.568 125.808ZM152.689 128.031H164.35V128.824H152.689V128.031ZM153.365 126.133H159.085V126.913H153.365V126.133ZM155.848 125.08H156.784V128.434H155.848V125.08ZM159.904 125.106H160.879C160.814 131.307 161.698 135.987 163.206 135.987C163.531 135.987 163.661 135.415 163.739 133.894C163.934 134.102 164.272 134.31 164.506 134.401C164.35 136.338 164.025 136.936 163.128 136.936C160.684 136.936 159.943 131.554 159.904 125.106ZM162.894 129.5L163.765 129.747C162.907 132.711 161.412 135.428 159.267 137.066C159.111 136.871 158.812 136.585 158.578 136.403C160.645 134.934 162.127 132.295 162.894 129.5ZM152.897 130.124H159.566V130.93H152.897V130.124ZM156.316 131.333H157.239V136.988H156.316V131.333ZM153.573 133.4C153.521 133.205 153.391 132.75 153.261 132.516C153.469 132.464 153.664 132.217 153.872 131.853C154.093 131.502 154.821 130.137 155.211 128.85L156.173 129.11C155.627 130.514 154.873 131.931 154.171 132.893V132.919C154.171 132.919 153.573 133.205 153.573 133.4ZM153.573 133.4V132.672L154.106 132.386H159.306L159.293 133.218H154.613C154.067 133.218 153.69 133.296 153.573 133.4ZM152.832 134.817C154.47 134.7 157.083 134.453 159.605 134.219L159.592 135.038C157.187 135.285 154.652 135.545 152.936 135.714L152.832 134.817Z" fill="#2B2B2B"/>
<path d="M74.9147 155.407H85.3927V161.53H84.3787V156.369H75.8897V161.595H74.9147V155.407ZM75.4347 159.827H84.9637V160.776H75.4347V159.827ZM79.6207 153.08H80.6347V165.027H79.6207V153.08ZM96.0787 155.784L97.1057 156.083C95.4677 160.854 92.5167 163.532 87.7847 165.066C87.6807 164.819 87.3687 164.351 87.1607 164.117C91.8017 162.791 94.6227 160.243 96.0787 155.784ZM90.1767 155.849C91.5807 160.009 94.5057 162.999 99.1987 164.091C98.9647 164.325 98.6527 164.767 98.4967 165.053C93.6737 163.792 90.8137 160.698 89.2147 156.148L90.1767 155.849ZM87.3167 155.29H99.0687V156.252H87.3167V155.29ZM92.6467 153.08H93.6477V155.875H92.6467V153.08ZM100.265 154.64H104.425V155.537H100.265V154.64ZM102.514 156.668H103.359V165.027H102.514V156.668ZM100.2 161.842C101.266 161.621 102.826 161.257 104.373 160.893L104.438 161.725C103.034 162.102 101.565 162.479 100.421 162.752L100.2 161.842ZM100.577 159.723C100.538 159.541 100.395 159.112 100.291 158.904C100.499 158.839 100.655 158.41 100.85 157.825C101.045 157.266 101.643 155.069 101.825 153.106L102.735 153.249C102.423 155.342 101.799 157.617 101.149 159.19V159.203C101.149 159.203 100.577 159.528 100.577 159.723ZM100.577 159.723V158.891L101.097 158.644H104.399V159.528H101.474C101.071 159.528 100.681 159.606 100.577 159.723ZM105.855 156.291H110.678V157.097H105.855V156.291ZM105.062 157.942H107.909V158.735H105.868V165.001H105.062V157.942ZM107.649 157.942H108.468V164.013C108.468 164.429 108.39 164.676 108.117 164.819C107.857 164.962 107.454 164.975 106.882 164.975C106.856 164.741 106.752 164.39 106.635 164.156C107.038 164.169 107.389 164.169 107.506 164.169C107.623 164.156 107.649 164.13 107.649 164.013V157.942ZM105.634 159.762H108.221V160.503H105.634V159.762ZM105.621 161.582H108.208V162.323H105.621V161.582ZM109.209 158.189H109.963V162.895H109.209V158.189ZM110.847 157.708H111.64V163.935C111.64 164.403 111.549 164.65 111.224 164.78C110.912 164.923 110.405 164.936 109.638 164.936C109.599 164.715 109.495 164.364 109.378 164.13C109.976 164.143 110.483 164.143 110.652 164.13C110.808 164.13 110.847 164.091 110.847 163.935V157.708ZM108.221 153.041L109.027 153.405C108.065 154.913 106.44 156.317 104.815 157.149C104.672 156.928 104.412 156.629 104.178 156.421C105.751 155.693 107.363 154.419 108.221 153.041ZM108.546 153.6C109.573 154.848 110.873 155.628 112.316 156.252C112.095 156.447 111.822 156.759 111.692 157.019C110.184 156.252 108.897 155.329 107.779 153.912L108.546 153.6ZM115.618 153.873H119.297V154.861H115.618V153.873ZM118.803 153.873H119.804C119.804 156.2 120.09 161.14 125.225 164.182C125.004 164.351 124.614 164.767 124.432 165.001C119.232 161.855 118.803 156.317 118.803 153.873ZM118.439 156.421L119.544 156.629C118.608 160.594 116.892 163.337 114.019 165.027C113.837 164.819 113.395 164.416 113.135 164.234C116.021 162.726 117.646 160.1 118.439 156.421ZM129.658 158.553H138.017V159.476H129.658V158.553ZM130.321 155.212H137.406V156.148H130.321V155.212ZM133.298 153.093H134.299V159.216H133.298V153.093ZM129.671 163.454C131.439 163.376 134.273 163.22 136.964 163.064V163.948C134.377 164.143 131.66 164.325 129.814 164.442L129.671 163.454ZM134.91 161.231L135.742 160.802C136.73 161.959 137.809 163.506 138.238 164.559L137.328 165.066C136.925 164.039 135.885 162.414 134.91 161.231ZM132.427 159.164L133.48 159.463C132.908 160.971 132.128 162.83 131.478 164.013L130.62 163.714C131.257 162.505 132.024 160.555 132.427 159.164ZM126.85 153.899L127.396 153.171C128.28 153.496 129.398 154.055 129.957 154.51L129.398 155.329C128.852 154.861 127.76 154.25 126.85 153.899ZM126.161 157.487L126.668 156.733C127.552 157.019 128.696 157.526 129.281 157.942L128.748 158.761C128.189 158.345 127.071 157.799 126.161 157.487ZM126.616 164.247C127.279 163.246 128.254 161.53 128.969 160.061L129.697 160.672C129.047 162.05 128.189 163.675 127.461 164.884L126.616 164.247ZM144.699 158.176H150.614V159.021H144.699V158.176ZM144.699 160.789H150.614V161.647H144.699V160.789ZM144.608 163.467H151.147V164.364H144.608V163.467ZM147.351 155.979H148.261V163.792H147.351V155.979ZM148.248 153.119L149.275 153.353C148.872 154.354 148.352 155.524 147.949 156.252L147.13 156.018C147.533 155.251 148.001 153.99 148.248 153.119ZM145.258 153.067L146.194 153.301C145.57 155.394 144.543 157.409 143.334 158.709C143.191 158.527 142.866 158.098 142.671 157.903C143.815 156.759 144.725 154.952 145.258 153.067ZM145.232 155.55H150.926V156.421H145.232V165.027H144.296V156.083L144.829 155.55H145.232ZM139.018 159.996C140.071 159.736 141.657 159.268 143.191 158.826L143.308 159.697C141.891 160.139 140.396 160.607 139.239 160.958L139.018 159.996ZM139.239 155.706H143.204V156.616H139.239V155.706ZM141.007 153.093H141.943V163.857C141.943 164.416 141.826 164.689 141.488 164.845C141.15 165.014 140.617 165.04 139.772 165.04C139.733 164.793 139.603 164.364 139.473 164.091C140.058 164.117 140.604 164.117 140.76 164.104C140.929 164.104 141.007 164.052 141.007 163.857V153.093ZM152.434 156.798H163.9V157.669H152.434V156.798ZM156.984 158.579H162.327V159.385H156.984V158.579ZM156.074 161.257H164.017V162.102H156.074V161.257ZM156.555 155.459L157.504 155.706C156.425 158.306 154.722 160.49 152.707 161.894C152.564 161.699 152.226 161.283 152.018 161.101C153.994 159.853 155.619 157.799 156.555 155.459ZM159.61 160.282H160.546V164.013C160.546 164.52 160.442 164.767 160.065 164.897C159.675 165.04 159.064 165.04 158.089 165.04C158.05 164.806 157.907 164.455 157.777 164.195C158.505 164.221 159.168 164.221 159.35 164.221C159.545 164.208 159.61 164.169 159.61 164V160.282ZM162.002 158.579H162.223L162.405 158.527L163.003 158.995C162.249 159.749 161.144 160.529 160.182 161.01C160.065 160.841 159.818 160.594 159.675 160.464C160.52 160.048 161.495 159.32 162.002 158.761V158.579ZM155.398 153.093H156.36V156.044H155.398V153.093ZM159.883 153.093H160.832V156.044H159.883V153.093ZM152.46 154.042H163.9V154.913H152.46V154.042ZM154.267 159.554L154.93 158.865L155.19 158.943V165.04H154.267V159.554Z" fill="#2B2B2B"/>
<path d="M221.375 104V102.849L225.696 98.1193C226.203 97.5653 226.62 97.0838 226.949 96.6747C227.277 96.2614 227.52 95.8736 227.677 95.5114C227.839 95.1449 227.92 94.7614 227.92 94.3608C227.92 93.9006 227.809 93.5021 227.588 93.1655C227.37 92.8288 227.072 92.5689 226.693 92.3857C226.314 92.2024 225.887 92.1108 225.414 92.1108C224.912 92.1108 224.473 92.2152 224.098 92.424C223.727 92.6286 223.439 92.9162 223.235 93.2869C223.034 93.6577 222.934 94.0923 222.934 94.5909H221.426C221.426 93.8239 221.603 93.1506 221.956 92.571C222.31 91.9915 222.792 91.5398 223.401 91.2159C224.015 90.892 224.703 90.7301 225.466 90.7301C226.233 90.7301 226.912 90.892 227.505 91.2159C228.097 91.5398 228.561 91.9766 228.898 92.5263C229.235 93.076 229.403 93.6875 229.403 94.3608C229.403 94.8423 229.316 95.3132 229.141 95.7734C228.971 96.2294 228.672 96.7386 228.246 97.3011C227.824 97.8594 227.238 98.5412 226.488 99.3466L223.548 102.491V102.594H229.633V104H221.375ZM237.708 92.102H252.216V100.58H250.812V93.434H239.058V100.67H237.708V92.102ZM238.428 98.222H251.622V99.536H238.428V98.222ZM244.224 88.88H245.628V105.422H244.224V88.88ZM267.012 92.624L268.434 93.038C266.166 99.644 262.08 103.352 255.528 105.476C255.384 105.134 254.952 104.486 254.664 104.162C261.09 102.326 264.996 98.798 267.012 92.624ZM258.84 92.714C260.784 98.474 264.834 102.614 271.332 104.126C271.008 104.45 270.576 105.062 270.36 105.458C263.682 103.712 259.722 99.428 257.508 93.128L258.84 92.714ZM254.88 91.94H271.152V93.272H254.88V91.94ZM262.26 88.88H263.646V92.75H262.26V88.88ZM272.808 91.04H278.568V92.282H272.808V91.04ZM275.922 93.848H277.092V105.422H275.922V93.848ZM272.718 101.012C274.194 100.706 276.354 100.202 278.496 99.698L278.586 100.85C276.642 101.372 274.608 101.894 273.024 102.272L272.718 101.012ZM273.24 98.078C273.186 97.826 272.988 97.232 272.844 96.944C273.132 96.854 273.348 96.26 273.618 95.45C273.888 94.676 274.716 91.634 274.968 88.916L276.228 89.114C275.796 92.012 274.932 95.162 274.032 97.34V97.358C274.032 97.358 273.24 97.808 273.24 98.078ZM273.24 98.078V96.926L273.96 96.584H278.532V97.808H274.482C273.924 97.808 273.384 97.916 273.24 98.078ZM280.548 93.326H287.226V94.442H280.548V93.326ZM279.45 95.612H283.392V96.71H280.566V105.386H279.45V95.612ZM283.032 95.612H284.166V104.018C284.166 104.594 284.058 104.936 283.68 105.134C283.32 105.332 282.762 105.35 281.97 105.35C281.934 105.026 281.79 104.54 281.628 104.216C282.186 104.234 282.672 104.234 282.834 104.234C282.996 104.216 283.032 104.18 283.032 104.018V95.612ZM280.242 98.132H283.824V99.158H280.242V98.132ZM280.224 100.652H283.806V101.678H280.224V100.652ZM285.192 95.954H286.236V102.47H285.192V95.954ZM287.46 95.288H288.558V103.91C288.558 104.558 288.432 104.9 287.982 105.08C287.55 105.278 286.848 105.296 285.786 105.296C285.732 104.99 285.588 104.504 285.426 104.18C286.254 104.198 286.956 104.198 287.19 104.18C287.406 104.18 287.46 104.126 287.46 103.91V95.288ZM283.824 88.826L284.94 89.33C283.608 91.418 281.358 93.362 279.108 94.514C278.91 94.208 278.55 93.794 278.226 93.506C280.404 92.498 282.636 90.734 283.824 88.826ZM284.274 89.6C285.696 91.328 287.496 92.408 289.494 93.272C289.188 93.542 288.81 93.974 288.63 94.334C286.542 93.272 284.76 91.994 283.212 90.032L284.274 89.6ZM294.066 89.978H299.16V91.346H294.066V89.978ZM298.476 89.978H299.862C299.862 93.2 300.258 100.04 307.368 104.252C307.062 104.486 306.522 105.062 306.27 105.386C299.07 101.03 298.476 93.362 298.476 89.978ZM297.972 93.506L299.502 93.794C298.206 99.284 295.83 103.082 291.852 105.422C291.6 105.134 290.988 104.576 290.628 104.324C294.624 102.236 296.874 98.6 297.972 93.506Z" fill="black"/>
<path d="M344.517 104.179C343.673 104.179 342.921 104.034 342.26 103.744C341.604 103.455 341.082 103.052 340.694 102.536C340.311 102.016 340.102 101.413 340.068 100.727H341.679C341.713 101.149 341.858 101.513 342.113 101.82C342.369 102.123 342.703 102.357 343.117 102.523C343.53 102.69 343.988 102.773 344.491 102.773C345.054 102.773 345.552 102.675 345.987 102.479C346.422 102.283 346.762 102.01 347.01 101.661C347.257 101.311 347.38 100.906 347.38 100.446C347.38 99.9645 347.261 99.5405 347.022 99.174C346.784 98.8033 346.434 98.5135 345.974 98.3047C345.514 98.0959 344.951 97.9915 344.287 97.9915H343.238V96.5852H344.287C344.806 96.5852 345.262 96.4915 345.654 96.304C346.051 96.1165 346.36 95.8523 346.581 95.5114C346.807 95.1705 346.92 94.7699 346.92 94.3097C346.92 93.8665 346.822 93.4808 346.626 93.1527C346.43 92.8246 346.153 92.5689 345.795 92.3857C345.441 92.2024 345.024 92.1108 344.542 92.1108C344.091 92.1108 343.664 92.1939 343.264 92.3601C342.868 92.522 342.544 92.7585 342.292 93.0696C342.041 93.3764 341.904 93.7472 341.883 94.1818H340.349C340.375 93.4957 340.581 92.8949 340.969 92.3793C341.357 91.8594 341.864 91.4545 342.49 91.1648C343.121 90.875 343.814 90.7301 344.568 90.7301C345.377 90.7301 346.072 90.8942 346.652 91.2223C347.231 91.5462 347.676 91.9744 347.988 92.5071C348.299 93.0398 348.454 93.6151 348.454 94.233C348.454 94.9702 348.26 95.5987 347.873 96.1186C347.489 96.6385 346.967 96.9986 346.306 97.1989V97.3011C347.133 97.4375 347.779 97.7891 348.243 98.3558C348.708 98.9183 348.94 99.6151 348.94 100.446C348.94 101.158 348.746 101.797 348.358 102.364C347.975 102.926 347.451 103.369 346.786 103.693C346.121 104.017 345.365 104.179 344.517 104.179ZM356.99 92.102H371.498V100.58H370.094V93.434H358.34V100.67H356.99V92.102ZM357.71 98.222H370.904V99.536H357.71V98.222ZM363.506 88.88H364.91V105.422H363.506V88.88ZM383.864 89.096H385.214V93.2H383.864V89.096ZM379.166 92.426H390.164V93.722H379.166V92.426ZM380.66 95.126L381.866 94.928C382.55 97.322 383.18 100.4 383.324 102.182L381.992 102.47C381.866 100.67 381.308 97.538 380.66 95.126ZM387.23 94.766L388.67 95.018C388.004 97.898 386.96 101.588 386.114 103.82L384.908 103.532C385.754 101.264 386.744 97.448 387.23 94.766ZM378.716 103.316H390.614V104.612H378.716V103.316ZM378.23 88.934L379.508 89.348C378.284 92.372 376.358 95.396 374.378 97.376C374.234 97.07 373.856 96.35 373.604 96.026C375.422 94.334 377.186 91.652 378.23 88.934ZM376.358 93.578L377.636 92.3L377.654 92.318V105.404H376.358V93.578ZM391.964 98.492H400.802V99.626H391.964V98.492ZM392.072 92.21H400.748V93.308H392.072V92.21ZM395.312 96.944L396.572 97.214C395.762 98.978 394.628 101.174 393.8 102.596L392.612 102.182C393.422 100.814 394.556 98.6 395.312 96.944ZM398.012 99.158L399.272 99.32C398.66 102.83 396.77 104.558 392.612 105.44C392.522 105.08 392.252 104.594 392 104.324C395.762 103.694 397.454 102.218 398.012 99.158ZM399.146 89.24L400.298 89.744C399.776 90.572 399.182 91.472 398.678 92.084L397.778 91.634C398.228 90.986 398.822 89.942 399.146 89.24ZM395.798 88.88H397.04V97.16H395.798V88.88ZM392.738 89.744L393.764 89.312C394.268 90.032 394.754 90.986 394.934 91.634L393.872 92.12C393.71 91.472 393.242 90.482 392.738 89.744ZM395.816 92.696L396.734 93.236C395.852 94.748 394.16 96.35 392.612 97.196C392.45 96.89 392.126 96.44 391.874 96.17C393.368 95.522 395.024 94.082 395.816 92.696ZM396.896 93.326C397.544 93.668 399.74 95.054 400.262 95.432L399.524 96.422C398.876 95.81 397.004 94.406 396.248 93.902L396.896 93.326ZM402.116 92.21H408.524V93.47H402.116V92.21ZM402.566 88.88L403.934 89.078C403.34 92.606 402.278 95.828 400.694 97.934C400.478 97.682 399.92 97.232 399.596 97.016C401.126 95.108 402.062 92.066 402.566 88.88ZM406.112 92.93L407.48 93.074C406.616 99.284 404.708 103.154 400.172 105.494C400.028 105.17 399.632 104.576 399.362 104.288C403.646 102.272 405.374 98.636 406.112 92.93ZM402.836 93.326C403.628 98.276 405.356 102.524 408.704 104.288C408.38 104.558 407.948 105.08 407.75 105.44C404.222 103.37 402.512 98.978 401.612 93.524L402.836 93.326ZM393.692 101.93L394.412 101.012C396.572 101.84 398.804 103.028 400.1 104.018L399.164 104.99C397.922 103.982 395.78 102.776 393.692 101.93Z" fill="black"/>
<path d="M439.743 101.315V100.011L445.495 90.9091H446.441V92.929H445.802L441.456 99.8068V99.9091H449.203V101.315H439.743ZM445.905 104V100.919V100.312V90.9091H447.413V104H445.905ZM457.034 92.102H471.542V100.58H470.138V93.434H458.384V100.67H457.034V92.102ZM457.754 98.222H470.948V99.536H457.754V98.222ZM463.55 88.88H464.954V105.422H463.55V88.88ZM486.338 92.624L487.76 93.038C485.492 99.644 481.406 103.352 474.854 105.476C474.71 105.134 474.278 104.486 473.99 104.162C480.416 102.326 484.322 98.798 486.338 92.624ZM478.166 92.714C480.11 98.474 484.16 102.614 490.658 104.126C490.334 104.45 489.902 105.062 489.686 105.458C483.008 103.712 479.048 99.428 476.834 93.128L478.166 92.714ZM474.206 91.94H490.478V93.272H474.206V91.94ZM481.586 88.88H482.972V92.75H481.586V88.88ZM506.948 96.908H508.316C508.316 96.908 508.298 97.304 508.262 97.52C507.992 101.12 507.722 102.578 507.182 103.118C506.804 103.514 506.408 103.622 505.778 103.658C505.202 103.694 504.122 103.676 503.024 103.622C502.988 103.226 502.826 102.686 502.556 102.326C503.69 102.434 504.86 102.434 505.292 102.434C505.652 102.434 505.85 102.416 506.048 102.272C506.444 101.912 506.696 100.49 506.93 97.106L506.948 96.908ZM498.83 88.952H500.198V105.422H498.83V88.952ZM504.212 90.338L505.004 89.438C506.138 90.14 507.668 91.202 508.424 91.868L507.578 92.912C506.858 92.192 505.364 91.094 504.212 90.338ZM492.386 96.908H507.524V98.186H492.386V96.908ZM493.556 92.048H505.706V97.754H504.356V93.344H493.556V92.048Z" fill="black"/>
<path d="M543.439 104.179C542.689 104.179 542.014 104.03 541.413 103.732C540.812 103.433 540.331 103.024 539.968 102.504C539.606 101.984 539.408 101.392 539.374 100.727H540.908C540.968 101.32 541.236 101.81 541.713 102.197C542.195 102.581 542.77 102.773 543.439 102.773C543.976 102.773 544.453 102.647 544.871 102.396C545.293 102.144 545.623 101.799 545.862 101.36C546.105 100.917 546.226 100.416 546.226 99.858C546.226 99.2869 546.1 98.7777 545.849 98.3303C545.602 97.8786 545.261 97.5227 544.826 97.2628C544.392 97.0028 543.895 96.8707 543.337 96.8665C542.936 96.8622 542.525 96.924 542.103 97.0518C541.681 97.1754 541.334 97.3352 541.061 97.5312L539.578 97.3523L540.371 90.9091H547.172V92.3153H541.701L541.24 96.1761H541.317C541.585 95.9631 541.922 95.7862 542.327 95.6456C542.732 95.505 543.154 95.4347 543.593 95.4347C544.394 95.4347 545.108 95.6264 545.734 96.0099C546.365 96.3892 546.859 96.9091 547.217 97.5696C547.579 98.2301 547.76 98.9844 547.76 99.8324C547.76 100.668 547.573 101.413 547.198 102.07C546.827 102.722 546.316 103.237 545.664 103.616C545.012 103.991 544.27 104.179 543.439 104.179ZM555.735 92.102H570.243V100.58H568.839V93.434H557.085V100.67H555.735V92.102ZM556.455 98.222H569.649V99.536H556.455V98.222ZM562.251 88.88H563.655V105.422H562.251V88.88ZM585.039 92.624L586.461 93.038C584.193 99.644 580.107 103.352 573.555 105.476C573.411 105.134 572.979 104.486 572.691 104.162C579.117 102.326 583.023 98.798 585.039 92.624ZM576.867 92.714C578.811 98.474 582.861 102.614 589.359 104.126C589.035 104.45 588.603 105.062 588.387 105.458C581.709 103.712 577.749 99.428 575.535 93.128L576.867 92.714ZM572.907 91.94H589.179V93.272H572.907V91.94ZM580.287 88.88H581.673V92.75H580.287V88.88Z" fill="black"/>
<path d="M623.554 104.179C623.017 104.17 622.48 104.068 621.943 103.872C621.407 103.676 620.916 103.346 620.473 102.881C620.03 102.413 619.674 101.78 619.406 100.983C619.137 100.182 619.003 99.1761 619.003 97.9659C619.003 96.8068 619.112 95.7798 619.329 94.8849C619.546 93.9858 619.862 93.2294 620.275 92.6158C620.688 91.9979 621.187 91.5291 621.771 91.2095C622.359 90.8899 623.022 90.7301 623.759 90.7301C624.492 90.7301 625.144 90.8771 625.715 91.1712C626.29 91.4609 626.759 91.8658 627.121 92.3857C627.483 92.9055 627.718 93.5043 627.824 94.1818H626.264C626.12 93.5937 625.838 93.1058 625.421 92.718C625.003 92.3303 624.449 92.1364 623.759 92.1364C622.745 92.1364 621.946 92.5774 621.362 93.4595C620.782 94.3416 620.49 95.5795 620.486 97.1733H620.588C620.827 96.8111 621.11 96.5021 621.438 96.2464C621.771 95.9865 622.137 95.7862 622.538 95.6456C622.938 95.505 623.362 95.4347 623.81 95.4347C624.56 95.4347 625.246 95.6222 625.868 95.9972C626.49 96.3679 626.989 96.8814 627.364 97.5376C627.739 98.1896 627.926 98.9375 627.926 99.7812C627.926 100.591 627.745 101.332 627.383 102.006C627.021 102.675 626.512 103.207 625.855 103.604C625.203 103.996 624.436 104.188 623.554 104.179ZM623.554 102.773C624.091 102.773 624.573 102.638 624.999 102.37C625.429 102.102 625.768 101.741 626.015 101.29C626.267 100.838 626.392 100.335 626.392 99.7812C626.392 99.2401 626.271 98.7479 626.028 98.3047C625.789 97.8572 625.459 97.5014 625.037 97.2372C624.62 96.973 624.142 96.8409 623.605 96.8409C623.201 96.8409 622.823 96.9219 622.474 97.0838C622.125 97.2415 621.818 97.4588 621.554 97.7358C621.294 98.0128 621.089 98.3303 620.94 98.6882C620.791 99.0419 620.716 99.4148 620.716 99.8068C620.716 100.327 620.838 100.812 621.081 101.264C621.328 101.716 621.664 102.08 622.09 102.357C622.521 102.634 623.009 102.773 623.554 102.773ZM635.875 92.102H650.383V100.58H648.979V93.434H637.225V100.67H635.875V92.102ZM636.595 98.222H649.789V99.536H636.595V98.222ZM642.391 88.88H643.795V105.422H642.391V88.88ZM656.719 88.844L658.123 89.168C657.277 91.85 655.873 94.388 654.379 96.026C654.091 95.792 653.479 95.396 653.137 95.198C654.685 93.704 655.963 91.31 656.719 88.844ZM656.647 91.31H667.807V92.624H655.981L656.647 91.31ZM653.101 97.16H669.193V98.51H653.101V97.16ZM660.445 91.868H661.849V105.458H660.445V91.868Z" fill="black"/>
<path d="M700.091 104L705.946 92.4176V92.3153H699.196V90.9091H707.583V92.392L701.753 104H700.091ZM715.401 92.102H729.909V100.58H728.505V93.434H716.751V100.67H715.401V92.102ZM716.121 98.222H729.315V99.536H716.121V98.222ZM721.917 88.88H723.321V105.422H721.917V88.88ZM735.957 91.652H740.547V92.93H735.957V91.652ZM743.823 88.898H745.209V105.404H743.823V88.898ZM733.995 96.17L734.697 95.18C736.209 96.008 738.063 97.286 738.945 98.204L738.189 99.32C737.325 98.384 735.507 97.034 733.995 96.17ZM736.479 88.88L737.829 89.15C736.875 92.678 735.291 95.81 733.275 97.844C733.041 97.61 732.465 97.178 732.141 96.962C734.139 95.126 735.633 92.138 736.479 88.88ZM741.969 93.164C743.499 95.99 746.487 98.78 749.403 100.094C749.079 100.364 748.665 100.868 748.431 101.228C745.497 99.716 742.527 96.728 740.835 93.596L741.969 93.164ZM740.169 91.652H740.421L740.673 91.598L741.537 91.886C740.457 98.888 737.487 103.19 733.635 105.35C733.401 105.044 732.879 104.558 732.555 104.342C736.389 102.326 739.233 98.366 740.169 91.958V91.652Z" fill="black"/>
<path d="M773.688 96.9906L779.359 103.805C779.55 104.033 779.889 104.064 780.117 103.873C780.345 103.683 780.377 103.344 780.186 103.116L775.089 96.9906L780.188 90.8828C780.378 90.6547 780.347 90.3156 780.119 90.125C779.891 89.9344 779.55 89.9656 779.359 90.1938L773.688 96.9906Z" fill="#CDCDCD"/>
<g clip-path="url(#clip1_0_1)">
<path d="M848 105C843.6 105 840 101.4 840 97C840 92.6 843.6 89 848 89C852.4 89 856 92.6 856 97C856 101.4 852.4 105 848 105ZM848 90.4545C844.4 90.4545 841.455 93.4 841.455 97C841.455 100.6 844.4 103.545 848 103.545C851.6 103.545 854.545 100.6 854.545 97C854.545 93.4 851.6 90.4545 848 90.4545Z" fill="#2D3548"/>
<path d="M845.455 96.6364C844.836 96.6364 844.364 96.1636 844.364 95.5455V94.8182C844.364 94.2 844.836 93.7273 845.455 93.7273C846.073 93.7273 846.545 94.2 846.545 94.8182V95.5455C846.545 96.1636 846.073 96.6364 845.455 96.6364ZM850.545 96.6364C849.927 96.6364 849.455 96.1636 849.455 95.5455V94.8182C849.455 94.2 849.927 93.7273 850.545 93.7273C851.164 93.7273 851.636 94.2 851.636 94.8182V95.5455C851.636 96.1636 851.164 96.6364 850.545 96.6364ZM848 101.218C846.545 101.218 845.164 100.6 844.182 99.5455C843.891 99.2545 843.927 98.7818 844.218 98.5273C844.509 98.2364 844.982 98.2727 845.236 98.5636C845.964 99.3273 846.909 99.7636 847.964 99.7636C849.018 99.7636 850 99.3273 850.691 98.5636C850.982 98.2727 851.418 98.2364 851.709 98.5273C852 98.8182 852.036 99.2545 851.745 99.5455C850.836 100.6 849.455 101.218 848 101.218Z" fill="#2D3548"/>
</g>
<path d="M57.552 96.8393C56.743 96.5042 55.8757 96.3323 55 96.3333C51.318 96.3333 48.3333 99.318 48.3333 103C48.3333 106.682 51.318 109.667 55 109.667C58.682 109.667 61.6667 106.682 61.6667 103C61.6667 102.113 61.4933 101.25 61.1607 100.448C61.1256 100.368 61.0606 100.305 60.9797 100.273C60.8988 100.24 60.8084 100.241 60.7279 100.274C60.6474 100.308 60.5831 100.371 60.5489 100.452C60.5148 100.532 60.5133 100.622 60.545 100.703C60.8465 101.431 61.0011 102.212 61 103C61 106.314 58.3137 109 55 109C51.6863 109 49 106.314 49 103C49 99.6863 51.6863 97 55 97C55.7987 97 56.575 97.156 57.2967 97.455C57.3779 97.4867 57.4683 97.4852 57.5485 97.4511C57.6287 97.4169 57.6923 97.3526 57.7257 97.2721C57.759 97.1916 57.7596 97.1012 57.7271 97.0203C57.6947 96.9394 57.6318 96.8744 57.552 96.8393ZM55.3333 100.667C55.3333 100.578 55.2982 100.493 55.2357 100.431C55.1732 100.368 55.0884 100.333 55 100.333C54.9116 100.333 54.8268 100.368 54.7643 100.431C54.7018 100.493 54.6667 100.578 54.6667 100.667V103.333C54.6667 103.422 54.7018 103.507 54.7643 103.569L56.7643 105.569C56.8272 105.63 56.9114 105.663 56.9988 105.663C57.0862 105.662 57.1698 105.627 57.2316 105.565C57.2934 105.503 57.3285 105.42 57.3292 105.332C57.33 105.245 57.2964 105.161 57.2357 105.098L55.3333 103.195V100.667Z" fill="#3D3D3D"/>
<path d="M57.552 124.839C56.743 124.504 55.8757 124.332 55 124.333C51.318 124.333 48.3333 127.318 48.3333 131C48.3333 134.682 51.318 137.667 55 137.667C58.682 137.667 61.6667 134.682 61.6667 131C61.6667 130.113 61.4933 129.25 61.1607 128.448C61.1256 128.368 61.0606 128.305 60.9797 128.273C60.8988 128.24 60.8084 128.241 60.7279 128.274C60.6474 128.308 60.5831 128.371 60.5489 128.452C60.5148 128.532 60.5133 128.622 60.545 128.703C60.8465 129.431 61.0011 130.212 61 131C61 134.314 58.3137 137 55 137C51.6863 137 49 134.314 49 131C49 127.686 51.6863 125 55 125C55.7987 125 56.575 125.156 57.2967 125.455C57.3779 125.487 57.4683 125.485 57.5485 125.451C57.6287 125.417 57.6923 125.353 57.7257 125.272C57.759 125.192 57.7596 125.101 57.7271 125.02C57.6947 124.939 57.6318 124.874 57.552 124.839ZM55.3333 128.667C55.3333 128.578 55.2982 128.493 55.2357 128.431C55.1732 128.368 55.0884 128.333 55 128.333C54.9116 128.333 54.8268 128.368 54.7643 128.431C54.7018 128.493 54.6667 128.578 54.6667 128.667V131.333C54.6667 131.422 54.7018 131.507 54.7643 131.569L56.7643 133.569C56.8272 133.63 56.9114 133.663 56.9988 133.663C57.0862 133.662 57.1698 133.627 57.2316 133.565C57.2934 133.503 57.3285 133.42 57.3292 133.332C57.33 133.245 57.2964 133.161 57.2357 133.098L55.3333 131.195V128.667Z" fill="#3D3D3D"/>
<path d="M57.552 152.839C56.743 152.504 55.8757 152.332 55 152.333C51.318 152.333 48.3333 155.318 48.3333 159C48.3333 162.682 51.318 165.667 55 165.667C58.682 165.667 61.6667 162.682 61.6667 159C61.6667 158.113 61.4933 157.25 61.1607 156.448C61.1256 156.368 61.0606 156.305 60.9797 156.273C60.8988 156.24 60.8084 156.241 60.7279 156.274C60.6474 156.308 60.5831 156.371 60.5489 156.452C60.5148 156.532 60.5133 156.622 60.545 156.703C60.8465 157.431 61.0011 158.212 61 159C61 162.314 58.3137 165 55 165C51.6863 165 49 162.314 49 159C49 155.686 51.6863 153 55 153C55.7987 153 56.575 153.156 57.2967 153.455C57.3779 153.487 57.4683 153.485 57.5485 153.451C57.6287 153.417 57.6923 153.353 57.7257 153.272C57.759 153.192 57.7596 153.101 57.7271 153.02C57.6947 152.939 57.6318 152.874 57.552 152.839ZM55.3333 156.667C55.3333 156.578 55.2982 156.493 55.2357 156.431C55.1732 156.368 55.0884 156.333 55 156.333C54.9116 156.333 54.8268 156.368 54.7643 156.431C54.7018 156.493 54.6667 156.578 54.6667 156.667V159.333C54.6667 159.422 54.7018 159.507 54.7643 159.569L56.7643 161.569C56.8272 161.63 56.9114 161.663 56.9988 161.663C57.0862 161.662 57.1698 161.627 57.2316 161.565C57.2934 161.503 57.3285 161.42 57.3292 161.332C57.33 161.245 57.2964 161.161 57.2357 161.098L55.3333 159.195V156.667Z" fill="#3D3D3D"/>
</g>
<defs>
<filter id="filter0_d_0_1" x="19" y="26" width="601" height="199" filterUnits="userSpaceOnUse" color-interpolation-filters="sRGB">
<feFlood flood-opacity="0" result="BackgroundImageFix"/>
<feColorMatrix in="SourceAlpha" type="matrix" values="0 0 0 0 0 0 0 0 0 0 0 0 0 0 0 0 0 0 127 0" result="hardAlpha"/>
<feOffset/>
<feGaussianBlur stdDeviation="4"/>
<feComposite in2="hardAlpha" operator="out"/>
<feColorMatrix type="matrix" values="0 0 0 0 0 0 0 0 0 0 0 0 0 0 0 0 0 0 0.25 0"/>
<feBlend mode="normal" in2="BackgroundImageFix" result="effect1_dropShadow_0_1"/>
<feBlend mode="normal" in="SourceGraphic" in2="effect1_dropShadow_0_1" result="shape"/>
</filter>
<clipPath id="clip0_0_1">
<rect width="900" height="166" fill="white"/>
</clipPath>
<clipPath id="clip1_0_1">
<rect width="16" height="16" fill="white" transform="translate(840 89)"/>
</clipPath>
</defs>
</svg>
